<svg xmlns="http://www.w3.org/2000/svg" viewBox="0 0 702 132" width="702" height="132" data-logic-fence="0.1.0" role="img"><rect x="0" y="0" width="702" height="132" fill="#ffffff"/><text x="14" y="32" text-anchor="start" font-family="&apos;Segoe UI&apos;, &apos;Helvetica Neue&apos;, Arial, &apos;Noto Sans&apos;, &apos;Hiragino Sans&apos;, &apos;Yu Gothic UI&apos;, &apos;Noto Sans CJK JP&apos;, sans-serif" fill="#000000" font-size="18" font-weight="600">図05 dark と mono</text><line x1="124" y1="46" x2="124" y2="80" stroke="#bdbdbd" stroke-width="1"/><line x1="184" y1="46" x2="184" y2="80" stroke="#bdbdbd" stroke-width="1"/><line x1="244" y1="46" x2="244" y2="80" stroke="#bdbdbd" stroke-width="1"/><line x1="304" y1="46" x2="304" y2="80" stroke="#bdbdbd" stroke-width="1"/><line x1="364" y1="46" x2="364" y2="80" stroke="#bdbdbd" stroke-width="1"/><line x1="424" y1="46" x2="424" y2="80" stroke="#bdbdbd" stroke-width="1"/><line x1="484" y1="46" x2="484" y2="80" stroke="#bdbdbd" stroke-width="1"/><line x1="544" y1="46" x2="544" y2="80" stroke="#bdbdbd" stroke-width="1"/><line x1="604" y1="46" x2="604" y2="80" stroke="#bdbdbd" stroke-width="1"/><rect x="64" y="46" width="600" height="34" fill="none" stroke="#000000" stroke-width="1"/><text x="64" y="94.4" text-anchor="middle" font-family="ui-sans-serif, system-ui, sans-serif" fill="#3a3a3a" font-size="12">0 ms</text><text x="124" y="94.4" text-anchor="middle" font-family="ui-sans-serif, system-ui, sans-serif" fill="#3a3a3a" font-size="12">1 ms</text><text x="184" y="94.4" text-anchor="middle" font-family="ui-sans-serif, system-ui, sans-serif" fill="#3a3a3a" font-size="12">2 ms</text><text x="244" y="94.4" text-anchor="middle" font-family="ui-sans-serif, system-ui, sans-serif" fill="#3a3a3a" font-size="12">3 ms</text><text x="304" y="94.4" text-anchor="middle" font-family="ui-sans-serif, system-ui, sans-serif" fill="#3a3a3a" font-size="12">4 ms</text><text x="364" y="94.4" text-anchor="middle" font-family="ui-sans-serif, system-ui, sans-serif" fill="#3a3a3a" font-size="12">5 ms</text><text x="424" y="94.4" text-anchor="middle" font-family="ui-sans-serif, system-ui, sans-serif" fill="#3a3a3a" font-size="12">6 ms</text><text x="484" y="94.4" text-anchor="middle" font-family="ui-sans-serif, system-ui, sans-serif" fill="#3a3a3a" font-size="12">7 ms</text><text x="544" y="94.4" text-anchor="middle" font-family="ui-sans-serif, system-ui, sans-serif" fill="#3a3a3a" font-size="12">8 ms</text><text x="604" y="94.4" text-anchor="middle" font-family="ui-sans-serif, system-ui, sans-serif" fill="#3a3a3a" font-size="12">9 ms</text><text x="664" y="94.4" text-anchor="middle" font-family="ui-sans-serif, system-ui, sans-serif" fill="#3a3a3a" font-size="12">10 ms</text><text x="59" y="67.2" text-anchor="end" font-family="ui-sans-serif, system-ui, sans-serif" fill="#000000" font-size="12" font-weight="600">CLK</text><path d="M64 54H94V72H124V54H154V72H184V54H214V72H244V54H274V72H304V54H334V72H364V54H394V72H424V54H454V72H484V54H514V72H544V54H574V72H604V54H634V72H664V54H664" fill="none" stroke="#000000" stroke-width="1.6" stroke-linejoin="miter"/><text x="14" y="112" text-anchor="start" font-family="ui-sans-serif, system-ui, sans-serif" fill="#000000" font-size="12">Generic  ·  1ms/div  ·  窓 10 ms</text></svg>
