<svg data-figure-paper="#ffffff" data-circuit-fence="0.10.0" fill="#1f2328" xmlns="http://www.w3.org/2000/svg" width="666.569" height="278.852" viewBox="-72 -72 499.927 209.139"><rect x="-72" y="-72" width="499.927" height="209.139" fill="#ffffff"/><g stroke="#1f2328" stroke-miterlimit="10" stroke-width=".8"><path fill="#8b949e" fill-opacity=".35" stroke="none" stroke-opacity=".35" d="M-36.217999999999996-18.511a1.1 1.1 0 1 0-2.2 0 1.1 1.1 0 0 0 2.2 0M20.688000000000002-18.511a1.1 1.1 0 1 0-2.2 0 1.1 1.1 0 0 0 2.2 0M77.59299999999999-18.511a1.1 1.1 0 1 0-2.2 0 1.1 1.1 0 0 0 2.2 0M134.499-18.511a1.1 1.1 0 1 0-2.2 0 1.1 1.1 0 0 0 2.2 0M191.404-18.511a1.1 1.1 0 1 0-2.2 0 1.1 1.1 0 0 0 2.2 0m-1.1 0"/><g fill="#8b949e" stroke="#8b949e"><text x="-37.318" y="-18.511" fill="#8b949e" stroke="none" font-family="cmr7" font-size="7" transform="translate(-1.993 -21.645)">1</text></g><g fill="#8b949e" stroke="#8b949e"><text x="-37.318" y="-18.511" fill="#8b949e" stroke="none" font-family="cmr7" font-size="7" transform="translate(54.912 -21.645)">2</text></g><g fill="#8b949e" stroke="#8b949e"><text x="-37.318" y="-18.511" fill="#8b949e" stroke="none" font-family="cmr7" font-size="7" transform="translate(111.818 -21.645)">3</text></g><g fill="#8b949e" stroke="#8b949e"><text x="-37.318" y="-18.511" fill="#8b949e" stroke="none" font-family="cmr7" font-size="7" transform="translate(168.723 -21.645)">4</text></g><g fill="#8b949e" stroke="#8b949e"><text x="-37.318" y="-18.511" fill="#8b949e" stroke="none" font-family="cmr7" font-size="7" transform="translate(225.629 -21.645)">5</text></g><g fill="#8b949e" stroke="#8b949e"><text x="-37.318" y="-18.511" fill="#8b949e" stroke="none" font-family="cmr7" font-size="7" transform="translate(-31.62 1.507)">a</text></g><path fill="none" d="M-37.318-18.511h.4m-.4 0h14.796m27.314 0h14.796m-.4 0h.4"/><g stroke-width="1.6"><path fill="none" d="M-22.522-23.633H4.792v10.243h-27.314Z"/></g><g stroke="none"><text x="-37.318" y="-18.511" font-family="cmmi10" font-size="10" transform="translate(22.413 15.648)">R</text><text x="-29.725" y="-17.011" font-family="cmr7" font-size="7" transform="translate(22.413 15.648)">1</text></g><g stroke="none" font-family="cmr10" font-size="10"><text x="-37.318" y="-18.511" transform="translate(16.37 -8.863)">10</text><text x="-25.651" y="-18.511" transform="translate(16.37 -8.863)">k¬</text></g><path fill="none" d="M133.399-18.511h.4m-.4 0h18.21m20.486 0h18.21m-.401 0h.4"/><g stroke-linejoin="bevel" stroke-width="1.6"><path fill="none" d="M150.808-18.191c0-2.829 1.448-5.122 3.233-5.122s3.233 2.293 3.233 5.122c0 1.414-.573 2.56-1.28 2.56s-1.28-1.146-1.28-2.56c0-2.829 1.447-5.122 3.232-5.122s3.233 2.293 3.233 5.122c0 1.414-.573 2.56-1.28 2.56s-1.28-1.146-1.28-2.56c0-2.829 1.447-5.122 3.232-5.122s3.233 2.293 3.233 5.122c0 1.414-.573 2.56-1.28 2.56s-1.28-1.146-1.28-2.56c0-2.829 1.447-5.122 3.233-5.122 1.785 0 3.232 2.293 3.232 5.122 0 1.414-.573 2.56-1.28 2.56s-1.28-1.146-1.28-2.56c0-2.829 1.447-5.122 3.233-5.122 1.785 0 3.232 2.293 3.232 5.122"/></g><g stroke="none"><text x="-37.318" y="-18.511" font-family="cmmi10" font-size="10" transform="translate(193.523 12.831)">L</text><text x="-30.512" y="-17.011" font-family="cmr7" font-size="7" transform="translate(193.523 12.831)">1</text></g><g stroke="none" font-family="cmr10" font-size="10"><text x="-37.318" y="-18.511" transform="translate(185.42 -8.863)">10</text><text x="-25.651" y="-18.511" transform="translate(185.42 -8.863)">mH</text></g><g><text x="-37.318" y="-18.511" fill="#4c8eda" stroke="none" font-family="'Noto Sans Mono CJK JP',ui-monospace,'SFMono-Regular',Consolas,'Liberation Mono',monospace" font-size="12" transform="translate(284.927 4.1)" xml:space="preserve">```circuit</text></g><g><text x="-37.318" y="-18.511" fill="#4c8eda" stroke="none" font-family="'Noto Sans Mono CJK JP',ui-monospace,'SFMono-Regular',Consolas,'Liberation Mono',monospace" font-size="12" transform="translate(284.927 17.956)" xml:space="preserve">title: 図05 記号の流儀 jis</text></g><g><text x="-37.318" y="-18.511" fill="#4c8eda" stroke="none" font-family="'Noto Sans Mono CJK JP',ui-monospace,'SFMono-Regular',Consolas,'Liberation Mono',monospace" font-size="12" transform="translate(284.927 31.813)" xml:space="preserve">parts:</text></g><g><text x="-37.318" y="-18.511" fill="#4c8eda" stroke="none" font-family="'Noto Sans Mono CJK JP',ui-monospace,'SFMono-Regular',Consolas,'Liberation Mono',monospace" font-size="12" transform="translate(284.927 45.641)" xml:space="preserve">  R1: resistor a1 a2 10k</text></g><g><text x="-37.318" y="-18.511" fill="#4c8eda" stroke="none" font-family="'Noto Sans Mono CJK JP',ui-monospace,'SFMono-Regular',Consolas,'Liberation Mono',monospace" font-size="12" transform="translate(284.927 59.498)" xml:space="preserve">  L1: inductor a4 a5 10m</text></g><g><text x="-37.318" y="-18.511" fill="#4c8eda" stroke="none" font-family="'Noto Sans Mono CJK JP',ui-monospace,'SFMono-Regular',Consolas,'Liberation Mono',monospace" font-size="12" transform="translate(284.927 73.354)" xml:space="preserve">notes:</text></g><g><text x="-37.318" y="-18.511" fill="#4c8eda" stroke="none" font-family="'Noto Sans Mono CJK JP',ui-monospace,'SFMono-Regular',Consolas,'Liberation Mono',monospace" font-size="12" transform="translate(284.927 87.21)" xml:space="preserve">  - source a6 blue</text></g><g><text x="-37.318" y="-18.511" fill="#4c8eda" stroke="none" font-family="'Noto Sans Mono CJK JP',ui-monospace,'SFMono-Regular',Consolas,'Liberation Mono',monospace" font-size="12" transform="translate(284.927 101.067)" xml:space="preserve">style:</text></g><g><text x="-37.318" y="-18.511" fill="#4c8eda" stroke="none" font-family="'Noto Sans Mono CJK JP',ui-monospace,'SFMono-Regular',Consolas,'Liberation Mono',monospace" font-size="12" transform="translate(284.927 114.924)" xml:space="preserve">  grid: on</text></g><g><text x="-37.318" y="-18.511" fill="#4c8eda" stroke="none" font-family="'Noto Sans Mono CJK JP',ui-monospace,'SFMono-Regular',Consolas,'Liberation Mono',monospace" font-size="12" transform="translate(284.927 128.751)" xml:space="preserve">  standard: jis</text></g><g><text x="-37.318" y="-18.511" fill="#4c8eda" stroke="none" font-family="'Noto Sans Mono CJK JP',ui-monospace,'SFMono-Regular',Consolas,'Liberation Mono',monospace" font-size="12" transform="translate(284.927 142.608)" xml:space="preserve">```</text></g><g><text x="-37.318" y="-18.511" fill="#1f2328" stroke="none" font-family="'Noto Sans CJK JP','Noto Sans JP','Hiragino Sans','Yu Gothic',sans-serif" font-size="17.28" transform="translate(-32.552 -31.889)" font-weight="bold">図05 記号の流儀 jis</text></g></g></svg>
