<svg data-circuit-fence="0.1.0" fill="currentColor" xmlns="http://www.w3.org/2000/svg" width="922.384" height="527.567" viewBox="-72 -72 691.788 395.675"><g stroke="currentColor" stroke-miterlimit="10" stroke-width=".8"><path fill="#8b949e" fill-opacity=".35" stroke="none" stroke-opacity=".35" d="M-35.787-25.909a1.1 1.1 0 1 0-2.2 0 1.1 1.1 0 0 0 2.2 0M-35.787 30.997a1.1 1.1 0 1 0-2.2 0 1.1 1.1 0 0 0 2.2 0M-35.787 87.902a1.1 1.1 0 1 0-2.2 0 1.1 1.1 0 0 0 2.2 0M-35.787 144.808a1.1 1.1 0 1 0-2.2 0 1.1 1.1 0 0 0 2.2 0M-35.787 201.713a1.1 1.1 0 1 0-2.2 0 1.1 1.1 0 0 0 2.2 0M21.118000000000002-25.909a1.1 1.1 0 1 0-2.2 0 1.1 1.1 0 0 0 2.2 0M21.118000000000002 30.997a1.1 1.1 0 1 0-2.2 0 1.1 1.1 0 0 0 2.2 0M21.118000000000002 87.902a1.1 1.1 0 1 0-2.2 0 1.1 1.1 0 0 0 2.2 0M21.118000000000002 144.808a1.1 1.1 0 1 0-2.2 0 1.1 1.1 0 0 0 2.2 0M21.118000000000002 201.713a1.1 1.1 0 1 0-2.2 0 1.1 1.1 0 0 0 2.2 0M78.024-25.909a1.1 1.1 0 1 0-2.2 0 1.1 1.1 0 0 0 2.2 0M78.024 30.997a1.1 1.1 0 1 0-2.2 0 1.1 1.1 0 0 0 2.2 0M78.024 87.902a1.1 1.1 0 1 0-2.2 0 1.1 1.1 0 0 0 2.2 0M78.024 144.808a1.1 1.1 0 1 0-2.2 0 1.1 1.1 0 0 0 2.2 0M78.024 201.713a1.1 1.1 0 1 0-2.2 0 1.1 1.1 0 0 0 2.2 0M134.93-25.909a1.1 1.1 0 1 0-2.2 0 1.1 1.1 0 0 0 2.2 0M134.93 30.997a1.1 1.1 0 1 0-2.2 0 1.1 1.1 0 0 0 2.2 0M134.93 87.902a1.1 1.1 0 1 0-2.2 0 1.1 1.1 0 0 0 2.2 0M134.93 144.808a1.1 1.1 0 1 0-2.2 0 1.1 1.1 0 0 0 2.2 0M134.93 201.713a1.1 1.1 0 1 0-2.2 0 1.1 1.1 0 0 0 2.2 0M191.835-25.909a1.1 1.1 0 1 0-2.2 0 1.1 1.1 0 0 0 2.2 0M191.835 30.997a1.1 1.1 0 1 0-2.2 0 1.1 1.1 0 0 0 2.2 0M191.835 87.902a1.1 1.1 0 1 0-2.2 0 1.1 1.1 0 0 0 2.2 0M191.835 144.808a1.1 1.1 0 1 0-2.2 0 1.1 1.1 0 0 0 2.2 0M191.835 201.713a1.1 1.1 0 1 0-2.2 0 1.1 1.1 0 0 0 2.2 0M248.73999999999998-25.909a1.1 1.1 0 1 0-2.2 0 1.1 1.1 0 0 0 2.2 0M248.73999999999998 30.997a1.1 1.1 0 1 0-2.2 0 1.1 1.1 0 0 0 2.2 0M248.73999999999998 87.902a1.1 1.1 0 1 0-2.2 0 1.1 1.1 0 0 0 2.2 0M248.73999999999998 144.808a1.1 1.1 0 1 0-2.2 0 1.1 1.1 0 0 0 2.2 0M248.73999999999998 201.713a1.1 1.1 0 1 0-2.2 0 1.1 1.1 0 0 0 2.2 0M305.646-25.909a1.1 1.1 0 1 0-2.2 0 1.1 1.1 0 0 0 2.2 0M305.646 30.997a1.1 1.1 0 1 0-2.2 0 1.1 1.1 0 0 0 2.2 0M305.646 87.902a1.1 1.1 0 1 0-2.2 0 1.1 1.1 0 0 0 2.2 0M305.646 144.808a1.1 1.1 0 1 0-2.2 0 1.1 1.1 0 0 0 2.2 0M305.646 201.713a1.1 1.1 0 1 0-2.2 0 1.1 1.1 0 0 0 2.2 0M362.55100000000004-25.909a1.1 1.1 0 1 0-2.2 0 1.1 1.1 0 0 0 2.2 0M362.55100000000004 30.997a1.1 1.1 0 1 0-2.2 0 1.1 1.1 0 0 0 2.2 0M362.55100000000004 87.902a1.1 1.1 0 1 0-2.2 0 1.1 1.1 0 0 0 2.2 0M362.55100000000004 144.808a1.1 1.1 0 1 0-2.2 0 1.1 1.1 0 0 0 2.2 0M362.55100000000004 201.713a1.1 1.1 0 1 0-2.2 0 1.1 1.1 0 0 0 2.2 0m-1.1 0"/><g fill="#8b949e" stroke="#8b949e"><text x="-36.887" y="-25.909" fill="#8b949e" stroke="none" font-family="cmr7" font-size="7" transform="translate(-1.993 -21.645)">1</text></g><g fill="#8b949e" stroke="#8b949e"><text x="-36.887" y="-25.909" fill="#8b949e" stroke="none" font-family="cmr7" font-size="7" transform="translate(54.912 -21.645)">2</text></g><g fill="#8b949e" stroke="#8b949e"><text x="-36.887" y="-25.909" fill="#8b949e" stroke="none" font-family="cmr7" font-size="7" transform="translate(111.818 -21.645)">3</text></g><g fill="#8b949e" stroke="#8b949e"><text x="-36.887" y="-25.909" fill="#8b949e" stroke="none" font-family="cmr7" font-size="7" transform="translate(168.723 -21.645)">4</text></g><g fill="#8b949e" stroke="#8b949e"><text x="-36.887" y="-25.909" fill="#8b949e" stroke="none" font-family="cmr7" font-size="7" transform="translate(225.629 -21.645)">5</text></g><g fill="#8b949e" stroke="#8b949e"><text x="-36.887" y="-25.909" fill="#8b949e" stroke="none" font-family="cmr7" font-size="7" transform="translate(282.534 -21.645)">6</text></g><g fill="#8b949e" stroke="#8b949e"><text x="-36.887" y="-25.909" fill="#8b949e" stroke="none" font-family="cmr7" font-size="7" transform="translate(339.44 -21.645)">7</text></g><g fill="#8b949e" stroke="#8b949e"><text x="-36.887" y="-25.909" fill="#8b949e" stroke="none" font-family="cmr7" font-size="7" transform="translate(396.345 -21.645)">8</text></g><g fill="#8b949e" stroke="#8b949e"><text x="-36.887" y="-25.909" fill="#8b949e" stroke="none" font-family="cmr7" font-size="7" transform="translate(-31.62 1.507)">a</text></g><g fill="#8b949e" stroke="#8b949e"><text x="-36.887" y="-25.909" fill="#8b949e" stroke="none" font-family="cmr7" font-size="7" transform="translate(-32.05 59.336)">b</text></g><g fill="#8b949e" stroke="#8b949e"><text x="-36.887" y="-25.909" fill="#8b949e" stroke="none" font-family="cmr7" font-size="7" transform="translate(-31.189 115.318)">c</text></g><g fill="#8b949e" stroke="#8b949e"><text x="-36.887" y="-25.909" fill="#8b949e" stroke="none" font-family="cmr7" font-size="7" transform="translate(-32.05 173.147)">d</text></g><g fill="#8b949e" stroke="#8b949e"><text x="-36.887" y="-25.909" fill="#8b949e" stroke="none" font-family="cmr7" font-size="7" transform="translate(-31.189 229.129)">e</text></g><g fill="#ffffff"><path d="M-35.522 30.997a1.365 1.365 0 1 0-2.73 0 1.365 1.365 0 0 0 2.73 0Zm-1.365 0"/></g><text x="-36.887" y="-25.909" stroke="none" font-family="cmr10" font-size="10" transform="translate(-14.844 53.173)">IN</text><path fill="none" d="M-36.887 30.997h.4m-.4 0h53.491m6.829 0h53.49m-.399 0h.4"/><g stroke-width="1.6"><path fill="none" d="M16.604 20.754V41.24m6.829-20.486V41.24"/></g><g stroke="none"><text x="-36.887" y="-25.909" font-family="cmmi10" font-size="10" transform="translate(51.089 78.187)">C</text><text x="-29.74" y="-24.409" font-family="cmr7" font-size="7" transform="translate(51.089 78.187)">1</text></g><g stroke="none" font-family="cmr10" font-size="10"><text x="-36.887" y="-25.909" transform="translate(47.53 42.409)">1</text><text x="-30.221" y="-25.909" transform="translate(47.53 42.409)">uF</text></g><path fill="none" d="M76.924 30.997v.4m0-.4v71.7m0 27.315v71.701m0-.4v.4"/><g stroke-linejoin="bevel" stroke-width="1.6"><path fill="none" d="m76.924 101.898 5.121 3.143-10.243 4.685 10.243 4.686-10.243 4.686 10.243 4.686-10.243 4.685 5.122 2.343"/></g><g stroke="none"><text x="-36.887" y="-25.909" font-family="cmmi10" font-size="10" transform="translate(94.953 144.416)">R</text><text x="-29.294" y="-24.409" font-family="cmmi7" font-size="7" transform="translate(94.953 144.416)">b</text></g><g stroke="none" font-family="cmr10" font-size="10"><text x="-36.887" y="-25.909" transform="translate(121.06 144.416)">100</text><text x="-20.22" y="-25.909" transform="translate(121.06 144.416)">k¬</text></g><path fill="none" d="M76.924 201.713v13.93"/><path fill="none" stroke-width="1.6" d="M69.959 215.644h13.93m-11.609 2.321h9.287m-7.545 2.322h5.804M211.05 30.997l-40.63-23.9v47.8Z"/><path fill="none" d="M161.713 19.047h8.707m-8.707 23.9h8.707m49.336-11.95h-8.706M174.232 22.746h7.967M178.216 26.729v-7.967M174.232 39.248h7.967M133.83 144.808v.4m0-.40000000000000213v14.795m0 27.315v14.795m-.0010000000000012221-.3999999999999986v.4"/><g stroke-linejoin="bevel" stroke-width="1.6"><path fill="none" d="m133.83 158.803 5.12 3.143-10.242 4.686 10.243 4.686-10.243 4.685 10.243 4.686-10.243 4.686 5.121 2.343"/></g><g stroke="none"><text x="-36.887" y="-25.909" font-family="cmmi10" font-size="10" transform="translate(151.39 201.322)">R</text><text x="-29.294" y="-24.409" font-family="cmr7" font-size="7" transform="translate(151.39 201.322)">2</text></g><g stroke="none" font-family="cmr10" font-size="10"><text x="-36.887" y="-25.909" transform="translate(177.965 201.322)">1</text><text x="-30.221" y="-25.909" transform="translate(177.965 201.322)">k¬</text></g><path fill="none" d="M133.83 201.713v13.93"/><path fill="none" stroke-width="1.6" d="M126.864 215.644h13.93m-11.608 2.321h9.287m-7.546 2.322h5.804"/><path fill="none" d="M133.83 144.808h.4m-.401 0h71.701m27.315 0h71.7m-.399 0h.4"/><g stroke-linejoin="bevel" stroke-width="1.6"><path fill="none" d="m204.73 144.808 3.143-5.122 4.686 10.243 4.686-10.243 4.685 10.243 4.686-10.243 4.686 10.243 2.343-5.121"/></g><g stroke="none"><text x="-36.887" y="-25.909" font-family="cmmi10" font-size="10" transform="translate(250.035 186.365)">R</text><text x="-29.294" y="-24.409" font-family="cmr7" font-size="7" transform="translate(250.035 186.365)">3</text></g><g stroke="none" font-family="cmr10" font-size="10"><text x="-36.887" y="-25.909" transform="translate(243.991 161.854)">10</text><text x="-25.221" y="-25.909" transform="translate(243.991 161.854)">k¬</text></g><g fill="#ffffff"><path d="M362.817 30.997a1.365 1.365 0 1 0-2.731 0 1.365 1.365 0 0 0 2.73 0Zm-1.366 0"/></g><text x="-36.887" y="-25.909" stroke="none" font-family="cmr10" font-size="10" transform="translate(372.105 53.173)">OUT</text><path fill="none" d="M76.924 30.997h84.79v-11.95M133.83 144.808V42.947h27.883M219.756 30.997h84.79M304.546 30.997h56.905M304.546 144.808V30.997"/><path d="M78.29 30.997a1.365 1.365 0 1 0-2.732 0 1.365 1.365 0 0 0 2.731 0ZM135.195 144.808a1.365 1.365 0 1 0-2.731 0 1.365 1.365 0 0 0 2.73 0ZM305.911 30.997a1.365 1.365 0 1 0-2.73 0 1.365 1.365 0 0 0 2.73 0Zm-1.365 0"/><g><text x="-36.887" y="-25.909" fill="#4c8eda" stroke="none" font-family="'Noto Sans Mono CJK JP',ui-monospace,'SFMono-Regular',Consolas,'Liberation Mono',monospace" font-size="12" transform="translate(455.644 4.1)" xml:space="preserve">```circuit</text></g><g><text x="-36.887" y="-25.909" fill="#4c8eda" stroke="none" font-family="'Noto Sans Mono CJK JP',ui-monospace,'SFMono-Regular',Consolas,'Liberation Mono',monospace" font-size="12" transform="translate(455.644 17.956)" xml:space="preserve">title: 図01 番地に名前を付ける</text></g><g><text x="-36.887" y="-25.909" fill="#4c8eda" stroke="none" font-family="'Noto Sans Mono CJK JP',ui-monospace,'SFMono-Regular',Consolas,'Liberation Mono',monospace" font-size="12" transform="translate(455.644 31.813)" xml:space="preserve">points:</text></g><g><text x="-36.887" y="-25.909" fill="#4c8eda" stroke="none" font-family="'Noto Sans Mono CJK JP',ui-monospace,'SFMono-Regular',Consolas,'Liberation Mono',monospace" font-size="12" transform="translate(455.644 45.641)" xml:space="preserve">  vin: b1</text></g><g><text x="-36.887" y="-25.909" fill="#4c8eda" stroke="none" font-family="'Noto Sans Mono CJK JP',ui-monospace,'SFMono-Regular',Consolas,'Liberation Mono',monospace" font-size="12" transform="translate(455.644 59.498)" xml:space="preserve">  fb:  d4</text></g><g><text x="-36.887" y="-25.909" fill="#4c8eda" stroke="none" font-family="'Noto Sans Mono CJK JP',ui-monospace,'SFMono-Regular',Consolas,'Liberation Mono',monospace" font-size="12" transform="translate(455.644 73.354)" xml:space="preserve">parts:</text></g><g><text x="-36.887" y="-25.909" fill="#4c8eda" stroke="none" font-family="'Noto Sans Mono CJK JP',ui-monospace,'SFMono-Regular',Consolas,'Liberation Mono',monospace" font-size="12" transform="translate(455.644 87.21)" xml:space="preserve">  IN:  port vin</text></g><g><text x="-36.887" y="-25.909" fill="#4c8eda" stroke="none" font-family="'Noto Sans Mono CJK JP',ui-monospace,'SFMono-Regular',Consolas,'Liberation Mono',monospace" font-size="12" transform="translate(455.644 101.067)" xml:space="preserve">  C1:  capacitor vin b3 1u</text></g><g><text x="-36.887" y="-25.909" fill="#4c8eda" stroke="none" font-family="'Noto Sans Mono CJK JP',ui-monospace,'SFMono-Regular',Consolas,'Liberation Mono',monospace" font-size="12" transform="translate(455.644 114.924)" xml:space="preserve">  Rb:  resistor b3 e3 100k</text></g><g><text x="-36.887" y="-25.909" fill="#4c8eda" stroke="none" font-family="'Noto Sans Mono CJK JP',ui-monospace,'SFMono-Regular',Consolas,'Liberation Mono',monospace" font-size="12" transform="translate(455.644 128.751)" xml:space="preserve">  G1:  ground e3</text></g><g><text x="-36.887" y="-25.909" fill="#4c8eda" stroke="none" font-family="'Noto Sans Mono CJK JP',ui-monospace,'SFMono-Regular',Consolas,'Liberation Mono',monospace" font-size="12" transform="translate(455.644 142.608)" xml:space="preserve">  U1:  opamp b5 +up</text></g><g><text x="-36.887" y="-25.909" fill="#4c8eda" stroke="none" font-family="'Noto Sans Mono CJK JP',ui-monospace,'SFMono-Regular',Consolas,'Liberation Mono',monospace" font-size="12" transform="translate(455.644 156.464)" xml:space="preserve">  R2:  resistor fb e4 1k</text></g><g><text x="-36.887" y="-25.909" fill="#4c8eda" stroke="none" font-family="'Noto Sans Mono CJK JP',ui-monospace,'SFMono-Regular',Consolas,'Liberation Mono',monospace" font-size="12" transform="translate(455.644 170.32)" xml:space="preserve">  G2:  ground e4</text></g><g><text x="-36.887" y="-25.909" fill="#4c8eda" stroke="none" font-family="'Noto Sans Mono CJK JP',ui-monospace,'SFMono-Regular',Consolas,'Liberation Mono',monospace" font-size="12" transform="translate(455.644 184.177)" xml:space="preserve">  R3:  resistor fb d7 10k</text></g><g><text x="-36.887" y="-25.909" fill="#4c8eda" stroke="none" font-family="'Noto Sans Mono CJK JP',ui-monospace,'SFMono-Regular',Consolas,'Liberation Mono',monospace" font-size="12" transform="translate(455.644 198.034)" xml:space="preserve">  OUT: port b8</text></g><g><text x="-36.887" y="-25.909" fill="#4c8eda" stroke="none" font-family="'Noto Sans Mono CJK JP',ui-monospace,'SFMono-Regular',Consolas,'Liberation Mono',monospace" font-size="12" transform="translate(455.644 211.862)" xml:space="preserve">wires:</text></g><g><text x="-36.887" y="-25.909" fill="#4c8eda" stroke="none" font-family="'Noto Sans Mono CJK JP',ui-monospace,'SFMono-Regular',Consolas,'Liberation Mono',monospace" font-size="12" transform="translate(455.644 225.718)" xml:space="preserve">  - b3 -| U1.+</text></g><g><text x="-36.887" y="-25.909" fill="#4c8eda" stroke="none" font-family="'Noto Sans Mono CJK JP',ui-monospace,'SFMono-Regular',Consolas,'Liberation Mono',monospace" font-size="12" transform="translate(455.644 239.575)" xml:space="preserve">  - fb |- U1.-</text></g><g><text x="-36.887" y="-25.909" fill="#4c8eda" stroke="none" font-family="'Noto Sans Mono CJK JP',ui-monospace,'SFMono-Regular',Consolas,'Liberation Mono',monospace" font-size="12" transform="translate(455.644 253.431)" xml:space="preserve">  - U1.out -- b7 -- b8</text></g><g><text x="-36.887" y="-25.909" fill="#4c8eda" stroke="none" font-family="'Noto Sans Mono CJK JP',ui-monospace,'SFMono-Regular',Consolas,'Liberation Mono',monospace" font-size="12" transform="translate(455.644 267.288)" xml:space="preserve">  - d7 -- b7</text></g><g><text x="-36.887" y="-25.909" fill="#4c8eda" stroke="none" font-family="'Noto Sans Mono CJK JP',ui-monospace,'SFMono-Regular',Consolas,'Liberation Mono',monospace" font-size="12" transform="translate(455.644 281.144)" xml:space="preserve">notes:</text></g><g><text x="-36.887" y="-25.909" fill="#4c8eda" stroke="none" font-family="'Noto Sans Mono CJK JP',ui-monospace,'SFMono-Regular',Consolas,'Liberation Mono',monospace" font-size="12" transform="translate(455.644 294.973)" xml:space="preserve">  - source a9 blue large</text></g><g><text x="-36.887" y="-25.909" fill="#4c8eda" stroke="none" font-family="'Noto Sans Mono CJK JP',ui-monospace,'SFMono-Regular',Consolas,'Liberation Mono',monospace" font-size="12" transform="translate(455.644 308.83)" xml:space="preserve">style:</text></g><g><text x="-36.887" y="-25.909" fill="#4c8eda" stroke="none" font-family="'Noto Sans Mono CJK JP',ui-monospace,'SFMono-Regular',Consolas,'Liberation Mono',monospace" font-size="12" transform="translate(455.644 322.686)" xml:space="preserve">  grid: on</text></g><g><text x="-36.887" y="-25.909" fill="#4c8eda" stroke="none" font-family="'Noto Sans Mono CJK JP',ui-monospace,'SFMono-Regular',Consolas,'Liberation Mono',monospace" font-size="12" transform="translate(455.644 336.542)" xml:space="preserve">```</text></g><g><text x="-36.887" y="-25.909" fill="currentColor" stroke="none" font-family="'Noto Sans CJK JP','Noto Sans JP','Hiragino Sans','Yu Gothic',sans-serif" font-size="12" transform="translate(-32.983 -31.889)" font-weight="bold">図01 番地に名前を付ける</text></g></g></svg>
