<svg xmlns="http://www.w3.org/2000/svg" viewBox="0 0 486 509" width="486" height="509" data-spectrum-fence="0.1.0" role="img"><text x="14" y="28" text-anchor="start" font-family="&apos;Segoe UI&apos;, &apos;Helvetica Neue&apos;, Arial, &apos;Noto Sans&apos;, &apos;Hiragino Sans&apos;, &apos;Yu Gothic UI&apos;, &apos;Noto Sans CJK JP&apos;, sans-serif" fill="#2c3339" font-size="15" font-weight="600">図03 ATT 20 dB — フロアだけが 20 dB 上がる</text><line x1="54" y1="45" x2="76" y2="45" stroke="#2c3339" stroke-width="1.5" stroke-dasharray="5 3"/><text x="81" y="47.98" text-anchor="start" font-family="ui-sans-serif, system-ui, sans-serif" fill="#2c3339" font-size="8.5">理想 (計算)</text><line x1="94" y1="76" x2="94" y2="376" stroke="#c9d0d6" stroke-width="1" stroke-dasharray="1 3"/><line x1="134" y1="76" x2="134" y2="376" stroke="#c9d0d6" stroke-width="1" stroke-dasharray="1 3"/><line x1="174" y1="76" x2="174" y2="376" stroke="#c9d0d6" stroke-width="1" stroke-dasharray="1 3"/><line x1="214" y1="76" x2="214" y2="376" stroke="#c9d0d6" stroke-width="1" stroke-dasharray="1 3"/><line x1="254" y1="76" x2="254" y2="376" stroke="#c9d0d6" stroke-width="1" stroke-dasharray="1 3"/><line x1="294" y1="76" x2="294" y2="376" stroke="#c9d0d6" stroke-width="1" stroke-dasharray="1 3"/><line x1="334" y1="76" x2="334" y2="376" stroke="#c9d0d6" stroke-width="1" stroke-dasharray="1 3"/><line x1="374" y1="76" x2="374" y2="376" stroke="#c9d0d6" stroke-width="1" stroke-dasharray="1 3"/><line x1="414" y1="76" x2="414" y2="376" stroke="#c9d0d6" stroke-width="1" stroke-dasharray="1 3"/><line x1="54" y1="106" x2="454" y2="106" stroke="#c9d0d6" stroke-width="1" stroke-dasharray="1 3"/><line x1="54" y1="136" x2="454" y2="136" stroke="#c9d0d6" stroke-width="1" stroke-dasharray="1 3"/><line x1="54" y1="166" x2="454" y2="166" stroke="#c9d0d6" stroke-width="1" stroke-dasharray="1 3"/><line x1="54" y1="196" x2="454" y2="196" stroke="#c9d0d6" stroke-width="1" stroke-dasharray="1 3"/><line x1="54" y1="226" x2="454" y2="226" stroke="#c9d0d6" stroke-width="1" stroke-dasharray="1 3"/><line x1="54" y1="256" x2="454" y2="256" stroke="#c9d0d6" stroke-width="1" stroke-dasharray="1 3"/><line x1="54" y1="286" x2="454" y2="286" stroke="#c9d0d6" stroke-width="1" stroke-dasharray="1 3"/><line x1="54" y1="316" x2="454" y2="316" stroke="#c9d0d6" stroke-width="1" stroke-dasharray="1 3"/><line x1="54" y1="346" x2="454" y2="346" stroke="#c9d0d6" stroke-width="1" stroke-dasharray="1 3"/><rect x="54" y="76" width="400" height="300" fill="none" stroke="#5c6670" stroke-width="1"/><text x="50" y="78.97" text-anchor="end" font-family="ui-sans-serif, system-ui, sans-serif" fill="#5f6a74" font-size="8.5">−20</text><text x="50" y="108.98" text-anchor="end" font-family="ui-sans-serif, system-ui, sans-serif" fill="#5f6a74" font-size="8.5">−30</text><text x="50" y="138.98" text-anchor="end" font-family="ui-sans-serif, system-ui, sans-serif" fill="#5f6a74" font-size="8.5">−40</text><text x="50" y="168.98" text-anchor="end" font-family="ui-sans-serif, system-ui, sans-serif" fill="#5f6a74" font-size="8.5">−50</text><text x="50" y="198.98" text-anchor="end" font-family="ui-sans-serif, system-ui, sans-serif" fill="#5f6a74" font-size="8.5">−60</text><text x="50" y="228.98" text-anchor="end" font-family="ui-sans-serif, system-ui, sans-serif" fill="#5f6a74" font-size="8.5">−70</text><text x="50" y="258.98" text-anchor="end" font-family="ui-sans-serif, system-ui, sans-serif" fill="#5f6a74" font-size="8.5">−80</text><text x="50" y="288.98" text-anchor="end" font-family="ui-sans-serif, system-ui, sans-serif" fill="#5f6a74" font-size="8.5">−90</text><text x="50" y="318.98" text-anchor="end" font-family="ui-sans-serif, system-ui, sans-serif" fill="#5f6a74" font-size="8.5">−100</text><text x="50" y="348.98" text-anchor="end" font-family="ui-sans-serif, system-ui, sans-serif" fill="#5f6a74" font-size="8.5">−110</text><text x="50" y="378.98" text-anchor="end" font-family="ui-sans-serif, system-ui, sans-serif" fill="#5f6a74" font-size="8.5">−120</text><text x="54" y="387.9" text-anchor="start" font-family="ui-sans-serif, system-ui, sans-serif" fill="#5f6a74" font-size="8.5">29 MHz</text><text x="254" y="387.9" text-anchor="middle" font-family="ui-sans-serif, system-ui, sans-serif" fill="#5f6a74" font-size="8.5">30 MHz</text><text x="454" y="387.9" text-anchor="end" font-family="ui-sans-serif, system-ui, sans-serif" fill="#5f6a74" font-size="8.5">31 MHz</text><polyline points="54,292 58,292 62,292 66,292 70,292 74,292 78,292 82,292 86,292 90,292 94,292 98,292 102,292 106,292 110,292 114,292 118,292 122,292 126,292 130,292 134,292 138,292 142,292 146,292 150,292 154,292 158,292 162,292 166,292 170,292 174,292 178,292 182,292 186,292 190,292 194,292 198,292 202,292 206,292 210,292 214,292 218,292 222,292 226,292 230,292 234,292 238,292 242,292 246,292 250,292 254,136 258,292 262,292 266,292 270,292 274,292 278,292 282,292 286,292 290,292 294,292 298,292 302,292 306,292 310,292 314,292 318,292 322,292 326,292 330,292 334,292 338,292 342,292 346,292 350,292 354,292 358,292 362,292 366,292 370,292 374,292 378,292 382,292 386,292 390,292 394,292 398,292 402,292 406,292 410,292 414,292 418,292 422,292 426,292 430,292 434,292 438,292 442,292 446,292 450,292 454,292" fill="none" stroke="#b07d00" stroke-width="1.5" stroke-linejoin="round" stroke-dasharray="5 3" data-basis="model"/><path d="M254,136 L250,129 L258,129 Z" fill="#b07d00" data-marker="1"/><text x="254" y="127" text-anchor="middle" font-family="&apos;Segoe UI&apos;, &apos;Helvetica Neue&apos;, Arial, &apos;Noto Sans&apos;, &apos;Hiragino Sans&apos;, &apos;Yu Gothic UI&apos;, &apos;Noto Sans CJK JP&apos;, sans-serif" stroke="#ffffff" stroke-width="2.5" paint-order="stroke" fill="#b07d00" font-size="8.5" font-weight="600">1</text><path d="M354,292 L350,285 L358,285 Z" fill="#b07d00" data-marker="2"/><text x="354" y="283" text-anchor="middle" font-family="&apos;Segoe UI&apos;, &apos;Helvetica Neue&apos;, Arial, &apos;Noto Sans&apos;, &apos;Hiragino Sans&apos;, &apos;Yu Gothic UI&apos;, &apos;Noto Sans CJK JP&apos;, sans-serif" stroke="#ffffff" stroke-width="2.5" paint-order="stroke" fill="#b07d00" font-size="8.5" font-weight="600">2</text><text x="54" y="402" text-anchor="start" font-family="ui-sans-serif, system-ui, sans-serif" fill="#2c3339" font-size="8.5">tinySA Ultra</text><text x="122.1" y="402" text-anchor="start" font-family="ui-sans-serif, system-ui, sans-serif" fill="#2c3339" font-size="8.5">CENTER 30 MHz</text><text x="194.88" y="402" text-anchor="start" font-family="ui-sans-serif, system-ui, sans-serif" fill="#2c3339" font-size="8.5">SPAN 2 MHz</text><text x="253.63" y="402" text-anchor="start" font-family="ui-sans-serif, system-ui, sans-serif" fill="#2c3339" font-size="8.5">101 pt</text><text x="54" y="415" text-anchor="start" font-family="ui-sans-serif, system-ui, sans-serif" fill="#2c3339" font-size="8.5">RBW 3 kHz</text><text x="108.07" y="415" text-anchor="start" font-family="ui-sans-serif, system-ui, sans-serif" fill="#2c3339" font-size="8.5">ATT 20 dB</text><text x="162.15" y="415" text-anchor="start" font-family="ui-sans-serif, system-ui, sans-serif" fill="#2c3339" font-size="8.5">REF −20 dBm</text><text x="225.57" y="415" text-anchor="start" font-family="ui-sans-serif, system-ui, sans-serif" fill="#2c3339" font-size="8.5">10 dB/div</text><text x="14" y="443.8" text-anchor="start" font-family="ui-monospace, &apos;DejaVu Sans Mono&apos;, &apos;Noto Sans Mono CJK JP&apos;, monospace" fill="#2c3339" font-size="8.5" xml:space="preserve">読み値 — 理想 (計算)</text><text x="14" y="464.3" text-anchor="start" font-family="ui-monospace, &apos;DejaVu Sans Mono&apos;, &apos;Noto Sans Mono CJK JP&apos;, monospace" fill="#5f6a74" font-size="8.5" xml:space="preserve">M</text><text x="30.83" y="464.3" text-anchor="start" font-family="ui-monospace, &apos;DejaVu Sans Mono&apos;, &apos;Noto Sans Mono CJK JP&apos;, monospace" fill="#5f6a74" font-size="8.5" xml:space="preserve">周波数</text><text x="98.15" y="464.3" text-anchor="start" font-family="ui-monospace, &apos;DejaVu Sans Mono&apos;, &apos;Noto Sans Mono CJK JP&apos;, monospace" fill="#5f6a74" font-size="8.5" xml:space="preserve">レベル</text><text x="14" y="475.78" text-anchor="start" font-family="ui-monospace, &apos;DejaVu Sans Mono&apos;, &apos;Noto Sans Mono CJK JP&apos;, monospace" fill="#2c3339" font-size="8.5" xml:space="preserve">1</text><text x="30.83" y="475.78" text-anchor="start" font-family="ui-monospace, &apos;DejaVu Sans Mono&apos;, &apos;Noto Sans Mono CJK JP&apos;, monospace" fill="#2c3339" font-size="8.5" xml:space="preserve">30.000 MHz</text><text x="98.15" y="475.78" text-anchor="start" font-family="ui-monospace, &apos;DejaVu Sans Mono&apos;, &apos;Noto Sans Mono CJK JP&apos;, monospace" fill="#2c3339" font-size="8.5" xml:space="preserve">−40.00 dBm</text><text x="14" y="487.25" text-anchor="start" font-family="ui-monospace, &apos;DejaVu Sans Mono&apos;, &apos;Noto Sans Mono CJK JP&apos;, monospace" fill="#2c3339" font-size="8.5" xml:space="preserve">2</text><text x="30.83" y="487.25" text-anchor="start" font-family="ui-monospace, &apos;DejaVu Sans Mono&apos;, &apos;Noto Sans Mono CJK JP&apos;, monospace" fill="#2c3339" font-size="8.5" xml:space="preserve">30.500 MHz</text><text x="98.15" y="487.25" text-anchor="start" font-family="ui-monospace, &apos;DejaVu Sans Mono&apos;, &apos;Noto Sans Mono CJK JP&apos;, monospace" fill="#2c3339" font-size="8.5" xml:space="preserve">−92.00 dBm</text><text x="482" y="505" text-anchor="end" font-family="ui-sans-serif, system-ui, sans-serif" fill="#5f6a74" font-size="8.5">spectrum-fence 0.1.0</text></svg>
