<svg xmlns="http://www.w3.org/2000/svg" viewBox="0 0 128 674" width="128" height="674" data-perfboard-fence="0.2.0" role="img"><text x="30" y="34" text-anchor="start" font-family="ui-sans-serif, system-ui, sans-serif" fill="#3c3730" font-size="13.5" font-weight="600">図03 26…</text><rect x="30" y="56" width="84" height="604" rx="4" fill="#2c7a4b" stroke="#1d4f31" stroke-width="1"/><circle cx="42" cy="68" r="3.25" fill="#14261c" stroke="#cdd3d9" stroke-width="2.5"/><circle cx="62" cy="68" r="3.25" fill="#14261c" stroke="#cdd3d9" stroke-width="2.5"/><circle cx="82" cy="68" r="3.25" fill="#14261c" stroke="#cdd3d9" stroke-width="2.5"/><circle cx="102" cy="68" r="3.25" fill="#14261c" stroke="#cdd3d9" stroke-width="2.5"/><circle cx="42" cy="88" r="3.25" fill="#14261c" stroke="#cdd3d9" stroke-width="2.5"/><circle cx="62" cy="88" r="3.25" fill="#14261c" stroke="#cdd3d9" stroke-width="2.5"/><circle cx="82" cy="88" r="3.25" fill="#14261c" stroke="#cdd3d9" stroke-width="2.5"/><circle cx="102" cy="88" r="3.25" fill="#14261c" stroke="#cdd3d9" stroke-width="2.5"/><circle cx="42" cy="108" r="3.25" fill="#14261c" stroke="#cdd3d9" stroke-width="2.5"/><circle cx="62" cy="108" r="3.25" fill="#14261c" stroke="#cdd3d9" stroke-width="2.5"/><circle cx="82" cy="108" r="3.25" fill="#14261c" stroke="#cdd3d9" stroke-width="2.5"/><circle cx="102" cy="108" r="3.25" fill="#14261c" stroke="#cdd3d9" stroke-width="2.5"/><circle cx="42" cy="128" r="3.25" fill="#14261c" stroke="#cdd3d9" stroke-width="2.5"/><circle cx="62" cy="128" r="3.25" fill="#14261c" stroke="#cdd3d9" stroke-width="2.5"/><circle cx="82" cy="128" r="3.25" fill="#14261c" stroke="#cdd3d9" stroke-width="2.5"/><circle cx="102" cy="128" r="3.25" fill="#14261c" stroke="#cdd3d9" stroke-width="2.5"/><circle cx="42" cy="148" r="3.25" fill="#14261c" stroke="#cdd3d9" stroke-width="2.5"/><circle cx="62" cy="148" r="3.25" fill="#14261c" stroke="#cdd3d9" stroke-width="2.5"/><circle cx="82" cy="148" r="3.25" fill="#14261c" stroke="#cdd3d9" stroke-width="2.5"/><circle cx="102" cy="148" r="3.25" fill="#14261c" stroke="#cdd3d9" stroke-width="2.5"/><circle cx="42" cy="168" r="3.25" fill="#14261c" stroke="#cdd3d9" stroke-width="2.5"/><circle cx="62" cy="168" r="3.25" fill="#14261c" stroke="#cdd3d9" stroke-width="2.5"/><circle cx="82" cy="168" r="3.25" fill="#14261c" stroke="#cdd3d9" stroke-width="2.5"/><circle cx="102" cy="168" r="3.25" fill="#14261c" stroke="#cdd3d9" stroke-width="2.5"/><circle cx="42" cy="188" r="3.25" fill="#14261c" stroke="#cdd3d9" stroke-width="2.5"/><circle cx="62" cy="188" r="3.25" fill="#14261c" stroke="#cdd3d9" stroke-width="2.5"/><circle cx="82" cy="188" r="3.25" fill="#14261c" stroke="#cdd3d9" stroke-width="2.5"/><circle cx="102" cy="188" r="3.25" fill="#14261c" stroke="#cdd3d9" stroke-width="2.5"/><circle cx="42" cy="208" r="3.25" fill="#14261c" stroke="#cdd3d9" stroke-width="2.5"/><circle cx="62" cy="208" r="3.25" fill="#14261c" stroke="#cdd3d9" stroke-width="2.5"/><circle cx="82" cy="208" r="3.25" fill="#14261c" stroke="#cdd3d9" stroke-width="2.5"/><circle cx="102" cy="208" r="3.25" fill="#14261c" stroke="#cdd3d9" stroke-width="2.5"/><circle cx="42" cy="228" r="3.25" fill="#14261c" stroke="#cdd3d9" stroke-width="2.5"/><circle cx="62" cy="228" r="3.25" fill="#14261c" stroke="#cdd3d9" stroke-width="2.5"/><circle cx="82" cy="228" r="3.25" fill="#14261c" stroke="#cdd3d9" stroke-width="2.5"/><circle cx="102" cy="228" r="3.25" fill="#14261c" stroke="#cdd3d9" stroke-width="2.5"/><circle cx="42" cy="248" r="3.25" fill="#14261c" stroke="#cdd3d9" stroke-width="2.5"/><circle cx="62" cy="248" r="3.25" fill="#14261c" stroke="#cdd3d9" stroke-width="2.5"/><circle cx="82" cy="248" r="3.25" fill="#14261c" stroke="#cdd3d9" stroke-width="2.5"/><circle cx="102" cy="248" r="3.25" fill="#14261c" stroke="#cdd3d9" stroke-width="2.5"/><circle cx="42" cy="268" r="3.25" fill="#14261c" stroke="#cdd3d9" stroke-width="2.5"/><circle cx="62" cy="268" r="3.25" fill="#14261c" stroke="#cdd3d9" stroke-width="2.5"/><circle cx="82" cy="268" r="3.25" fill="#14261c" stroke="#cdd3d9" stroke-width="2.5"/><circle cx="102" cy="268" r="3.25" fill="#14261c" stroke="#cdd3d9" stroke-width="2.5"/><circle cx="42" cy="288" r="3.25" fill="#14261c" stroke="#cdd3d9" stroke-width="2.5"/><circle cx="62" cy="288" r="3.25" fill="#14261c" stroke="#cdd3d9" stroke-width="2.5"/><circle cx="82" cy="288" r="3.25" fill="#14261c" stroke="#cdd3d9" stroke-width="2.5"/><circle cx="102" cy="288" r="3.25" fill="#14261c" stroke="#cdd3d9" stroke-width="2.5"/><circle cx="42" cy="308" r="3.25" fill="#14261c" stroke="#cdd3d9" stroke-width="2.5"/><circle cx="62" cy="308" r="3.25" fill="#14261c" stroke="#cdd3d9" stroke-width="2.5"/><circle cx="82" cy="308" r="3.25" fill="#14261c" stroke="#cdd3d9" stroke-width="2.5"/><circle cx="102" cy="308" r="3.25" fill="#14261c" stroke="#cdd3d9" stroke-width="2.5"/><circle cx="42" cy="328" r="3.25" fill="#14261c" stroke="#cdd3d9" stroke-width="2.5"/><circle cx="62" cy="328" r="3.25" fill="#14261c" stroke="#cdd3d9" stroke-width="2.5"/><circle cx="82" cy="328" r="3.25" fill="#14261c" stroke="#cdd3d9" stroke-width="2.5"/><circle cx="102" cy="328" r="3.25" fill="#14261c" stroke="#cdd3d9" stroke-width="2.5"/><circle cx="42" cy="348" r="3.25" fill="#14261c" stroke="#cdd3d9" stroke-width="2.5"/><circle cx="62" cy="348" r="3.25" fill="#14261c" stroke="#cdd3d9" stroke-width="2.5"/><circle cx="82" cy="348" r="3.25" fill="#14261c" stroke="#cdd3d9" stroke-width="2.5"/><circle cx="102" cy="348" r="3.25" fill="#14261c" stroke="#cdd3d9" stroke-width="2.5"/><circle cx="42" cy="368" r="3.25" fill="#14261c" stroke="#cdd3d9" stroke-width="2.5"/><circle cx="62" cy="368" r="3.25" fill="#14261c" stroke="#cdd3d9" stroke-width="2.5"/><circle cx="82" cy="368" r="3.25" fill="#14261c" stroke="#cdd3d9" stroke-width="2.5"/><circle cx="102" cy="368" r="3.25" fill="#14261c" stroke="#cdd3d9" stroke-width="2.5"/><circle cx="42" cy="388" r="3.25" fill="#14261c" stroke="#cdd3d9" stroke-width="2.5"/><circle cx="62" cy="388" r="3.25" fill="#14261c" stroke="#cdd3d9" stroke-width="2.5"/><circle cx="82" cy="388" r="3.25" fill="#14261c" stroke="#cdd3d9" stroke-width="2.5"/><circle cx="102" cy="388" r="3.25" fill="#14261c" stroke="#cdd3d9" stroke-width="2.5"/><circle cx="42" cy="408" r="3.25" fill="#14261c" stroke="#cdd3d9" stroke-width="2.5"/><circle cx="62" cy="408" r="3.25" fill="#14261c" stroke="#cdd3d9" stroke-width="2.5"/><circle cx="82" cy="408" r="3.25" fill="#14261c" stroke="#cdd3d9" stroke-width="2.5"/><circle cx="102" cy="408" r="3.25" fill="#14261c" stroke="#cdd3d9" stroke-width="2.5"/><circle cx="42" cy="428" r="3.25" fill="#14261c" stroke="#cdd3d9" stroke-width="2.5"/><circle cx="62" cy="428" r="3.25" fill="#14261c" stroke="#cdd3d9" stroke-width="2.5"/><circle cx="82" cy="428" r="3.25" fill="#14261c" stroke="#cdd3d9" stroke-width="2.5"/><circle cx="102" cy="428" r="3.25" fill="#14261c" stroke="#cdd3d9" stroke-width="2.5"/><circle cx="42" cy="448" r="3.25" fill="#14261c" stroke="#cdd3d9" stroke-width="2.5"/><circle cx="62" cy="448" r="3.25" fill="#14261c" stroke="#cdd3d9" stroke-width="2.5"/><circle cx="82" cy="448" r="3.25" fill="#14261c" stroke="#cdd3d9" stroke-width="2.5"/><circle cx="102" cy="448" r="3.25" fill="#14261c" stroke="#cdd3d9" stroke-width="2.5"/><circle cx="42" cy="468" r="3.25" fill="#14261c" stroke="#cdd3d9" stroke-width="2.5"/><circle cx="62" cy="468" r="3.25" fill="#14261c" stroke="#cdd3d9" stroke-width="2.5"/><circle cx="82" cy="468" r="3.25" fill="#14261c" stroke="#cdd3d9" stroke-width="2.5"/><circle cx="102" cy="468" r="3.25" fill="#14261c" stroke="#cdd3d9" stroke-width="2.5"/><circle cx="42" cy="488" r="3.25" fill="#14261c" stroke="#cdd3d9" stroke-width="2.5"/><circle cx="62" cy="488" r="3.25" fill="#14261c" stroke="#cdd3d9" stroke-width="2.5"/><circle cx="82" cy="488" r="3.25" fill="#14261c" stroke="#cdd3d9" stroke-width="2.5"/><circle cx="102" cy="488" r="3.25" fill="#14261c" stroke="#cdd3d9" stroke-width="2.5"/><circle cx="42" cy="508" r="3.25" fill="#14261c" stroke="#cdd3d9" stroke-width="2.5"/><circle cx="62" cy="508" r="3.25" fill="#14261c" stroke="#cdd3d9" stroke-width="2.5"/><circle cx="82" cy="508" r="3.25" fill="#14261c" stroke="#cdd3d9" stroke-width="2.5"/><circle cx="102" cy="508" r="3.25" fill="#14261c" stroke="#cdd3d9" stroke-width="2.5"/><circle cx="42" cy="528" r="3.25" fill="#14261c" stroke="#cdd3d9" stroke-width="2.5"/><circle cx="62" cy="528" r="3.25" fill="#14261c" stroke="#cdd3d9" stroke-width="2.5"/><circle cx="82" cy="528" r="3.25" fill="#14261c" stroke="#cdd3d9" stroke-width="2.5"/><circle cx="102" cy="528" r="3.25" fill="#14261c" stroke="#cdd3d9" stroke-width="2.5"/><circle cx="42" cy="548" r="3.25" fill="#14261c" stroke="#cdd3d9" stroke-width="2.5"/><circle cx="62" cy="548" r="3.25" fill="#14261c" stroke="#cdd3d9" stroke-width="2.5"/><circle cx="82" cy="548" r="3.25" fill="#14261c" stroke="#cdd3d9" stroke-width="2.5"/><circle cx="102" cy="548" r="3.25" fill="#14261c" stroke="#cdd3d9" stroke-width="2.5"/><circle cx="42" cy="568" r="3.25" fill="#14261c" stroke="#cdd3d9" stroke-width="2.5"/><circle cx="62" cy="568" r="3.25" fill="#14261c" stroke="#cdd3d9" stroke-width="2.5"/><circle cx="82" cy="568" r="3.25" fill="#14261c" stroke="#cdd3d9" stroke-width="2.5"/><circle cx="102" cy="568" r="3.25" fill="#14261c" stroke="#cdd3d9" stroke-width="2.5"/><circle cx="42" cy="588" r="3.25" fill="#14261c" stroke="#cdd3d9" stroke-width="2.5"/><circle cx="62" cy="588" r="3.25" fill="#14261c" stroke="#cdd3d9" stroke-width="2.5"/><circle cx="82" cy="588" r="3.25" fill="#14261c" stroke="#cdd3d9" stroke-width="2.5"/><circle cx="102" cy="588" r="3.25" fill="#14261c" stroke="#cdd3d9" stroke-width="2.5"/><circle cx="42" cy="608" r="3.25" fill="#14261c" stroke="#cdd3d9" stroke-width="2.5"/><circle cx="62" cy="608" r="3.25" fill="#14261c" stroke="#cdd3d9" stroke-width="2.5"/><circle cx="82" cy="608" r="3.25" fill="#14261c" stroke="#cdd3d9" stroke-width="2.5"/><circle cx="102" cy="608" r="3.25" fill="#14261c" stroke="#cdd3d9" stroke-width="2.5"/><circle cx="42" cy="628" r="3.25" fill="#14261c" stroke="#cdd3d9" stroke-width="2.5"/><circle cx="62" cy="628" r="3.25" fill="#14261c" stroke="#cdd3d9" stroke-width="2.5"/><circle cx="82" cy="628" r="3.25" fill="#14261c" stroke="#cdd3d9" stroke-width="2.5"/><circle cx="102" cy="628" r="3.25" fill="#14261c" stroke="#cdd3d9" stroke-width="2.5"/><circle cx="42" cy="648" r="3.25" fill="#14261c" stroke="#cdd3d9" stroke-width="2.5"/><circle cx="62" cy="648" r="3.25" fill="#14261c" stroke="#cdd3d9" stroke-width="2.5"/><circle cx="82" cy="648" r="3.25" fill="#14261c" stroke="#cdd3d9" stroke-width="2.5"/><circle cx="102" cy="648" r="3.25" fill="#14261c" stroke="#cdd3d9" stroke-width="2.5"/><text x="22" y="68" text-anchor="middle" font-family="ui-sans-serif, system-ui, sans-serif" fill="#6d6552" font-size="9" dominant-baseline="middle">A</text><text x="22" y="88" text-anchor="middle" font-family="ui-sans-serif, system-ui, sans-serif" fill="#6d6552" font-size="9" dominant-baseline="middle">B</text><text x="22" y="108" text-anchor="middle" font-family="ui-sans-serif, system-ui, sans-serif" fill="#6d6552" font-size="9" dominant-baseline="middle">C</text><text x="22" y="128" text-anchor="middle" font-family="ui-sans-serif, system-ui, sans-serif" fill="#6d6552" font-size="9" dominant-baseline="middle">D</text><text x="22" y="148" text-anchor="middle" font-family="ui-sans-serif, system-ui, sans-serif" fill="#6d6552" font-size="9" dominant-baseline="middle">E</text><text x="22" y="168" text-anchor="middle" font-family="ui-sans-serif, system-ui, sans-serif" fill="#6d6552" font-size="9" dominant-baseline="middle">F</text><text x="22" y="188" text-anchor="middle" font-family="ui-sans-serif, system-ui, sans-serif" fill="#6d6552" font-size="9" dominant-baseline="middle">G</text><text x="22" y="208" text-anchor="middle" font-family="ui-sans-serif, system-ui, sans-serif" fill="#6d6552" font-size="9" dominant-baseline="middle">H</text><text x="22" y="228" text-anchor="middle" font-family="ui-sans-serif, system-ui, sans-serif" fill="#6d6552" font-size="9" dominant-baseline="middle">I</text><text x="22" y="248" text-anchor="middle" font-family="ui-sans-serif, system-ui, sans-serif" fill="#6d6552" font-size="9" dominant-baseline="middle">J</text><text x="22" y="268" text-anchor="middle" font-family="ui-sans-serif, system-ui, sans-serif" fill="#6d6552" font-size="9" dominant-baseline="middle">K</text><text x="22" y="288" text-anchor="middle" font-family="ui-sans-serif, system-ui, sans-serif" fill="#6d6552" font-size="9" dominant-baseline="middle">L</text><text x="22" y="308" text-anchor="middle" font-family="ui-sans-serif, system-ui, sans-serif" fill="#6d6552" font-size="9" dominant-baseline="middle">M</text><text x="22" y="328" text-anchor="middle" font-family="ui-sans-serif, system-ui, sans-serif" fill="#6d6552" font-size="9" dominant-baseline="middle">N</text><text x="22" y="348" text-anchor="middle" font-family="ui-sans-serif, system-ui, sans-serif" fill="#6d6552" font-size="9" dominant-baseline="middle">O</text><text x="22" y="368" text-anchor="middle" font-family="ui-sans-serif, system-ui, sans-serif" fill="#6d6552" font-size="9" dominant-baseline="middle">P</text><text x="22" y="388" text-anchor="middle" font-family="ui-sans-serif, system-ui, sans-serif" fill="#6d6552" font-size="9" dominant-baseline="middle">Q</text><text x="22" y="408" text-anchor="middle" font-family="ui-sans-serif, system-ui, sans-serif" fill="#6d6552" font-size="9" dominant-baseline="middle">R</text><text x="22" y="428" text-anchor="middle" font-family="ui-sans-serif, system-ui, sans-serif" fill="#6d6552" font-size="9" dominant-baseline="middle">S</text><text x="22" y="448" text-anchor="middle" font-family="ui-sans-serif, system-ui, sans-serif" fill="#6d6552" font-size="9" dominant-baseline="middle">T</text><text x="22" y="468" text-anchor="middle" font-family="ui-sans-serif, system-ui, sans-serif" fill="#6d6552" font-size="9" dominant-baseline="middle">U</text><text x="22" y="488" text-anchor="middle" font-family="ui-sans-serif, system-ui, sans-serif" fill="#6d6552" font-size="9" dominant-baseline="middle">V</text><text x="22" y="508" text-anchor="middle" font-family="ui-sans-serif, system-ui, sans-serif" fill="#6d6552" font-size="9" dominant-baseline="middle">W</text><text x="22" y="528" text-anchor="middle" font-family="ui-sans-serif, system-ui, sans-serif" fill="#6d6552" font-size="9" dominant-baseline="middle">X</text><text x="22" y="548" text-anchor="middle" font-family="ui-sans-serif, system-ui, sans-serif" fill="#6d6552" font-size="9" dominant-baseline="middle">Y</text><text x="22" y="568" text-anchor="middle" font-family="ui-sans-serif, system-ui, sans-serif" fill="#6d6552" font-size="9" dominant-baseline="middle">Z</text><text x="22" y="588" text-anchor="middle" font-family="ui-sans-serif, system-ui, sans-serif" fill="#6d6552" font-size="9" dominant-baseline="middle">AA</text><text x="22" y="608" text-anchor="middle" font-family="ui-sans-serif, system-ui, sans-serif" fill="#6d6552" font-size="9" dominant-baseline="middle">AB</text><text x="22" y="628" text-anchor="middle" font-family="ui-sans-serif, system-ui, sans-serif" fill="#6d6552" font-size="9" dominant-baseline="middle">AC</text><text x="22" y="648" text-anchor="middle" font-family="ui-sans-serif, system-ui, sans-serif" fill="#6d6552" font-size="9" dominant-baseline="middle">AD</text><text x="42" y="48" text-anchor="middle" font-family="ui-sans-serif, system-ui, sans-serif" fill="#6d6552" font-size="9">1</text><text x="62" y="48" text-anchor="middle" font-family="ui-sans-serif, system-ui, sans-serif" fill="#6d6552" font-size="9">2</text><text x="82" y="48" text-anchor="middle" font-family="ui-sans-serif, system-ui, sans-serif" fill="#6d6552" font-size="9">3</text><text x="102" y="48" text-anchor="middle" font-family="ui-sans-serif, system-ui, sans-serif" fill="#6d6552" font-size="9">4</text></svg>
