<svg xmlns="http://www.w3.org/2000/svg" viewBox="0 0 288 316" width="288" height="316" data-perfboard-fence="0.1.0" role="img"><text x="30" y="34" text-anchor="start" font-family="ui-sans-serif, system-ui, sans-serif" fill="#3c3730" font-size="13.5" font-weight="600">図06 板の外の機器</text><rect x="30" y="138" width="244" height="164" rx="4" fill="#2c7a4b" stroke="#1d4f31" stroke-width="1"/><circle cx="42" cy="150" r="3.25" fill="#14261c" stroke="#cdd3d9" stroke-width="2.5"/><circle cx="62" cy="150" r="3.25" fill="#14261c" stroke="#cdd3d9" stroke-width="2.5"/><circle cx="82" cy="150" r="3.25" fill="#14261c" stroke="#cdd3d9" stroke-width="2.5"/><circle cx="102" cy="150" r="3.25" fill="#14261c" stroke="#cdd3d9" stroke-width="2.5"/><circle cx="122" cy="150" r="3.25" fill="#14261c" stroke="#cdd3d9" stroke-width="2.5"/><circle cx="142" cy="150" r="3.25" fill="#14261c" stroke="#cdd3d9" stroke-width="2.5"/><circle cx="162" cy="150" r="3.25" fill="#14261c" stroke="#cdd3d9" stroke-width="2.5"/><circle cx="182" cy="150" r="3.25" fill="#14261c" stroke="#cdd3d9" stroke-width="2.5"/><circle cx="202" cy="150" r="3.25" fill="#14261c" stroke="#cdd3d9" stroke-width="2.5"/><circle cx="222" cy="150" r="3.25" fill="#14261c" stroke="#cdd3d9" stroke-width="2.5"/><circle cx="242" cy="150" r="3.25" fill="#14261c" stroke="#cdd3d9" stroke-width="2.5"/><circle cx="262" cy="150" r="3.25" fill="#14261c" stroke="#cdd3d9" stroke-width="2.5"/><circle cx="42" cy="170" r="3.25" fill="#14261c" stroke="#cdd3d9" stroke-width="2.5"/><circle cx="62" cy="170" r="3.25" fill="#14261c" stroke="#cdd3d9" stroke-width="2.5"/><circle cx="82" cy="170" r="3.25" fill="#14261c" stroke="#cdd3d9" stroke-width="2.5"/><circle cx="102" cy="170" r="3.25" fill="#14261c" stroke="#cdd3d9" stroke-width="2.5"/><circle cx="122" cy="170" r="3.25" fill="#14261c" stroke="#cdd3d9" stroke-width="2.5"/><circle cx="142" cy="170" r="3.25" fill="#14261c" stroke="#cdd3d9" stroke-width="2.5"/><circle cx="162" cy="170" r="3.25" fill="#14261c" stroke="#cdd3d9" stroke-width="2.5"/><circle cx="182" cy="170" r="3.25" fill="#14261c" stroke="#cdd3d9" stroke-width="2.5"/><circle cx="202" cy="170" r="3.25" fill="#14261c" stroke="#cdd3d9" stroke-width="2.5"/><circle cx="222" cy="170" r="3.25" fill="#14261c" stroke="#cdd3d9" stroke-width="2.5"/><circle cx="242" cy="170" r="3.25" fill="#14261c" stroke="#cdd3d9" stroke-width="2.5"/><circle cx="262" cy="170" r="3.25" fill="#14261c" stroke="#cdd3d9" stroke-width="2.5"/><circle cx="42" cy="190" r="3.25" fill="#14261c" stroke="#cdd3d9" stroke-width="2.5"/><circle cx="62" cy="190" r="3.25" fill="#14261c" stroke="#cdd3d9" stroke-width="2.5"/><circle cx="82" cy="190" r="3.25" fill="#14261c" stroke="#cdd3d9" stroke-width="2.5"/><circle cx="102" cy="190" r="3.25" fill="#14261c" stroke="#cdd3d9" stroke-width="2.5"/><circle cx="122" cy="190" r="3.25" fill="#14261c" stroke="#cdd3d9" stroke-width="2.5"/><circle cx="142" cy="190" r="3.25" fill="#14261c" stroke="#cdd3d9" stroke-width="2.5"/><circle cx="162" cy="190" r="3.25" fill="#14261c" stroke="#cdd3d9" stroke-width="2.5"/><circle cx="182" cy="190" r="3.25" fill="#14261c" stroke="#cdd3d9" stroke-width="2.5"/><circle cx="202" cy="190" r="3.25" fill="#14261c" stroke="#cdd3d9" stroke-width="2.5"/><circle cx="222" cy="190" r="3.25" fill="#14261c" stroke="#cdd3d9" stroke-width="2.5"/><circle cx="242" cy="190" r="3.25" fill="#14261c" stroke="#cdd3d9" stroke-width="2.5"/><circle cx="262" cy="190" r="3.25" fill="#14261c" stroke="#cdd3d9" stroke-width="2.5"/><circle cx="42" cy="210" r="3.25" fill="#14261c" stroke="#cdd3d9" stroke-width="2.5"/><circle cx="62" cy="210" r="3.25" fill="#14261c" stroke="#cdd3d9" stroke-width="2.5"/><circle cx="82" cy="210" r="3.25" fill="#14261c" stroke="#cdd3d9" stroke-width="2.5"/><circle cx="102" cy="210" r="3.25" fill="#14261c" stroke="#cdd3d9" stroke-width="2.5"/><circle cx="122" cy="210" r="3.25" fill="#14261c" stroke="#cdd3d9" stroke-width="2.5"/><circle cx="142" cy="210" r="3.25" fill="#14261c" stroke="#cdd3d9" stroke-width="2.5"/><circle cx="162" cy="210" r="3.25" fill="#14261c" stroke="#cdd3d9" stroke-width="2.5"/><circle cx="182" cy="210" r="3.25" fill="#14261c" stroke="#cdd3d9" stroke-width="2.5"/><circle cx="202" cy="210" r="3.25" fill="#14261c" stroke="#cdd3d9" stroke-width="2.5"/><circle cx="222" cy="210" r="3.25" fill="#14261c" stroke="#cdd3d9" stroke-width="2.5"/><circle cx="242" cy="210" r="3.25" fill="#14261c" stroke="#cdd3d9" stroke-width="2.5"/><circle cx="262" cy="210" r="3.25" fill="#14261c" stroke="#cdd3d9" stroke-width="2.5"/><circle cx="42" cy="230" r="3.25" fill="#14261c" stroke="#cdd3d9" stroke-width="2.5"/><circle cx="62" cy="230" r="3.25" fill="#14261c" stroke="#cdd3d9" stroke-width="2.5"/><circle cx="82" cy="230" r="3.25" fill="#14261c" stroke="#cdd3d9" stroke-width="2.5"/><circle cx="102" cy="230" r="3.25" fill="#14261c" stroke="#cdd3d9" stroke-width="2.5"/><circle cx="122" cy="230" r="3.25" fill="#14261c" stroke="#cdd3d9" stroke-width="2.5"/><circle cx="142" cy="230" r="3.25" fill="#14261c" stroke="#cdd3d9" stroke-width="2.5"/><circle cx="162" cy="230" r="3.25" fill="#14261c" stroke="#cdd3d9" stroke-width="2.5"/><circle cx="182" cy="230" r="3.25" fill="#14261c" stroke="#cdd3d9" stroke-width="2.5"/><circle cx="202" cy="230" r="3.25" fill="#14261c" stroke="#cdd3d9" stroke-width="2.5"/><circle cx="222" cy="230" r="3.25" fill="#14261c" stroke="#cdd3d9" stroke-width="2.5"/><circle cx="242" cy="230" r="3.25" fill="#14261c" stroke="#cdd3d9" stroke-width="2.5"/><circle cx="262" cy="230" r="3.25" fill="#14261c" stroke="#cdd3d9" stroke-width="2.5"/><circle cx="42" cy="250" r="3.25" fill="#14261c" stroke="#cdd3d9" stroke-width="2.5"/><circle cx="62" cy="250" r="3.25" fill="#14261c" stroke="#cdd3d9" stroke-width="2.5"/><circle cx="82" cy="250" r="3.25" fill="#14261c" stroke="#cdd3d9" stroke-width="2.5"/><circle cx="102" cy="250" r="3.25" fill="#14261c" stroke="#cdd3d9" stroke-width="2.5"/><circle cx="122" cy="250" r="3.25" fill="#14261c" stroke="#cdd3d9" stroke-width="2.5"/><circle cx="142" cy="250" r="3.25" fill="#14261c" stroke="#cdd3d9" stroke-width="2.5"/><circle cx="162" cy="250" r="3.25" fill="#14261c" stroke="#cdd3d9" stroke-width="2.5"/><circle cx="182" cy="250" r="3.25" fill="#14261c" stroke="#cdd3d9" stroke-width="2.5"/><circle cx="202" cy="250" r="3.25" fill="#14261c" stroke="#cdd3d9" stroke-width="2.5"/><circle cx="222" cy="250" r="3.25" fill="#14261c" stroke="#cdd3d9" stroke-width="2.5"/><circle cx="242" cy="250" r="3.25" fill="#14261c" stroke="#cdd3d9" stroke-width="2.5"/><circle cx="262" cy="250" r="3.25" fill="#14261c" stroke="#cdd3d9" stroke-width="2.5"/><circle cx="42" cy="270" r="3.25" fill="#14261c" stroke="#cdd3d9" stroke-width="2.5"/><circle cx="62" cy="270" r="3.25" fill="#14261c" stroke="#cdd3d9" stroke-width="2.5"/><circle cx="82" cy="270" r="3.25" fill="#14261c" stroke="#cdd3d9" stroke-width="2.5"/><circle cx="102" cy="270" r="3.25" fill="#14261c" stroke="#cdd3d9" stroke-width="2.5"/><circle cx="122" cy="270" r="3.25" fill="#14261c" stroke="#cdd3d9" stroke-width="2.5"/><circle cx="142" cy="270" r="3.25" fill="#14261c" stroke="#cdd3d9" stroke-width="2.5"/><circle cx="162" cy="270" r="3.25" fill="#14261c" stroke="#cdd3d9" stroke-width="2.5"/><circle cx="182" cy="270" r="3.25" fill="#14261c" stroke="#cdd3d9" stroke-width="2.5"/><circle cx="202" cy="270" r="3.25" fill="#14261c" stroke="#cdd3d9" stroke-width="2.5"/><circle cx="222" cy="270" r="3.25" fill="#14261c" stroke="#cdd3d9" stroke-width="2.5"/><circle cx="242" cy="270" r="3.25" fill="#14261c" stroke="#cdd3d9" stroke-width="2.5"/><circle cx="262" cy="270" r="3.25" fill="#14261c" stroke="#cdd3d9" stroke-width="2.5"/><circle cx="42" cy="290" r="3.25" fill="#14261c" stroke="#cdd3d9" stroke-width="2.5"/><circle cx="62" cy="290" r="3.25" fill="#14261c" stroke="#cdd3d9" stroke-width="2.5"/><circle cx="82" cy="290" r="3.25" fill="#14261c" stroke="#cdd3d9" stroke-width="2.5"/><circle cx="102" cy="290" r="3.25" fill="#14261c" stroke="#cdd3d9" stroke-width="2.5"/><circle cx="122" cy="290" r="3.25" fill="#14261c" stroke="#cdd3d9" stroke-width="2.5"/><circle cx="142" cy="290" r="3.25" fill="#14261c" stroke="#cdd3d9" stroke-width="2.5"/><circle cx="162" cy="290" r="3.25" fill="#14261c" stroke="#cdd3d9" stroke-width="2.5"/><circle cx="182" cy="290" r="3.25" fill="#14261c" stroke="#cdd3d9" stroke-width="2.5"/><circle cx="202" cy="290" r="3.25" fill="#14261c" stroke="#cdd3d9" stroke-width="2.5"/><circle cx="222" cy="290" r="3.25" fill="#14261c" stroke="#cdd3d9" stroke-width="2.5"/><circle cx="242" cy="290" r="3.25" fill="#14261c" stroke="#cdd3d9" stroke-width="2.5"/><circle cx="262" cy="290" r="3.25" fill="#14261c" stroke="#cdd3d9" stroke-width="2.5"/><text x="22" y="150" text-anchor="middle" font-family="ui-sans-serif, system-ui, sans-serif" fill="#6d6552" font-size="9" dominant-baseline="middle">A</text><text x="22" y="170" text-anchor="middle" font-family="ui-sans-serif, system-ui, sans-serif" fill="#6d6552" font-size="9" dominant-baseline="middle">B</text><text x="22" y="190" text-anchor="middle" font-family="ui-sans-serif, system-ui, sans-serif" fill="#6d6552" font-size="9" dominant-baseline="middle">C</text><text x="22" y="210" text-anchor="middle" font-family="ui-sans-serif, system-ui, sans-serif" fill="#6d6552" font-size="9" dominant-baseline="middle">D</text><text x="22" y="230" text-anchor="middle" font-family="ui-sans-serif, system-ui, sans-serif" fill="#6d6552" font-size="9" dominant-baseline="middle">E</text><text x="22" y="250" text-anchor="middle" font-family="ui-sans-serif, system-ui, sans-serif" fill="#6d6552" font-size="9" dominant-baseline="middle">F</text><text x="22" y="270" text-anchor="middle" font-family="ui-sans-serif, system-ui, sans-serif" fill="#6d6552" font-size="9" dominant-baseline="middle">G</text><text x="22" y="290" text-anchor="middle" font-family="ui-sans-serif, system-ui, sans-serif" fill="#6d6552" font-size="9" dominant-baseline="middle">H</text><text x="42" y="130" text-anchor="middle" font-family="ui-sans-serif, system-ui, sans-serif" fill="#6d6552" font-size="9">1</text><text x="62" y="130" text-anchor="middle" font-family="ui-sans-serif, system-ui, sans-serif" fill="#6d6552" font-size="9">2</text><text x="82" y="130" text-anchor="middle" font-family="ui-sans-serif, system-ui, sans-serif" fill="#6d6552" font-size="9">3</text><text x="102" y="130" text-anchor="middle" font-family="ui-sans-serif, system-ui, sans-serif" fill="#6d6552" font-size="9">4</text><text x="122" y="130" text-anchor="middle" font-family="ui-sans-serif, system-ui, sans-serif" fill="#6d6552" font-size="9">5</text><text x="142" y="130" text-anchor="middle" font-family="ui-sans-serif, system-ui, sans-serif" fill="#6d6552" font-size="9">6</text><text x="162" y="130" text-anchor="middle" font-family="ui-sans-serif, system-ui, sans-serif" fill="#6d6552" font-size="9">7</text><text x="182" y="130" text-anchor="middle" font-family="ui-sans-serif, system-ui, sans-serif" fill="#6d6552" font-size="9">8</text><text x="202" y="130" text-anchor="middle" font-family="ui-sans-serif, system-ui, sans-serif" fill="#6d6552" font-size="9">9</text><text x="222" y="130" text-anchor="middle" font-family="ui-sans-serif, system-ui, sans-serif" fill="#6d6552" font-size="9">10</text><text x="242" y="130" text-anchor="middle" font-family="ui-sans-serif, system-ui, sans-serif" fill="#6d6552" font-size="9">11</text><text x="262" y="130" text-anchor="middle" font-family="ui-sans-serif, system-ui, sans-serif" fill="#6d6552" font-size="9">12</text><circle cx="82" cy="190" r="6" fill="#cdd3d9" stroke="#9a9ea3" stroke-width="1"/><circle cx="162" cy="190" r="6" fill="#cdd3d9" stroke="#9a9ea3" stroke-width="1"/><circle cx="202" cy="190" r="6" fill="#cdd3d9" stroke="#9a9ea3" stroke-width="1"/><circle cx="242" cy="190" r="6" fill="#cdd3d9" stroke="#9a9ea3" stroke-width="1"/><line x1="162" y1="190" x2="202" y2="190" stroke="#e6ebef" stroke-width="3" stroke-linecap="round" stroke-opacity="0.9"/><line x1="138.67" y1="100" x2="82" y2="190" stroke="#e6ebef" stroke-width="3" stroke-linecap="round" stroke-opacity="0.9"/><line x1="165.33" y1="100" x2="242" y2="190" stroke="#e6ebef" stroke-width="3" stroke-linecap="round" stroke-opacity="0.9"/><rect x="112" y="56" width="80" height="34" rx="4" fill="#efe4cd" stroke="#b6a887" stroke-width="1"/><line x1="138.67" y1="90" x2="138.67" y2="100" stroke="#9aa0a6" stroke-width="2" stroke-linecap="round"/><text x="138.67" y="109" text-anchor="middle" font-family="ui-sans-serif, system-ui, sans-serif" fill="#6d6552" font-size="9">+</text><line x1="165.33" y1="90" x2="165.33" y2="100" stroke="#9aa0a6" stroke-width="2" stroke-linecap="round"/><text x="165.33" y="109" text-anchor="middle" font-family="ui-sans-serif, system-ui, sans-serif" fill="#6d6552" font-size="9">-</text><text x="152" y="73" text-anchor="middle" font-family="ui-sans-serif, system-ui, sans-serif" fill="#3c3730" font-size="9" dominant-baseline="middle">電池 3V</text><line x1="82" y1="190" x2="162" y2="190" stroke="#9aa0a6" stroke-width="2"/><g transform="translate(122 190) rotate(0)"><rect x="-31" y="-5.5" width="62" height="11" rx="4" fill="#efe4cd" stroke="#b6a887" stroke-width="1"/><rect x="-29" y="-4.5" width="6" height="9" fill="#e3c700"/><rect x="-11.67" y="-4.5" width="6" height="9" fill="#7b4bb7"/><rect x="5.67" y="-4.5" width="6" height="9" fill="#6b4423"/><rect x="23" y="-4.5" width="6" height="9" fill="#6b4423"/></g><text x="122" y="203.5" text-anchor="middle" font-family="ui-sans-serif, system-ui, sans-serif" stroke="#2c7a4b" stroke-width="3" paint-order="stroke" fill="#f4f8f5" font-size="9">R1 470</text><line x1="202" y1="190" x2="242" y2="190" stroke="#9aa0a6" stroke-width="2"/><g transform="translate(222 190) rotate(0)"><circle cx="0" cy="0" r="6.5" fill="#e0392c" stroke="#00000033" stroke-width="1"/></g><text x="222" y="204.5" text-anchor="middle" font-family="ui-sans-serif, system-ui, sans-serif" stroke="#2c7a4b" stroke-width="3" paint-order="stroke" fill="#f4f8f5" font-size="9">D1 red</text></svg>
