<svg xmlns="http://www.w3.org/2000/svg" width="664" height="568.75" viewBox="0 0 664 568.75" data-breadboard-fence="0.12.0" role="img">
<rect x="0" y="0" width="664" height="568.75" fill="#ffffff"/>
<g><text x="14" y="23.5" text-anchor="start" font-family="ui-sans-serif, system-ui, sans-serif" font-size="17.5" font-weight="700" fill="#3f4650">図01 トランジスタでリレーを動かす</text></g>
<g transform="translate(0 31.5)"><rect x="14" y="14" width="636" height="336" rx="7" fill="#f2efe6" stroke="#d8d2c2"/>
<rect x="14" y="176" width="636" height="12" fill="#e6e2d4"/>
<line x1="32" y1="20" x2="632" y2="20" stroke="#d33a2f" stroke-width="1.6"/>
<text x="25" y="36" text-anchor="middle" font-family="ui-sans-serif, system-ui, sans-serif" font-size="19.55" font-weight="700" fill="#d33a2f">+</text>
<text x="639" y="36" text-anchor="middle" font-family="ui-sans-serif, system-ui, sans-serif" font-size="19.55" font-weight="700" fill="#d33a2f">+</text>
<line x1="32" y1="60" x2="632" y2="60" stroke="#2b6fd4" stroke-width="1.6"/>
<text x="25" y="56" text-anchor="middle" font-family="ui-sans-serif, system-ui, sans-serif" font-size="19.55" font-weight="700" fill="#2b6fd4">−</text>
<text x="639" y="56" text-anchor="middle" font-family="ui-sans-serif, system-ui, sans-serif" font-size="19.55" font-weight="700" fill="#2b6fd4">−</text>
<line x1="32" y1="304" x2="632" y2="304" stroke="#2b6fd4" stroke-width="1.6"/>
<text x="25" y="320" text-anchor="middle" font-family="ui-sans-serif, system-ui, sans-serif" font-size="19.55" font-weight="700" fill="#2b6fd4">−</text>
<text x="639" y="320" text-anchor="middle" font-family="ui-sans-serif, system-ui, sans-serif" font-size="19.55" font-weight="700" fill="#2b6fd4">−</text>
<line x1="32" y1="344" x2="632" y2="344" stroke="#d33a2f" stroke-width="1.6"/>
<text x="25" y="340" text-anchor="middle" font-family="ui-sans-serif, system-ui, sans-serif" font-size="19.55" font-weight="700" fill="#d33a2f">+</text>
<text x="639" y="340" text-anchor="middle" font-family="ui-sans-serif, system-ui, sans-serif" font-size="19.55" font-weight="700" fill="#d33a2f">+</text>
<rect x="39" y="27" width="6" height="6" rx="1" fill="#30353d"/>
<rect x="59" y="27" width="6" height="6" rx="1" fill="#30353d"/>
<rect x="79" y="27" width="6" height="6" rx="1" fill="#30353d"/>
<rect x="99" y="27" width="6" height="6" rx="1" fill="#30353d"/>
<rect x="119" y="27" width="6" height="6" rx="1" fill="#30353d"/>
<rect x="139" y="27" width="6" height="6" rx="1" fill="#30353d"/>
<rect x="159" y="27" width="6" height="6" rx="1" fill="#30353d"/>
<rect x="179" y="27" width="6" height="6" rx="1" fill="#30353d"/>
<rect x="199" y="27" width="6" height="6" rx="1" fill="#30353d"/>
<rect x="219" y="27" width="6" height="6" rx="1" fill="#30353d"/>
<rect x="239" y="27" width="6" height="6" rx="1" fill="#30353d"/>
<rect x="259" y="27" width="6" height="6" rx="1" fill="#30353d"/>
<rect x="279" y="27" width="6" height="6" rx="1" fill="#30353d"/>
<rect x="299" y="27" width="6" height="6" rx="1" fill="#30353d"/>
<rect x="319" y="27" width="6" height="6" rx="1" fill="#30353d"/>
<rect x="339" y="27" width="6" height="6" rx="1" fill="#30353d"/>
<rect x="359" y="27" width="6" height="6" rx="1" fill="#30353d"/>
<rect x="379" y="27" width="6" height="6" rx="1" fill="#30353d"/>
<rect x="399" y="27" width="6" height="6" rx="1" fill="#30353d"/>
<rect x="419" y="27" width="6" height="6" rx="1" fill="#30353d"/>
<rect x="439" y="27" width="6" height="6" rx="1" fill="#30353d"/>
<rect x="459" y="27" width="6" height="6" rx="1" fill="#30353d"/>
<rect x="479" y="27" width="6" height="6" rx="1" fill="#30353d"/>
<rect x="499" y="27" width="6" height="6" rx="1" fill="#30353d"/>
<rect x="519" y="27" width="6" height="6" rx="1" fill="#30353d"/>
<rect x="539" y="27" width="6" height="6" rx="1" fill="#30353d"/>
<rect x="559" y="27" width="6" height="6" rx="1" fill="#30353d"/>
<rect x="579" y="27" width="6" height="6" rx="1" fill="#30353d"/>
<rect x="599" y="27" width="6" height="6" rx="1" fill="#30353d"/>
<rect x="619" y="27" width="6" height="6" rx="1" fill="#30353d"/>
<rect x="39" y="47" width="6" height="6" rx="1" fill="#30353d"/>
<rect x="59" y="47" width="6" height="6" rx="1" fill="#30353d"/>
<rect x="79" y="47" width="6" height="6" rx="1" fill="#30353d"/>
<rect x="99" y="47" width="6" height="6" rx="1" fill="#30353d"/>
<rect x="119" y="47" width="6" height="6" rx="1" fill="#30353d"/>
<rect x="139" y="47" width="6" height="6" rx="1" fill="#30353d"/>
<rect x="159" y="47" width="6" height="6" rx="1" fill="#30353d"/>
<rect x="179" y="47" width="6" height="6" rx="1" fill="#30353d"/>
<rect x="199" y="47" width="6" height="6" rx="1" fill="#30353d"/>
<rect x="219" y="47" width="6" height="6" rx="1" fill="#30353d"/>
<rect x="239" y="47" width="6" height="6" rx="1" fill="#30353d"/>
<rect x="259" y="47" width="6" height="6" rx="1" fill="#30353d"/>
<rect x="279" y="47" width="6" height="6" rx="1" fill="#30353d"/>
<rect x="299" y="47" width="6" height="6" rx="1" fill="#30353d"/>
<rect x="319" y="47" width="6" height="6" rx="1" fill="#30353d"/>
<rect x="339" y="47" width="6" height="6" rx="1" fill="#30353d"/>
<rect x="359" y="47" width="6" height="6" rx="1" fill="#30353d"/>
<rect x="379" y="47" width="6" height="6" rx="1" fill="#30353d"/>
<rect x="399" y="47" width="6" height="6" rx="1" fill="#30353d"/>
<rect x="419" y="47" width="6" height="6" rx="1" fill="#30353d"/>
<rect x="439" y="47" width="6" height="6" rx="1" fill="#30353d"/>
<rect x="459" y="47" width="6" height="6" rx="1" fill="#30353d"/>
<rect x="479" y="47" width="6" height="6" rx="1" fill="#30353d"/>
<rect x="499" y="47" width="6" height="6" rx="1" fill="#30353d"/>
<rect x="519" y="47" width="6" height="6" rx="1" fill="#30353d"/>
<rect x="539" y="47" width="6" height="6" rx="1" fill="#30353d"/>
<rect x="559" y="47" width="6" height="6" rx="1" fill="#30353d"/>
<rect x="579" y="47" width="6" height="6" rx="1" fill="#30353d"/>
<rect x="599" y="47" width="6" height="6" rx="1" fill="#30353d"/>
<rect x="619" y="47" width="6" height="6" rx="1" fill="#30353d"/>
<rect x="39" y="311" width="6" height="6" rx="1" fill="#30353d"/>
<rect x="59" y="311" width="6" height="6" rx="1" fill="#30353d"/>
<rect x="79" y="311" width="6" height="6" rx="1" fill="#30353d"/>
<rect x="99" y="311" width="6" height="6" rx="1" fill="#30353d"/>
<rect x="119" y="311" width="6" height="6" rx="1" fill="#30353d"/>
<rect x="139" y="311" width="6" height="6" rx="1" fill="#30353d"/>
<rect x="159" y="311" width="6" height="6" rx="1" fill="#30353d"/>
<rect x="179" y="311" width="6" height="6" rx="1" fill="#30353d"/>
<rect x="199" y="311" width="6" height="6" rx="1" fill="#30353d"/>
<rect x="219" y="311" width="6" height="6" rx="1" fill="#30353d"/>
<rect x="239" y="311" width="6" height="6" rx="1" fill="#30353d"/>
<rect x="259" y="311" width="6" height="6" rx="1" fill="#30353d"/>
<rect x="279" y="311" width="6" height="6" rx="1" fill="#30353d"/>
<rect x="299" y="311" width="6" height="6" rx="1" fill="#30353d"/>
<rect x="319" y="311" width="6" height="6" rx="1" fill="#30353d"/>
<rect x="339" y="311" width="6" height="6" rx="1" fill="#30353d"/>
<rect x="359" y="311" width="6" height="6" rx="1" fill="#30353d"/>
<rect x="379" y="311" width="6" height="6" rx="1" fill="#30353d"/>
<rect x="399" y="311" width="6" height="6" rx="1" fill="#30353d"/>
<rect x="419" y="311" width="6" height="6" rx="1" fill="#30353d"/>
<rect x="439" y="311" width="6" height="6" rx="1" fill="#30353d"/>
<rect x="459" y="311" width="6" height="6" rx="1" fill="#30353d"/>
<rect x="479" y="311" width="6" height="6" rx="1" fill="#30353d"/>
<rect x="499" y="311" width="6" height="6" rx="1" fill="#30353d"/>
<rect x="519" y="311" width="6" height="6" rx="1" fill="#30353d"/>
<rect x="539" y="311" width="6" height="6" rx="1" fill="#30353d"/>
<rect x="559" y="311" width="6" height="6" rx="1" fill="#30353d"/>
<rect x="579" y="311" width="6" height="6" rx="1" fill="#30353d"/>
<rect x="599" y="311" width="6" height="6" rx="1" fill="#30353d"/>
<rect x="619" y="311" width="6" height="6" rx="1" fill="#30353d"/>
<rect x="39" y="331" width="6" height="6" rx="1" fill="#30353d"/>
<rect x="59" y="331" width="6" height="6" rx="1" fill="#30353d"/>
<rect x="79" y="331" width="6" height="6" rx="1" fill="#30353d"/>
<rect x="99" y="331" width="6" height="6" rx="1" fill="#30353d"/>
<rect x="119" y="331" width="6" height="6" rx="1" fill="#30353d"/>
<rect x="139" y="331" width="6" height="6" rx="1" fill="#30353d"/>
<rect x="159" y="331" width="6" height="6" rx="1" fill="#30353d"/>
<rect x="179" y="331" width="6" height="6" rx="1" fill="#30353d"/>
<rect x="199" y="331" width="6" height="6" rx="1" fill="#30353d"/>
<rect x="219" y="331" width="6" height="6" rx="1" fill="#30353d"/>
<rect x="239" y="331" width="6" height="6" rx="1" fill="#30353d"/>
<rect x="259" y="331" width="6" height="6" rx="1" fill="#30353d"/>
<rect x="279" y="331" width="6" height="6" rx="1" fill="#30353d"/>
<rect x="299" y="331" width="6" height="6" rx="1" fill="#30353d"/>
<rect x="319" y="331" width="6" height="6" rx="1" fill="#30353d"/>
<rect x="339" y="331" width="6" height="6" rx="1" fill="#30353d"/>
<rect x="359" y="331" width="6" height="6" rx="1" fill="#30353d"/>
<rect x="379" y="331" width="6" height="6" rx="1" fill="#30353d"/>
<rect x="399" y="331" width="6" height="6" rx="1" fill="#30353d"/>
<rect x="419" y="331" width="6" height="6" rx="1" fill="#30353d"/>
<rect x="439" y="331" width="6" height="6" rx="1" fill="#30353d"/>
<rect x="459" y="331" width="6" height="6" rx="1" fill="#30353d"/>
<rect x="479" y="331" width="6" height="6" rx="1" fill="#30353d"/>
<rect x="499" y="331" width="6" height="6" rx="1" fill="#30353d"/>
<rect x="519" y="331" width="6" height="6" rx="1" fill="#30353d"/>
<rect x="539" y="331" width="6" height="6" rx="1" fill="#30353d"/>
<rect x="559" y="331" width="6" height="6" rx="1" fill="#30353d"/>
<rect x="579" y="331" width="6" height="6" rx="1" fill="#30353d"/>
<rect x="599" y="331" width="6" height="6" rx="1" fill="#30353d"/>
<rect x="619" y="331" width="6" height="6" rx="1" fill="#30353d"/>
<rect x="39" y="81" width="6" height="6" rx="1" fill="#30353d"/>
<rect x="59" y="81" width="6" height="6" rx="1" fill="#30353d"/>
<rect x="79" y="81" width="6" height="6" rx="1" fill="#30353d"/>
<rect x="99" y="81" width="6" height="6" rx="1" fill="#30353d"/>
<rect x="119" y="81" width="6" height="6" rx="1" fill="#30353d"/>
<rect x="139" y="81" width="6" height="6" rx="1" fill="#30353d"/>
<rect x="159" y="81" width="6" height="6" rx="1" fill="#30353d"/>
<rect x="179" y="81" width="6" height="6" rx="1" fill="#30353d"/>
<rect x="199" y="81" width="6" height="6" rx="1" fill="#30353d"/>
<rect x="219" y="81" width="6" height="6" rx="1" fill="#30353d"/>
<rect x="239" y="81" width="6" height="6" rx="1" fill="#30353d"/>
<rect x="259" y="81" width="6" height="6" rx="1" fill="#30353d"/>
<rect x="279" y="81" width="6" height="6" rx="1" fill="#30353d"/>
<rect x="299" y="81" width="6" height="6" rx="1" fill="#30353d"/>
<rect x="319" y="81" width="6" height="6" rx="1" fill="#30353d"/>
<rect x="339" y="81" width="6" height="6" rx="1" fill="#30353d"/>
<rect x="359" y="81" width="6" height="6" rx="1" fill="#30353d"/>
<rect x="379" y="81" width="6" height="6" rx="1" fill="#30353d"/>
<rect x="399" y="81" width="6" height="6" rx="1" fill="#30353d"/>
<rect x="419" y="81" width="6" height="6" rx="1" fill="#30353d"/>
<rect x="439" y="81" width="6" height="6" rx="1" fill="#30353d"/>
<rect x="459" y="81" width="6" height="6" rx="1" fill="#30353d"/>
<rect x="479" y="81" width="6" height="6" rx="1" fill="#30353d"/>
<rect x="499" y="81" width="6" height="6" rx="1" fill="#30353d"/>
<rect x="519" y="81" width="6" height="6" rx="1" fill="#30353d"/>
<rect x="539" y="81" width="6" height="6" rx="1" fill="#30353d"/>
<rect x="559" y="81" width="6" height="6" rx="1" fill="#30353d"/>
<rect x="579" y="81" width="6" height="6" rx="1" fill="#30353d"/>
<rect x="599" y="81" width="6" height="6" rx="1" fill="#30353d"/>
<rect x="619" y="81" width="6" height="6" rx="1" fill="#30353d"/>
<rect x="39" y="101" width="6" height="6" rx="1" fill="#30353d"/>
<rect x="59" y="101" width="6" height="6" rx="1" fill="#30353d"/>
<rect x="79" y="101" width="6" height="6" rx="1" fill="#30353d"/>
<rect x="99" y="101" width="6" height="6" rx="1" fill="#30353d"/>
<rect x="119" y="101" width="6" height="6" rx="1" fill="#30353d"/>
<rect x="139" y="101" width="6" height="6" rx="1" fill="#30353d"/>
<rect x="159" y="101" width="6" height="6" rx="1" fill="#30353d"/>
<rect x="179" y="101" width="6" height="6" rx="1" fill="#30353d"/>
<rect x="199" y="101" width="6" height="6" rx="1" fill="#30353d"/>
<rect x="219" y="101" width="6" height="6" rx="1" fill="#30353d"/>
<rect x="239" y="101" width="6" height="6" rx="1" fill="#30353d"/>
<rect x="259" y="101" width="6" height="6" rx="1" fill="#30353d"/>
<rect x="279" y="101" width="6" height="6" rx="1" fill="#30353d"/>
<rect x="299" y="101" width="6" height="6" rx="1" fill="#30353d"/>
<rect x="319" y="101" width="6" height="6" rx="1" fill="#30353d"/>
<rect x="339" y="101" width="6" height="6" rx="1" fill="#30353d"/>
<rect x="359" y="101" width="6" height="6" rx="1" fill="#30353d"/>
<rect x="379" y="101" width="6" height="6" rx="1" fill="#30353d"/>
<rect x="399" y="101" width="6" height="6" rx="1" fill="#30353d"/>
<rect x="419" y="101" width="6" height="6" rx="1" fill="#30353d"/>
<rect x="439" y="101" width="6" height="6" rx="1" fill="#30353d"/>
<rect x="459" y="101" width="6" height="6" rx="1" fill="#30353d"/>
<rect x="479" y="101" width="6" height="6" rx="1" fill="#30353d"/>
<rect x="499" y="101" width="6" height="6" rx="1" fill="#30353d"/>
<rect x="519" y="101" width="6" height="6" rx="1" fill="#30353d"/>
<rect x="539" y="101" width="6" height="6" rx="1" fill="#30353d"/>
<rect x="559" y="101" width="6" height="6" rx="1" fill="#30353d"/>
<rect x="579" y="101" width="6" height="6" rx="1" fill="#30353d"/>
<rect x="599" y="101" width="6" height="6" rx="1" fill="#30353d"/>
<rect x="619" y="101" width="6" height="6" rx="1" fill="#30353d"/>
<rect x="39" y="121" width="6" height="6" rx="1" fill="#30353d"/>
<rect x="59" y="121" width="6" height="6" rx="1" fill="#30353d"/>
<rect x="79" y="121" width="6" height="6" rx="1" fill="#30353d"/>
<rect x="99" y="121" width="6" height="6" rx="1" fill="#30353d"/>
<rect x="119" y="121" width="6" height="6" rx="1" fill="#30353d"/>
<rect x="139" y="121" width="6" height="6" rx="1" fill="#30353d"/>
<rect x="159" y="121" width="6" height="6" rx="1" fill="#30353d"/>
<rect x="179" y="121" width="6" height="6" rx="1" fill="#30353d"/>
<rect x="199" y="121" width="6" height="6" rx="1" fill="#30353d"/>
<rect x="219" y="121" width="6" height="6" rx="1" fill="#30353d"/>
<rect x="239" y="121" width="6" height="6" rx="1" fill="#30353d"/>
<rect x="259" y="121" width="6" height="6" rx="1" fill="#30353d"/>
<rect x="279" y="121" width="6" height="6" rx="1" fill="#30353d"/>
<rect x="299" y="121" width="6" height="6" rx="1" fill="#30353d"/>
<rect x="319" y="121" width="6" height="6" rx="1" fill="#30353d"/>
<rect x="339" y="121" width="6" height="6" rx="1" fill="#30353d"/>
<rect x="359" y="121" width="6" height="6" rx="1" fill="#30353d"/>
<rect x="379" y="121" width="6" height="6" rx="1" fill="#30353d"/>
<rect x="399" y="121" width="6" height="6" rx="1" fill="#30353d"/>
<rect x="419" y="121" width="6" height="6" rx="1" fill="#30353d"/>
<rect x="439" y="121" width="6" height="6" rx="1" fill="#30353d"/>
<rect x="459" y="121" width="6" height="6" rx="1" fill="#30353d"/>
<rect x="479" y="121" width="6" height="6" rx="1" fill="#30353d"/>
<rect x="499" y="121" width="6" height="6" rx="1" fill="#30353d"/>
<rect x="519" y="121" width="6" height="6" rx="1" fill="#30353d"/>
<rect x="539" y="121" width="6" height="6" rx="1" fill="#30353d"/>
<rect x="559" y="121" width="6" height="6" rx="1" fill="#30353d"/>
<rect x="579" y="121" width="6" height="6" rx="1" fill="#30353d"/>
<rect x="599" y="121" width="6" height="6" rx="1" fill="#30353d"/>
<rect x="619" y="121" width="6" height="6" rx="1" fill="#30353d"/>
<rect x="39" y="141" width="6" height="6" rx="1" fill="#30353d"/>
<rect x="59" y="141" width="6" height="6" rx="1" fill="#30353d"/>
<rect x="79" y="141" width="6" height="6" rx="1" fill="#30353d"/>
<rect x="99" y="141" width="6" height="6" rx="1" fill="#30353d"/>
<rect x="119" y="141" width="6" height="6" rx="1" fill="#30353d"/>
<rect x="139" y="141" width="6" height="6" rx="1" fill="#30353d"/>
<rect x="159" y="141" width="6" height="6" rx="1" fill="#30353d"/>
<rect x="179" y="141" width="6" height="6" rx="1" fill="#30353d"/>
<rect x="199" y="141" width="6" height="6" rx="1" fill="#30353d"/>
<rect x="219" y="141" width="6" height="6" rx="1" fill="#30353d"/>
<rect x="239" y="141" width="6" height="6" rx="1" fill="#30353d"/>
<rect x="259" y="141" width="6" height="6" rx="1" fill="#30353d"/>
<rect x="279" y="141" width="6" height="6" rx="1" fill="#30353d"/>
<rect x="299" y="141" width="6" height="6" rx="1" fill="#30353d"/>
<rect x="319" y="141" width="6" height="6" rx="1" fill="#30353d"/>
<rect x="339" y="141" width="6" height="6" rx="1" fill="#30353d"/>
<rect x="359" y="141" width="6" height="6" rx="1" fill="#30353d"/>
<rect x="379" y="141" width="6" height="6" rx="1" fill="#30353d"/>
<rect x="399" y="141" width="6" height="6" rx="1" fill="#30353d"/>
<rect x="419" y="141" width="6" height="6" rx="1" fill="#30353d"/>
<rect x="439" y="141" width="6" height="6" rx="1" fill="#30353d"/>
<rect x="459" y="141" width="6" height="6" rx="1" fill="#30353d"/>
<rect x="479" y="141" width="6" height="6" rx="1" fill="#30353d"/>
<rect x="499" y="141" width="6" height="6" rx="1" fill="#30353d"/>
<rect x="519" y="141" width="6" height="6" rx="1" fill="#30353d"/>
<rect x="539" y="141" width="6" height="6" rx="1" fill="#30353d"/>
<rect x="559" y="141" width="6" height="6" rx="1" fill="#30353d"/>
<rect x="579" y="141" width="6" height="6" rx="1" fill="#30353d"/>
<rect x="599" y="141" width="6" height="6" rx="1" fill="#30353d"/>
<rect x="619" y="141" width="6" height="6" rx="1" fill="#30353d"/>
<rect x="39" y="161" width="6" height="6" rx="1" fill="#30353d"/>
<rect x="59" y="161" width="6" height="6" rx="1" fill="#30353d"/>
<rect x="79" y="161" width="6" height="6" rx="1" fill="#30353d"/>
<rect x="99" y="161" width="6" height="6" rx="1" fill="#30353d"/>
<rect x="119" y="161" width="6" height="6" rx="1" fill="#30353d"/>
<rect x="139" y="161" width="6" height="6" rx="1" fill="#30353d"/>
<rect x="159" y="161" width="6" height="6" rx="1" fill="#30353d"/>
<rect x="179" y="161" width="6" height="6" rx="1" fill="#30353d"/>
<rect x="199" y="161" width="6" height="6" rx="1" fill="#30353d"/>
<rect x="219" y="161" width="6" height="6" rx="1" fill="#30353d"/>
<rect x="239" y="161" width="6" height="6" rx="1" fill="#30353d"/>
<rect x="259" y="161" width="6" height="6" rx="1" fill="#30353d"/>
<rect x="279" y="161" width="6" height="6" rx="1" fill="#30353d"/>
<rect x="299" y="161" width="6" height="6" rx="1" fill="#30353d"/>
<rect x="319" y="161" width="6" height="6" rx="1" fill="#30353d"/>
<rect x="339" y="161" width="6" height="6" rx="1" fill="#30353d"/>
<rect x="359" y="161" width="6" height="6" rx="1" fill="#30353d"/>
<rect x="379" y="161" width="6" height="6" rx="1" fill="#30353d"/>
<rect x="399" y="161" width="6" height="6" rx="1" fill="#30353d"/>
<rect x="419" y="161" width="6" height="6" rx="1" fill="#30353d"/>
<rect x="439" y="161" width="6" height="6" rx="1" fill="#30353d"/>
<rect x="459" y="161" width="6" height="6" rx="1" fill="#30353d"/>
<rect x="479" y="161" width="6" height="6" rx="1" fill="#30353d"/>
<rect x="499" y="161" width="6" height="6" rx="1" fill="#30353d"/>
<rect x="519" y="161" width="6" height="6" rx="1" fill="#30353d"/>
<rect x="539" y="161" width="6" height="6" rx="1" fill="#30353d"/>
<rect x="559" y="161" width="6" height="6" rx="1" fill="#30353d"/>
<rect x="579" y="161" width="6" height="6" rx="1" fill="#30353d"/>
<rect x="599" y="161" width="6" height="6" rx="1" fill="#30353d"/>
<rect x="619" y="161" width="6" height="6" rx="1" fill="#30353d"/>
<rect x="39" y="197" width="6" height="6" rx="1" fill="#30353d"/>
<rect x="59" y="197" width="6" height="6" rx="1" fill="#30353d"/>
<rect x="79" y="197" width="6" height="6" rx="1" fill="#30353d"/>
<rect x="99" y="197" width="6" height="6" rx="1" fill="#30353d"/>
<rect x="119" y="197" width="6" height="6" rx="1" fill="#30353d"/>
<rect x="139" y="197" width="6" height="6" rx="1" fill="#30353d"/>
<rect x="159" y="197" width="6" height="6" rx="1" fill="#30353d"/>
<rect x="179" y="197" width="6" height="6" rx="1" fill="#30353d"/>
<rect x="199" y="197" width="6" height="6" rx="1" fill="#30353d"/>
<rect x="219" y="197" width="6" height="6" rx="1" fill="#30353d"/>
<rect x="239" y="197" width="6" height="6" rx="1" fill="#30353d"/>
<rect x="259" y="197" width="6" height="6" rx="1" fill="#30353d"/>
<rect x="279" y="197" width="6" height="6" rx="1" fill="#30353d"/>
<rect x="299" y="197" width="6" height="6" rx="1" fill="#30353d"/>
<rect x="319" y="197" width="6" height="6" rx="1" fill="#30353d"/>
<rect x="339" y="197" width="6" height="6" rx="1" fill="#30353d"/>
<rect x="359" y="197" width="6" height="6" rx="1" fill="#30353d"/>
<rect x="379" y="197" width="6" height="6" rx="1" fill="#30353d"/>
<rect x="399" y="197" width="6" height="6" rx="1" fill="#30353d"/>
<rect x="419" y="197" width="6" height="6" rx="1" fill="#30353d"/>
<rect x="439" y="197" width="6" height="6" rx="1" fill="#30353d"/>
<rect x="459" y="197" width="6" height="6" rx="1" fill="#30353d"/>
<rect x="479" y="197" width="6" height="6" rx="1" fill="#30353d"/>
<rect x="499" y="197" width="6" height="6" rx="1" fill="#30353d"/>
<rect x="519" y="197" width="6" height="6" rx="1" fill="#30353d"/>
<rect x="539" y="197" width="6" height="6" rx="1" fill="#30353d"/>
<rect x="559" y="197" width="6" height="6" rx="1" fill="#30353d"/>
<rect x="579" y="197" width="6" height="6" rx="1" fill="#30353d"/>
<rect x="599" y="197" width="6" height="6" rx="1" fill="#30353d"/>
<rect x="619" y="197" width="6" height="6" rx="1" fill="#30353d"/>
<rect x="39" y="217" width="6" height="6" rx="1" fill="#30353d"/>
<rect x="59" y="217" width="6" height="6" rx="1" fill="#30353d"/>
<rect x="79" y="217" width="6" height="6" rx="1" fill="#30353d"/>
<rect x="99" y="217" width="6" height="6" rx="1" fill="#30353d"/>
<rect x="119" y="217" width="6" height="6" rx="1" fill="#30353d"/>
<rect x="139" y="217" width="6" height="6" rx="1" fill="#30353d"/>
<rect x="159" y="217" width="6" height="6" rx="1" fill="#30353d"/>
<rect x="179" y="217" width="6" height="6" rx="1" fill="#30353d"/>
<rect x="199" y="217" width="6" height="6" rx="1" fill="#30353d"/>
<rect x="219" y="217" width="6" height="6" rx="1" fill="#30353d"/>
<rect x="239" y="217" width="6" height="6" rx="1" fill="#30353d"/>
<rect x="259" y="217" width="6" height="6" rx="1" fill="#30353d"/>
<rect x="279" y="217" width="6" height="6" rx="1" fill="#30353d"/>
<rect x="299" y="217" width="6" height="6" rx="1" fill="#30353d"/>
<rect x="319" y="217" width="6" height="6" rx="1" fill="#30353d"/>
<rect x="339" y="217" width="6" height="6" rx="1" fill="#30353d"/>
<rect x="359" y="217" width="6" height="6" rx="1" fill="#30353d"/>
<rect x="379" y="217" width="6" height="6" rx="1" fill="#30353d"/>
<rect x="399" y="217" width="6" height="6" rx="1" fill="#30353d"/>
<rect x="419" y="217" width="6" height="6" rx="1" fill="#30353d"/>
<rect x="439" y="217" width="6" height="6" rx="1" fill="#30353d"/>
<rect x="459" y="217" width="6" height="6" rx="1" fill="#30353d"/>
<rect x="479" y="217" width="6" height="6" rx="1" fill="#30353d"/>
<rect x="499" y="217" width="6" height="6" rx="1" fill="#30353d"/>
<rect x="519" y="217" width="6" height="6" rx="1" fill="#30353d"/>
<rect x="539" y="217" width="6" height="6" rx="1" fill="#30353d"/>
<rect x="559" y="217" width="6" height="6" rx="1" fill="#30353d"/>
<rect x="579" y="217" width="6" height="6" rx="1" fill="#30353d"/>
<rect x="599" y="217" width="6" height="6" rx="1" fill="#30353d"/>
<rect x="619" y="217" width="6" height="6" rx="1" fill="#30353d"/>
<rect x="39" y="237" width="6" height="6" rx="1" fill="#30353d"/>
<rect x="59" y="237" width="6" height="6" rx="1" fill="#30353d"/>
<rect x="79" y="237" width="6" height="6" rx="1" fill="#30353d"/>
<rect x="99" y="237" width="6" height="6" rx="1" fill="#30353d"/>
<rect x="119" y="237" width="6" height="6" rx="1" fill="#30353d"/>
<rect x="139" y="237" width="6" height="6" rx="1" fill="#30353d"/>
<rect x="159" y="237" width="6" height="6" rx="1" fill="#30353d"/>
<rect x="179" y="237" width="6" height="6" rx="1" fill="#30353d"/>
<rect x="199" y="237" width="6" height="6" rx="1" fill="#30353d"/>
<rect x="219" y="237" width="6" height="6" rx="1" fill="#30353d"/>
<rect x="239" y="237" width="6" height="6" rx="1" fill="#30353d"/>
<rect x="259" y="237" width="6" height="6" rx="1" fill="#30353d"/>
<rect x="279" y="237" width="6" height="6" rx="1" fill="#30353d"/>
<rect x="299" y="237" width="6" height="6" rx="1" fill="#30353d"/>
<rect x="319" y="237" width="6" height="6" rx="1" fill="#30353d"/>
<rect x="339" y="237" width="6" height="6" rx="1" fill="#30353d"/>
<rect x="359" y="237" width="6" height="6" rx="1" fill="#30353d"/>
<rect x="379" y="237" width="6" height="6" rx="1" fill="#30353d"/>
<rect x="399" y="237" width="6" height="6" rx="1" fill="#30353d"/>
<rect x="419" y="237" width="6" height="6" rx="1" fill="#30353d"/>
<rect x="439" y="237" width="6" height="6" rx="1" fill="#30353d"/>
<rect x="459" y="237" width="6" height="6" rx="1" fill="#30353d"/>
<rect x="479" y="237" width="6" height="6" rx="1" fill="#30353d"/>
<rect x="499" y="237" width="6" height="6" rx="1" fill="#30353d"/>
<rect x="519" y="237" width="6" height="6" rx="1" fill="#30353d"/>
<rect x="539" y="237" width="6" height="6" rx="1" fill="#30353d"/>
<rect x="559" y="237" width="6" height="6" rx="1" fill="#30353d"/>
<rect x="579" y="237" width="6" height="6" rx="1" fill="#30353d"/>
<rect x="599" y="237" width="6" height="6" rx="1" fill="#30353d"/>
<rect x="619" y="237" width="6" height="6" rx="1" fill="#30353d"/>
<rect x="39" y="257" width="6" height="6" rx="1" fill="#30353d"/>
<rect x="59" y="257" width="6" height="6" rx="1" fill="#30353d"/>
<rect x="79" y="257" width="6" height="6" rx="1" fill="#30353d"/>
<rect x="99" y="257" width="6" height="6" rx="1" fill="#30353d"/>
<rect x="119" y="257" width="6" height="6" rx="1" fill="#30353d"/>
<rect x="139" y="257" width="6" height="6" rx="1" fill="#30353d"/>
<rect x="159" y="257" width="6" height="6" rx="1" fill="#30353d"/>
<rect x="179" y="257" width="6" height="6" rx="1" fill="#30353d"/>
<rect x="199" y="257" width="6" height="6" rx="1" fill="#30353d"/>
<rect x="219" y="257" width="6" height="6" rx="1" fill="#30353d"/>
<rect x="239" y="257" width="6" height="6" rx="1" fill="#30353d"/>
<rect x="259" y="257" width="6" height="6" rx="1" fill="#30353d"/>
<rect x="279" y="257" width="6" height="6" rx="1" fill="#30353d"/>
<rect x="299" y="257" width="6" height="6" rx="1" fill="#30353d"/>
<rect x="319" y="257" width="6" height="6" rx="1" fill="#30353d"/>
<rect x="339" y="257" width="6" height="6" rx="1" fill="#30353d"/>
<rect x="359" y="257" width="6" height="6" rx="1" fill="#30353d"/>
<rect x="379" y="257" width="6" height="6" rx="1" fill="#30353d"/>
<rect x="399" y="257" width="6" height="6" rx="1" fill="#30353d"/>
<rect x="419" y="257" width="6" height="6" rx="1" fill="#30353d"/>
<rect x="439" y="257" width="6" height="6" rx="1" fill="#30353d"/>
<rect x="459" y="257" width="6" height="6" rx="1" fill="#30353d"/>
<rect x="479" y="257" width="6" height="6" rx="1" fill="#30353d"/>
<rect x="499" y="257" width="6" height="6" rx="1" fill="#30353d"/>
<rect x="519" y="257" width="6" height="6" rx="1" fill="#30353d"/>
<rect x="539" y="257" width="6" height="6" rx="1" fill="#30353d"/>
<rect x="559" y="257" width="6" height="6" rx="1" fill="#30353d"/>
<rect x="579" y="257" width="6" height="6" rx="1" fill="#30353d"/>
<rect x="599" y="257" width="6" height="6" rx="1" fill="#30353d"/>
<rect x="619" y="257" width="6" height="6" rx="1" fill="#30353d"/>
<rect x="39" y="277" width="6" height="6" rx="1" fill="#30353d"/>
<rect x="59" y="277" width="6" height="6" rx="1" fill="#30353d"/>
<rect x="79" y="277" width="6" height="6" rx="1" fill="#30353d"/>
<rect x="99" y="277" width="6" height="6" rx="1" fill="#30353d"/>
<rect x="119" y="277" width="6" height="6" rx="1" fill="#30353d"/>
<rect x="139" y="277" width="6" height="6" rx="1" fill="#30353d"/>
<rect x="159" y="277" width="6" height="6" rx="1" fill="#30353d"/>
<rect x="179" y="277" width="6" height="6" rx="1" fill="#30353d"/>
<rect x="199" y="277" width="6" height="6" rx="1" fill="#30353d"/>
<rect x="219" y="277" width="6" height="6" rx="1" fill="#30353d"/>
<rect x="239" y="277" width="6" height="6" rx="1" fill="#30353d"/>
<rect x="259" y="277" width="6" height="6" rx="1" fill="#30353d"/>
<rect x="279" y="277" width="6" height="6" rx="1" fill="#30353d"/>
<rect x="299" y="277" width="6" height="6" rx="1" fill="#30353d"/>
<rect x="319" y="277" width="6" height="6" rx="1" fill="#30353d"/>
<rect x="339" y="277" width="6" height="6" rx="1" fill="#30353d"/>
<rect x="359" y="277" width="6" height="6" rx="1" fill="#30353d"/>
<rect x="379" y="277" width="6" height="6" rx="1" fill="#30353d"/>
<rect x="399" y="277" width="6" height="6" rx="1" fill="#30353d"/>
<rect x="419" y="277" width="6" height="6" rx="1" fill="#30353d"/>
<rect x="439" y="277" width="6" height="6" rx="1" fill="#30353d"/>
<rect x="459" y="277" width="6" height="6" rx="1" fill="#30353d"/>
<rect x="479" y="277" width="6" height="6" rx="1" fill="#30353d"/>
<rect x="499" y="277" width="6" height="6" rx="1" fill="#30353d"/>
<rect x="519" y="277" width="6" height="6" rx="1" fill="#30353d"/>
<rect x="539" y="277" width="6" height="6" rx="1" fill="#30353d"/>
<rect x="559" y="277" width="6" height="6" rx="1" fill="#30353d"/>
<rect x="579" y="277" width="6" height="6" rx="1" fill="#30353d"/>
<rect x="599" y="277" width="6" height="6" rx="1" fill="#30353d"/>
<rect x="619" y="277" width="6" height="6" rx="1" fill="#30353d"/>
<text x="25" y="88.5" text-anchor="middle" font-family="ui-sans-serif, system-ui, sans-serif" font-size="14.95" font-weight="700" fill="#5f5748">a</text>
<text x="639" y="88.5" text-anchor="middle" font-family="ui-sans-serif, system-ui, sans-serif" font-size="14.95" font-weight="700" fill="#5f5748">a</text>
<text x="25" y="108.5" text-anchor="middle" font-family="ui-sans-serif, system-ui, sans-serif" font-size="14.95" font-weight="700" fill="#5f5748">b</text>
<text x="639" y="108.5" text-anchor="middle" font-family="ui-sans-serif, system-ui, sans-serif" font-size="14.95" font-weight="700" fill="#5f5748">b</text>
<text x="25" y="128.5" text-anchor="middle" font-family="ui-sans-serif, system-ui, sans-serif" font-size="14.95" font-weight="700" fill="#5f5748">c</text>
<text x="639" y="128.5" text-anchor="middle" font-family="ui-sans-serif, system-ui, sans-serif" font-size="14.95" font-weight="700" fill="#5f5748">c</text>
<text x="25" y="148.5" text-anchor="middle" font-family="ui-sans-serif, system-ui, sans-serif" font-size="14.95" font-weight="700" fill="#5f5748">d</text>
<text x="639" y="148.5" text-anchor="middle" font-family="ui-sans-serif, system-ui, sans-serif" font-size="14.95" font-weight="700" fill="#5f5748">d</text>
<text x="25" y="168.5" text-anchor="middle" font-family="ui-sans-serif, system-ui, sans-serif" font-size="14.95" font-weight="700" fill="#5f5748">e</text>
<text x="639" y="168.5" text-anchor="middle" font-family="ui-sans-serif, system-ui, sans-serif" font-size="14.95" font-weight="700" fill="#5f5748">e</text>
<text x="25" y="204.5" text-anchor="middle" font-family="ui-sans-serif, system-ui, sans-serif" font-size="14.95" font-weight="700" fill="#5f5748">f</text>
<text x="639" y="204.5" text-anchor="middle" font-family="ui-sans-serif, system-ui, sans-serif" font-size="14.95" font-weight="700" fill="#5f5748">f</text>
<text x="25" y="224.5" text-anchor="middle" font-family="ui-sans-serif, system-ui, sans-serif" font-size="14.95" font-weight="700" fill="#5f5748">g</text>
<text x="639" y="224.5" text-anchor="middle" font-family="ui-sans-serif, system-ui, sans-serif" font-size="14.95" font-weight="700" fill="#5f5748">g</text>
<text x="25" y="244.5" text-anchor="middle" font-family="ui-sans-serif, system-ui, sans-serif" font-size="14.95" font-weight="700" fill="#5f5748">h</text>
<text x="639" y="244.5" text-anchor="middle" font-family="ui-sans-serif, system-ui, sans-serif" font-size="14.95" font-weight="700" fill="#5f5748">h</text>
<text x="25" y="264.5" text-anchor="middle" font-family="ui-sans-serif, system-ui, sans-serif" font-size="14.95" font-weight="700" fill="#5f5748">i</text>
<text x="639" y="264.5" text-anchor="middle" font-family="ui-sans-serif, system-ui, sans-serif" font-size="14.95" font-weight="700" fill="#5f5748">i</text>
<text x="25" y="284.5" text-anchor="middle" font-family="ui-sans-serif, system-ui, sans-serif" font-size="14.95" font-weight="700" fill="#5f5748">j</text>
<text x="639" y="284.5" text-anchor="middle" font-family="ui-sans-serif, system-ui, sans-serif" font-size="14.95" font-weight="700" fill="#5f5748">j</text>
<text x="42" y="72" text-anchor="middle" font-family="ui-sans-serif, system-ui, sans-serif" stroke="#f2efe6" stroke-width="3.45" paint-order="stroke" font-size="13.23" font-weight="700" fill="#5f5748">1</text>
<text x="42" y="297" text-anchor="middle" font-family="ui-sans-serif, system-ui, sans-serif" stroke="#f2efe6" stroke-width="3.45" paint-order="stroke" font-size="13.23" font-weight="700" fill="#5f5748">1</text>
<text x="122" y="72" text-anchor="middle" font-family="ui-sans-serif, system-ui, sans-serif" stroke="#f2efe6" stroke-width="3.45" paint-order="stroke" font-size="13.23" font-weight="700" fill="#5f5748">5</text>
<text x="122" y="297" text-anchor="middle" font-family="ui-sans-serif, system-ui, sans-serif" stroke="#f2efe6" stroke-width="3.45" paint-order="stroke" font-size="13.23" font-weight="700" fill="#5f5748">5</text>
<text x="222" y="72" text-anchor="middle" font-family="ui-sans-serif, system-ui, sans-serif" stroke="#f2efe6" stroke-width="3.45" paint-order="stroke" font-size="13.23" font-weight="700" fill="#5f5748">10</text>
<text x="222" y="297" text-anchor="middle" font-family="ui-sans-serif, system-ui, sans-serif" stroke="#f2efe6" stroke-width="3.45" paint-order="stroke" font-size="13.23" font-weight="700" fill="#5f5748">10</text>
<text x="322" y="72" text-anchor="middle" font-family="ui-sans-serif, system-ui, sans-serif" stroke="#f2efe6" stroke-width="3.45" paint-order="stroke" font-size="13.23" font-weight="700" fill="#5f5748">15</text>
<text x="322" y="297" text-anchor="middle" font-family="ui-sans-serif, system-ui, sans-serif" stroke="#f2efe6" stroke-width="3.45" paint-order="stroke" font-size="13.23" font-weight="700" fill="#5f5748">15</text>
<text x="422" y="72" text-anchor="middle" font-family="ui-sans-serif, system-ui, sans-serif" stroke="#f2efe6" stroke-width="3.45" paint-order="stroke" font-size="13.23" font-weight="700" fill="#5f5748">20</text>
<text x="422" y="297" text-anchor="middle" font-family="ui-sans-serif, system-ui, sans-serif" stroke="#f2efe6" stroke-width="3.45" paint-order="stroke" font-size="13.23" font-weight="700" fill="#5f5748">20</text>
<text x="522" y="72" text-anchor="middle" font-family="ui-sans-serif, system-ui, sans-serif" stroke="#f2efe6" stroke-width="3.45" paint-order="stroke" font-size="13.23" font-weight="700" fill="#5f5748">25</text>
<text x="522" y="297" text-anchor="middle" font-family="ui-sans-serif, system-ui, sans-serif" stroke="#f2efe6" stroke-width="3.45" paint-order="stroke" font-size="13.23" font-weight="700" fill="#5f5748">25</text>
<text x="622" y="72" text-anchor="middle" font-family="ui-sans-serif, system-ui, sans-serif" stroke="#f2efe6" stroke-width="3.45" paint-order="stroke" font-size="13.23" font-weight="700" fill="#5f5748">30</text>
<text x="622" y="297" text-anchor="middle" font-family="ui-sans-serif, system-ui, sans-serif" stroke="#f2efe6" stroke-width="3.45" paint-order="stroke" font-size="13.23" font-weight="700" fill="#5f5748">30</text>
<path d="M 222 30 L 222 84" fill="none" stroke="#d33a2f" stroke-width="4.2" stroke-linecap="round" opacity="0.92"/><circle cx="222" cy="30" r="3.46" fill="#30353d"/><circle cx="222" cy="84" r="3.46" fill="#30353d"/>
<path d="M 182 200 L 222 220" fill="none" stroke="#8a929c" stroke-width="4.2" stroke-linecap="round" opacity="0.92"/><circle cx="182" cy="200" r="3.46" fill="#30353d"/><circle cx="222" cy="220" r="3.46" fill="#30353d"/>
<path d="M 142 280 L 142 314" fill="none" stroke="#23272e" stroke-width="4.2" stroke-linecap="round" opacity="0.92"/><circle cx="142" cy="280" r="3.46" fill="#30353d"/><circle cx="142" cy="314" r="3.46" fill="#30353d"/>
<path d="M 262 280 L 262 334" fill="none" stroke="#d33a2f" stroke-width="4.2" stroke-linecap="round" opacity="0.92"/><circle cx="262" cy="280" r="3.46" fill="#30353d"/><circle cx="262" cy="334" r="3.46" fill="#30353d"/>
<path d="M 62 280 L 62 334" fill="none" stroke="#e08a1e" stroke-width="4.2" stroke-linecap="round" opacity="0.92"/><circle cx="62" cy="280" r="3.46" fill="#30353d"/><circle cx="62" cy="334" r="3.46" fill="#30353d"/>
<path d="M 282 220 L 282 334" fill="none" stroke="#d33a2f" stroke-width="4.2" stroke-linecap="round" opacity="0.92"/><circle cx="282" cy="220" r="3.46" fill="#30353d"/><circle cx="282" cy="334" r="3.46" fill="#30353d"/>
<path d="M 462 260 L 462 314" fill="none" stroke="#23272e" stroke-width="4.2" stroke-linecap="round" opacity="0.92"/><circle cx="462" cy="260" r="3.46" fill="#30353d"/><circle cx="462" cy="314" r="3.46" fill="#30353d"/>
<path d="M 622 30 L 622 334" fill="none" stroke="#d33a2f" stroke-width="4.2" stroke-linecap="round" opacity="0.92"/><circle cx="622" cy="30" r="3.46" fill="#30353d"/><circle cx="622" cy="334" r="3.46" fill="#30353d"/>
<path d="M 602 50 L 602 314" fill="none" stroke="#23272e" stroke-width="4.2" stroke-linecap="round" opacity="0.92"/><circle cx="602" cy="50" r="3.46" fill="#30353d"/><circle cx="602" cy="314" r="3.46" fill="#30353d"/>
<rect x="219" y="195" width="6" height="6" fill="#b9bec7"/><rect x="279" y="195" width="6" height="6" fill="#b9bec7"/><rect x="319" y="195" width="6" height="6" fill="#b9bec7"/><rect x="359" y="195" width="6" height="6" fill="#b9bec7"/><rect x="359" y="163" width="6" height="6" fill="#b9bec7"/><rect x="319" y="163" width="6" height="6" fill="#b9bec7"/><rect x="279" y="163" width="6" height="6" fill="#b9bec7"/><rect x="219" y="163" width="6" height="6" fill="#b9bec7"/><rect x="213" y="159" width="158" height="46" rx="3" fill="#2b2f36" stroke="#14171c"/><circle cx="213" cy="182" r="4.5" fill="#f2efe6"/><text x="222" y="193" text-anchor="middle" font-family="ui-sans-serif, system-ui, sans-serif" font-size="8.13" fill="#b9bec7">A1</text><text x="282" y="193" text-anchor="middle" font-family="ui-sans-serif, system-ui, sans-serif" font-size="8.13" fill="#b9bec7">COM1</text><text x="322" y="193" text-anchor="middle" font-family="ui-sans-serif, system-ui, sans-serif" font-size="8.13" fill="#b9bec7">NC1</text><text x="362" y="193" text-anchor="middle" font-family="ui-sans-serif, system-ui, sans-serif" font-size="8.13" fill="#b9bec7">NO1</text><text x="362" y="176" text-anchor="middle" font-family="ui-sans-serif, system-ui, sans-serif" font-size="8.13" fill="#b9bec7">NO2</text><text x="322" y="176" text-anchor="middle" font-family="ui-sans-serif, system-ui, sans-serif" font-size="8.13" fill="#b9bec7">NC2</text><text x="282" y="176" text-anchor="middle" font-family="ui-sans-serif, system-ui, sans-serif" font-size="8.13" fill="#b9bec7">COM2</text><text x="222" y="176" text-anchor="middle" font-family="ui-sans-serif, system-ui, sans-serif" font-size="8.13" fill="#b9bec7">A2</text><text x="292" y="185.5" text-anchor="middle" font-family="ui-sans-serif, system-ui, sans-serif" font-size="11.88" fill="#e8ebf0">K1 G5V-2</text>
<path d="M 147.09 251.78 A 19 19 0 1 1 176.91 251.78 Z" fill="#2b2f36" stroke="#14171c" stroke-width="1.2"/><rect x="139" y="237" width="6" height="6" fill="#b9bec7"/><rect x="159" y="237" width="6" height="6" fill="#b9bec7"/><rect x="179" y="237" width="6" height="6" fill="#b9bec7"/><text x="142" y="271" text-anchor="middle" font-family="ui-sans-serif, system-ui, sans-serif" stroke="#f2efe6" stroke-width="4.75" paint-order="stroke" font-size="12.5" font-weight="700" fill="#3f4650">E</text><text x="162" y="271" text-anchor="middle" font-family="ui-sans-serif, system-ui, sans-serif" stroke="#f2efe6" stroke-width="4.75" paint-order="stroke" font-size="12.5" font-weight="700" fill="#3f4650">B</text><text x="182" y="271" text-anchor="middle" font-family="ui-sans-serif, system-ui, sans-serif" stroke="#f2efe6" stroke-width="4.75" paint-order="stroke" font-size="12.5" font-weight="700" fill="#3f4650">C</text><text x="162" y="285.38" text-anchor="middle" font-family="ui-sans-serif, system-ui, sans-serif" stroke="#f2efe6" stroke-width="4.75" paint-order="stroke" font-size="12.5" fill="#3f4650">Q1 2SC1815</text>
<line x1="62" y1="220" x2="162" y2="220" stroke="#8f98a3" stroke-width="2"/><g transform="translate(112 220) rotate(0)"><rect x="-19" y="-6.5" width="38" height="13" rx="5" fill="#e9d8a6" stroke="#b08968"/><rect x="-9.5" y="-6" width="3.2" height="12" fill="#6b4423"/><rect x="-1.9" y="-6" width="3.2" height="12" fill="#1b1d21"/><rect x="5.7" y="-6" width="3.2" height="12" fill="#c92c22"/><rect x="13.3" y="-6" width="3.2" height="12" fill="#6b4423"/></g><text x="112" y="239.5" text-anchor="middle" font-family="ui-sans-serif, system-ui, sans-serif" stroke="#f2efe6" stroke-width="4.75" paint-order="stroke" font-size="12.5" fill="#3f4650">R1 1k</text>
<line x1="222" y1="260" x2="262" y2="260" stroke="#8f98a3" stroke-width="2"/><g transform="translate(242 260) rotate(0)"><rect x="-11" y="-6.5" width="22" height="13" rx="2.5" fill="#23272e" stroke="#12151a"/><rect x="4.7" y="-6.5" width="3.4" height="13" fill="#dfe4ee"/></g><text x="242" y="279.5" text-anchor="middle" font-family="ui-sans-serif, system-ui, sans-serif" stroke="#f2efe6" stroke-width="4.75" paint-order="stroke" font-size="12.5" fill="#3f4650">D1 1N4148</text>
<line x1="362" y1="220" x2="442" y2="220" stroke="#8f98a3" stroke-width="2"/><g transform="translate(402 220) rotate(0)"><rect x="-19" y="-6.5" width="38" height="13" rx="5" fill="#e9d8a6" stroke="#b08968"/><rect x="-9.5" y="-6" width="3.2" height="12" fill="#e07b1e"/><rect x="-1.9" y="-6" width="3.2" height="12" fill="#e07b1e"/><rect x="5.7" y="-6" width="3.2" height="12" fill="#6b4423"/><rect x="13.3" y="-6" width="3.2" height="12" fill="#6b4423"/></g><text x="402" y="239.5" text-anchor="middle" font-family="ui-sans-serif, system-ui, sans-serif" stroke="#f2efe6" stroke-width="4.75" paint-order="stroke" font-size="12.5" fill="#3f4650">R2 330</text>
<line x1="442" y1="240" x2="462" y2="240" stroke="#8f98a3" stroke-width="2"/><g transform="translate(452 240) rotate(0)"><circle cx="0" cy="-4" r="8.5" fill="#e0392c" fill-opacity="0.85" stroke="#7a2018"/><line x1="6" y1="-11" x2="6" y2="3" stroke="#7a2018" stroke-width="2"/></g><text x="452" y="261.5" text-anchor="middle" font-family="ui-sans-serif, system-ui, sans-serif" stroke="#f2efe6" stroke-width="4.75" paint-order="stroke" font-size="12.5" fill="#3f4650">L1 red</text>
<rect x="14" y="364" width="636" height="128.75" rx="6" fill="#f2efe6" stroke="#d8d2c2"/><text x="25.25" y="385.25" text-anchor="start" font-family="ui-sans-serif, system-ui, sans-serif" stroke="#f2efe6" stroke-width="3.75" paint-order="stroke" font-size="12.5" fill="#3f4650">K1</text><text x="57.75" y="385.25" text-anchor="start" font-family="ui-sans-serif, system-ui, sans-serif" stroke="#f2efe6" stroke-width="3.75" paint-order="stroke" font-size="12.5" fill="#5f5748">relay</text><text x="145.25" y="385.25" text-anchor="start" font-family="ui-sans-serif, system-ui, sans-serif" stroke="#f2efe6" stroke-width="3.75" paint-order="stroke" font-size="12.5" fill="#3f4650">G5V-2</text><text x="25.25" y="404" text-anchor="start" font-family="ui-sans-serif, system-ui, sans-serif" stroke="#f2efe6" stroke-width="3.75" paint-order="stroke" font-size="12.5" fill="#3f4650">Q1</text><text x="57.75" y="404" text-anchor="start" font-family="ui-sans-serif, system-ui, sans-serif" stroke="#f2efe6" stroke-width="3.75" paint-order="stroke" font-size="12.5" fill="#5f5748">transistor</text><text x="145.25" y="404" text-anchor="start" font-family="ui-sans-serif, system-ui, sans-serif" stroke="#f2efe6" stroke-width="3.75" paint-order="stroke" font-size="12.5" fill="#3f4650">2SC1815</text><text x="25.25" y="422.75" text-anchor="start" font-family="ui-sans-serif, system-ui, sans-serif" stroke="#f2efe6" stroke-width="3.75" paint-order="stroke" font-size="12.5" fill="#3f4650">R1</text><text x="57.75" y="422.75" text-anchor="start" font-family="ui-sans-serif, system-ui, sans-serif" stroke="#f2efe6" stroke-width="3.75" paint-order="stroke" font-size="12.5" fill="#5f5748">resistor</text><text x="145.25" y="422.75" text-anchor="start" font-family="ui-sans-serif, system-ui, sans-serif" stroke="#f2efe6" stroke-width="3.75" paint-order="stroke" font-size="12.5" fill="#3f4650">1k</text><text x="25.25" y="441.5" text-anchor="start" font-family="ui-sans-serif, system-ui, sans-serif" stroke="#f2efe6" stroke-width="3.75" paint-order="stroke" font-size="12.5" fill="#3f4650">D1</text><text x="57.75" y="441.5" text-anchor="start" font-family="ui-sans-serif, system-ui, sans-serif" stroke="#f2efe6" stroke-width="3.75" paint-order="stroke" font-size="12.5" fill="#5f5748">diode</text><text x="145.25" y="441.5" text-anchor="start" font-family="ui-sans-serif, system-ui, sans-serif" stroke="#f2efe6" stroke-width="3.75" paint-order="stroke" font-size="12.5" fill="#3f4650">1N4148</text><text x="25.25" y="460.25" text-anchor="start" font-family="ui-sans-serif, system-ui, sans-serif" stroke="#f2efe6" stroke-width="3.75" paint-order="stroke" font-size="12.5" fill="#3f4650">R2</text><text x="57.75" y="460.25" text-anchor="start" font-family="ui-sans-serif, system-ui, sans-serif" stroke="#f2efe6" stroke-width="3.75" paint-order="stroke" font-size="12.5" fill="#5f5748">resistor</text><text x="145.25" y="460.25" text-anchor="start" font-family="ui-sans-serif, system-ui, sans-serif" stroke="#f2efe6" stroke-width="3.75" paint-order="stroke" font-size="12.5" fill="#3f4650">330</text><text x="25.25" y="479" text-anchor="start" font-family="ui-sans-serif, system-ui, sans-serif" stroke="#f2efe6" stroke-width="3.75" paint-order="stroke" font-size="12.5" fill="#3f4650">L1</text><text x="57.75" y="479" text-anchor="start" font-family="ui-sans-serif, system-ui, sans-serif" stroke="#f2efe6" stroke-width="3.75" paint-order="stroke" font-size="12.5" fill="#5f5748">led</text><text x="145.25" y="479" text-anchor="start" font-family="ui-sans-serif, system-ui, sans-serif" stroke="#f2efe6" stroke-width="3.75" paint-order="stroke" font-size="12.5" fill="#3f4650">red</text>
<text x="14" y="524.75" text-anchor="start" font-family="ui-sans-serif, system-ui, sans-serif" font-size="12.5" fill="#3f4650">オレンジの線 (2 列) を 5V につなぐと Q1 が入り、リレーが引いて LED が点く</text></g>
</svg>
