<svg xmlns="http://www.w3.org/2000/svg" viewBox="0 0 488 467.45" width="488" height="467.45" data-perfboard-fence="0.2.1" role="img"><text x="30" y="34" text-anchor="start" font-family="ui-sans-serif, system-ui, sans-serif" fill="#3c3730" font-size="13.5" font-weight="600">図07 スロット用の銅箔</text><rect x="30" y="56" width="444" height="284" rx="4" fill="#2c7a4b" stroke="#1d4f31" stroke-width="1"/><circle cx="62" cy="68" r="3.25" fill="#14261c" stroke="#cdd3d9" stroke-width="2.5"/><circle cx="82" cy="68" r="3.25" fill="#14261c" stroke="#cdd3d9" stroke-width="2.5"/><circle cx="102" cy="68" r="3.25" fill="#14261c" stroke="#cdd3d9" stroke-width="2.5"/><circle cx="122" cy="68" r="3.25" fill="#14261c" stroke="#cdd3d9" stroke-width="2.5"/><circle cx="142" cy="68" r="3.25" fill="#14261c" stroke="#cdd3d9" stroke-width="2.5"/><circle cx="162" cy="68" r="3.25" fill="#14261c" stroke="#cdd3d9" stroke-width="2.5"/><circle cx="182" cy="68" r="3.25" fill="#14261c" stroke="#cdd3d9" stroke-width="2.5"/><circle cx="202" cy="68" r="3.25" fill="#14261c" stroke="#cdd3d9" stroke-width="2.5"/><circle cx="222" cy="68" r="3.25" fill="#14261c" stroke="#cdd3d9" stroke-width="2.5"/><circle cx="242" cy="68" r="3.25" fill="#14261c" stroke="#cdd3d9" stroke-width="2.5"/><circle cx="262" cy="68" r="3.25" fill="#14261c" stroke="#cdd3d9" stroke-width="2.5"/><circle cx="282" cy="68" r="3.25" fill="#14261c" stroke="#cdd3d9" stroke-width="2.5"/><circle cx="302" cy="68" r="3.25" fill="#14261c" stroke="#cdd3d9" stroke-width="2.5"/><circle cx="322" cy="68" r="3.25" fill="#14261c" stroke="#cdd3d9" stroke-width="2.5"/><circle cx="342" cy="68" r="3.25" fill="#14261c" stroke="#cdd3d9" stroke-width="2.5"/><circle cx="362" cy="68" r="3.25" fill="#14261c" stroke="#cdd3d9" stroke-width="2.5"/><circle cx="382" cy="68" r="3.25" fill="#14261c" stroke="#cdd3d9" stroke-width="2.5"/><circle cx="402" cy="68" r="3.25" fill="#14261c" stroke="#cdd3d9" stroke-width="2.5"/><circle cx="422" cy="68" r="3.25" fill="#14261c" stroke="#cdd3d9" stroke-width="2.5"/><circle cx="442" cy="68" r="3.25" fill="#14261c" stroke="#cdd3d9" stroke-width="2.5"/><circle cx="62" cy="88" r="3.25" fill="#14261c" stroke="#cdd3d9" stroke-width="2.5"/><circle cx="82" cy="88" r="3.25" fill="#14261c" stroke="#cdd3d9" stroke-width="2.5"/><circle cx="102" cy="88" r="3.25" fill="#14261c" stroke="#cdd3d9" stroke-width="2.5"/><circle cx="122" cy="88" r="3.25" fill="#14261c" stroke="#cdd3d9" stroke-width="2.5"/><circle cx="142" cy="88" r="3.25" fill="#14261c" stroke="#cdd3d9" stroke-width="2.5"/><circle cx="162" cy="88" r="3.25" fill="#14261c" stroke="#cdd3d9" stroke-width="2.5"/><circle cx="182" cy="88" r="3.25" fill="#14261c" stroke="#cdd3d9" stroke-width="2.5"/><circle cx="202" cy="88" r="3.25" fill="#14261c" stroke="#cdd3d9" stroke-width="2.5"/><circle cx="222" cy="88" r="3.25" fill="#14261c" stroke="#cdd3d9" stroke-width="2.5"/><circle cx="242" cy="88" r="3.25" fill="#14261c" stroke="#cdd3d9" stroke-width="2.5"/><circle cx="262" cy="88" r="3.25" fill="#14261c" stroke="#cdd3d9" stroke-width="2.5"/><circle cx="282" cy="88" r="3.25" fill="#14261c" stroke="#cdd3d9" stroke-width="2.5"/><circle cx="302" cy="88" r="3.25" fill="#14261c" stroke="#cdd3d9" stroke-width="2.5"/><circle cx="322" cy="88" r="3.25" fill="#14261c" stroke="#cdd3d9" stroke-width="2.5"/><circle cx="342" cy="88" r="3.25" fill="#14261c" stroke="#cdd3d9" stroke-width="2.5"/><circle cx="362" cy="88" r="3.25" fill="#14261c" stroke="#cdd3d9" stroke-width="2.5"/><circle cx="382" cy="88" r="3.25" fill="#14261c" stroke="#cdd3d9" stroke-width="2.5"/><circle cx="402" cy="88" r="3.25" fill="#14261c" stroke="#cdd3d9" stroke-width="2.5"/><circle cx="422" cy="88" r="3.25" fill="#14261c" stroke="#cdd3d9" stroke-width="2.5"/><circle cx="442" cy="88" r="3.25" fill="#14261c" stroke="#cdd3d9" stroke-width="2.5"/><circle cx="62" cy="108" r="3.25" fill="#14261c" stroke="#cdd3d9" stroke-width="2.5"/><circle cx="82" cy="108" r="3.25" fill="#14261c" stroke="#cdd3d9" stroke-width="2.5"/><circle cx="102" cy="108" r="3.25" fill="#14261c" stroke="#cdd3d9" stroke-width="2.5"/><circle cx="122" cy="108" r="3.25" fill="#14261c" stroke="#cdd3d9" stroke-width="2.5"/><circle cx="142" cy="108" r="3.25" fill="#14261c" stroke="#cdd3d9" stroke-width="2.5"/><circle cx="162" cy="108" r="3.25" fill="#14261c" stroke="#cdd3d9" stroke-width="2.5"/><circle cx="182" cy="108" r="3.25" fill="#14261c" stroke="#cdd3d9" stroke-width="2.5"/><circle cx="202" cy="108" r="3.25" fill="#14261c" stroke="#cdd3d9" stroke-width="2.5"/><circle cx="222" cy="108" r="3.25" fill="#14261c" stroke="#cdd3d9" stroke-width="2.5"/><circle cx="242" cy="108" r="3.25" fill="#14261c" stroke="#cdd3d9" stroke-width="2.5"/><circle cx="262" cy="108" r="3.25" fill="#14261c" stroke="#cdd3d9" stroke-width="2.5"/><circle cx="282" cy="108" r="3.25" fill="#14261c" stroke="#cdd3d9" stroke-width="2.5"/><circle cx="302" cy="108" r="3.25" fill="#14261c" stroke="#cdd3d9" stroke-width="2.5"/><circle cx="322" cy="108" r="3.25" fill="#14261c" stroke="#cdd3d9" stroke-width="2.5"/><circle cx="342" cy="108" r="3.25" fill="#14261c" stroke="#cdd3d9" stroke-width="2.5"/><circle cx="362" cy="108" r="3.25" fill="#14261c" stroke="#cdd3d9" stroke-width="2.5"/><circle cx="382" cy="108" r="3.25" fill="#14261c" stroke="#cdd3d9" stroke-width="2.5"/><circle cx="402" cy="108" r="3.25" fill="#14261c" stroke="#cdd3d9" stroke-width="2.5"/><circle cx="422" cy="108" r="3.25" fill="#14261c" stroke="#cdd3d9" stroke-width="2.5"/><circle cx="442" cy="108" r="3.25" fill="#14261c" stroke="#cdd3d9" stroke-width="2.5"/><circle cx="62" cy="128" r="3.25" fill="#14261c" stroke="#cdd3d9" stroke-width="2.5"/><circle cx="82" cy="128" r="3.25" fill="#14261c" stroke="#cdd3d9" stroke-width="2.5"/><circle cx="102" cy="128" r="3.25" fill="#14261c" stroke="#cdd3d9" stroke-width="2.5"/><circle cx="122" cy="128" r="3.25" fill="#14261c" stroke="#cdd3d9" stroke-width="2.5"/><circle cx="142" cy="128" r="3.25" fill="#14261c" stroke="#cdd3d9" stroke-width="2.5"/><circle cx="162" cy="128" r="3.25" fill="#14261c" stroke="#cdd3d9" stroke-width="2.5"/><circle cx="182" cy="128" r="3.25" fill="#14261c" stroke="#cdd3d9" stroke-width="2.5"/><circle cx="202" cy="128" r="3.25" fill="#14261c" stroke="#cdd3d9" stroke-width="2.5"/><circle cx="222" cy="128" r="3.25" fill="#14261c" stroke="#cdd3d9" stroke-width="2.5"/><circle cx="242" cy="128" r="3.25" fill="#14261c" stroke="#cdd3d9" stroke-width="2.5"/><circle cx="262" cy="128" r="3.25" fill="#14261c" stroke="#cdd3d9" stroke-width="2.5"/><circle cx="282" cy="128" r="3.25" fill="#14261c" stroke="#cdd3d9" stroke-width="2.5"/><circle cx="302" cy="128" r="3.25" fill="#14261c" stroke="#cdd3d9" stroke-width="2.5"/><circle cx="322" cy="128" r="3.25" fill="#14261c" stroke="#cdd3d9" stroke-width="2.5"/><circle cx="342" cy="128" r="3.25" fill="#14261c" stroke="#cdd3d9" stroke-width="2.5"/><circle cx="362" cy="128" r="3.25" fill="#14261c" stroke="#cdd3d9" stroke-width="2.5"/><circle cx="382" cy="128" r="3.25" fill="#14261c" stroke="#cdd3d9" stroke-width="2.5"/><circle cx="402" cy="128" r="3.25" fill="#14261c" stroke="#cdd3d9" stroke-width="2.5"/><circle cx="422" cy="128" r="3.25" fill="#14261c" stroke="#cdd3d9" stroke-width="2.5"/><circle cx="442" cy="128" r="3.25" fill="#14261c" stroke="#cdd3d9" stroke-width="2.5"/><circle cx="62" cy="148" r="3.25" fill="#14261c" stroke="#cdd3d9" stroke-width="2.5"/><circle cx="82" cy="148" r="3.25" fill="#14261c" stroke="#cdd3d9" stroke-width="2.5"/><circle cx="102" cy="148" r="3.25" fill="#14261c" stroke="#cdd3d9" stroke-width="2.5"/><circle cx="122" cy="148" r="3.25" fill="#14261c" stroke="#cdd3d9" stroke-width="2.5"/><circle cx="142" cy="148" r="3.25" fill="#14261c" stroke="#cdd3d9" stroke-width="2.5"/><circle cx="162" cy="148" r="3.25" fill="#14261c" stroke="#cdd3d9" stroke-width="2.5"/><circle cx="182" cy="148" r="3.25" fill="#14261c" stroke="#cdd3d9" stroke-width="2.5"/><circle cx="202" cy="148" r="3.25" fill="#14261c" stroke="#cdd3d9" stroke-width="2.5"/><circle cx="222" cy="148" r="3.25" fill="#14261c" stroke="#cdd3d9" stroke-width="2.5"/><circle cx="242" cy="148" r="3.25" fill="#14261c" stroke="#cdd3d9" stroke-width="2.5"/><circle cx="262" cy="148" r="3.25" fill="#14261c" stroke="#cdd3d9" stroke-width="2.5"/><circle cx="282" cy="148" r="3.25" fill="#14261c" stroke="#cdd3d9" stroke-width="2.5"/><circle cx="302" cy="148" r="3.25" fill="#14261c" stroke="#cdd3d9" stroke-width="2.5"/><circle cx="322" cy="148" r="3.25" fill="#14261c" stroke="#cdd3d9" stroke-width="2.5"/><circle cx="342" cy="148" r="3.25" fill="#14261c" stroke="#cdd3d9" stroke-width="2.5"/><circle cx="362" cy="148" r="3.25" fill="#14261c" stroke="#cdd3d9" stroke-width="2.5"/><circle cx="382" cy="148" r="3.25" fill="#14261c" stroke="#cdd3d9" stroke-width="2.5"/><circle cx="402" cy="148" r="3.25" fill="#14261c" stroke="#cdd3d9" stroke-width="2.5"/><circle cx="422" cy="148" r="3.25" fill="#14261c" stroke="#cdd3d9" stroke-width="2.5"/><circle cx="442" cy="148" r="3.25" fill="#14261c" stroke="#cdd3d9" stroke-width="2.5"/><circle cx="62" cy="168" r="3.25" fill="#14261c" stroke="#cdd3d9" stroke-width="2.5"/><circle cx="82" cy="168" r="3.25" fill="#14261c" stroke="#cdd3d9" stroke-width="2.5"/><circle cx="102" cy="168" r="3.25" fill="#14261c" stroke="#cdd3d9" stroke-width="2.5"/><circle cx="122" cy="168" r="3.25" fill="#14261c" stroke="#cdd3d9" stroke-width="2.5"/><circle cx="142" cy="168" r="3.25" fill="#14261c" stroke="#cdd3d9" stroke-width="2.5"/><circle cx="162" cy="168" r="3.25" fill="#14261c" stroke="#cdd3d9" stroke-width="2.5"/><circle cx="182" cy="168" r="3.25" fill="#14261c" stroke="#cdd3d9" stroke-width="2.5"/><circle cx="202" cy="168" r="3.25" fill="#14261c" stroke="#cdd3d9" stroke-width="2.5"/><circle cx="222" cy="168" r="3.25" fill="#14261c" stroke="#cdd3d9" stroke-width="2.5"/><circle cx="242" cy="168" r="3.25" fill="#14261c" stroke="#cdd3d9" stroke-width="2.5"/><circle cx="262" cy="168" r="3.25" fill="#14261c" stroke="#cdd3d9" stroke-width="2.5"/><circle cx="282" cy="168" r="3.25" fill="#14261c" stroke="#cdd3d9" stroke-width="2.5"/><circle cx="302" cy="168" r="3.25" fill="#14261c" stroke="#cdd3d9" stroke-width="2.5"/><circle cx="322" cy="168" r="3.25" fill="#14261c" stroke="#cdd3d9" stroke-width="2.5"/><circle cx="342" cy="168" r="3.25" fill="#14261c" stroke="#cdd3d9" stroke-width="2.5"/><circle cx="362" cy="168" r="3.25" fill="#14261c" stroke="#cdd3d9" stroke-width="2.5"/><circle cx="382" cy="168" r="3.25" fill="#14261c" stroke="#cdd3d9" stroke-width="2.5"/><circle cx="402" cy="168" r="3.25" fill="#14261c" stroke="#cdd3d9" stroke-width="2.5"/><circle cx="422" cy="168" r="3.25" fill="#14261c" stroke="#cdd3d9" stroke-width="2.5"/><circle cx="442" cy="168" r="3.25" fill="#14261c" stroke="#cdd3d9" stroke-width="2.5"/><circle cx="62" cy="188" r="3.25" fill="#14261c" stroke="#cdd3d9" stroke-width="2.5"/><circle cx="82" cy="188" r="3.25" fill="#14261c" stroke="#cdd3d9" stroke-width="2.5"/><circle cx="102" cy="188" r="3.25" fill="#14261c" stroke="#cdd3d9" stroke-width="2.5"/><circle cx="122" cy="188" r="3.25" fill="#14261c" stroke="#cdd3d9" stroke-width="2.5"/><circle cx="142" cy="188" r="3.25" fill="#14261c" stroke="#cdd3d9" stroke-width="2.5"/><circle cx="162" cy="188" r="3.25" fill="#14261c" stroke="#cdd3d9" stroke-width="2.5"/><circle cx="182" cy="188" r="3.25" fill="#14261c" stroke="#cdd3d9" stroke-width="2.5"/><circle cx="202" cy="188" r="3.25" fill="#14261c" stroke="#cdd3d9" stroke-width="2.5"/><circle cx="222" cy="188" r="3.25" fill="#14261c" stroke="#cdd3d9" stroke-width="2.5"/><circle cx="242" cy="188" r="3.25" fill="#14261c" stroke="#cdd3d9" stroke-width="2.5"/><circle cx="262" cy="188" r="3.25" fill="#14261c" stroke="#cdd3d9" stroke-width="2.5"/><circle cx="282" cy="188" r="3.25" fill="#14261c" stroke="#cdd3d9" stroke-width="2.5"/><circle cx="302" cy="188" r="3.25" fill="#14261c" stroke="#cdd3d9" stroke-width="2.5"/><circle cx="322" cy="188" r="3.25" fill="#14261c" stroke="#cdd3d9" stroke-width="2.5"/><circle cx="342" cy="188" r="3.25" fill="#14261c" stroke="#cdd3d9" stroke-width="2.5"/><circle cx="362" cy="188" r="3.25" fill="#14261c" stroke="#cdd3d9" stroke-width="2.5"/><circle cx="382" cy="188" r="3.25" fill="#14261c" stroke="#cdd3d9" stroke-width="2.5"/><circle cx="402" cy="188" r="3.25" fill="#14261c" stroke="#cdd3d9" stroke-width="2.5"/><circle cx="422" cy="188" r="3.25" fill="#14261c" stroke="#cdd3d9" stroke-width="2.5"/><circle cx="442" cy="188" r="3.25" fill="#14261c" stroke="#cdd3d9" stroke-width="2.5"/><circle cx="62" cy="208" r="3.25" fill="#14261c" stroke="#cdd3d9" stroke-width="2.5"/><circle cx="82" cy="208" r="3.25" fill="#14261c" stroke="#cdd3d9" stroke-width="2.5"/><circle cx="102" cy="208" r="3.25" fill="#14261c" stroke="#cdd3d9" stroke-width="2.5"/><circle cx="122" cy="208" r="3.25" fill="#14261c" stroke="#cdd3d9" stroke-width="2.5"/><circle cx="142" cy="208" r="3.25" fill="#14261c" stroke="#cdd3d9" stroke-width="2.5"/><circle cx="162" cy="208" r="3.25" fill="#14261c" stroke="#cdd3d9" stroke-width="2.5"/><circle cx="182" cy="208" r="3.25" fill="#14261c" stroke="#cdd3d9" stroke-width="2.5"/><circle cx="202" cy="208" r="3.25" fill="#14261c" stroke="#cdd3d9" stroke-width="2.5"/><circle cx="222" cy="208" r="3.25" fill="#14261c" stroke="#cdd3d9" stroke-width="2.5"/><circle cx="242" cy="208" r="3.25" fill="#14261c" stroke="#cdd3d9" stroke-width="2.5"/><circle cx="262" cy="208" r="3.25" fill="#14261c" stroke="#cdd3d9" stroke-width="2.5"/><circle cx="282" cy="208" r="3.25" fill="#14261c" stroke="#cdd3d9" stroke-width="2.5"/><circle cx="302" cy="208" r="3.25" fill="#14261c" stroke="#cdd3d9" stroke-width="2.5"/><circle cx="322" cy="208" r="3.25" fill="#14261c" stroke="#cdd3d9" stroke-width="2.5"/><circle cx="342" cy="208" r="3.25" fill="#14261c" stroke="#cdd3d9" stroke-width="2.5"/><circle cx="362" cy="208" r="3.25" fill="#14261c" stroke="#cdd3d9" stroke-width="2.5"/><circle cx="382" cy="208" r="3.25" fill="#14261c" stroke="#cdd3d9" stroke-width="2.5"/><circle cx="402" cy="208" r="3.25" fill="#14261c" stroke="#cdd3d9" stroke-width="2.5"/><circle cx="422" cy="208" r="3.25" fill="#14261c" stroke="#cdd3d9" stroke-width="2.5"/><circle cx="442" cy="208" r="3.25" fill="#14261c" stroke="#cdd3d9" stroke-width="2.5"/><circle cx="62" cy="228" r="3.25" fill="#14261c" stroke="#cdd3d9" stroke-width="2.5"/><circle cx="82" cy="228" r="3.25" fill="#14261c" stroke="#cdd3d9" stroke-width="2.5"/><circle cx="102" cy="228" r="3.25" fill="#14261c" stroke="#cdd3d9" stroke-width="2.5"/><circle cx="122" cy="228" r="3.25" fill="#14261c" stroke="#cdd3d9" stroke-width="2.5"/><circle cx="142" cy="228" r="3.25" fill="#14261c" stroke="#cdd3d9" stroke-width="2.5"/><circle cx="162" cy="228" r="3.25" fill="#14261c" stroke="#cdd3d9" stroke-width="2.5"/><circle cx="182" cy="228" r="3.25" fill="#14261c" stroke="#cdd3d9" stroke-width="2.5"/><circle cx="202" cy="228" r="3.25" fill="#14261c" stroke="#cdd3d9" stroke-width="2.5"/><circle cx="222" cy="228" r="3.25" fill="#14261c" stroke="#cdd3d9" stroke-width="2.5"/><circle cx="242" cy="228" r="3.25" fill="#14261c" stroke="#cdd3d9" stroke-width="2.5"/><circle cx="262" cy="228" r="3.25" fill="#14261c" stroke="#cdd3d9" stroke-width="2.5"/><circle cx="282" cy="228" r="3.25" fill="#14261c" stroke="#cdd3d9" stroke-width="2.5"/><circle cx="302" cy="228" r="3.25" fill="#14261c" stroke="#cdd3d9" stroke-width="2.5"/><circle cx="322" cy="228" r="3.25" fill="#14261c" stroke="#cdd3d9" stroke-width="2.5"/><circle cx="342" cy="228" r="3.25" fill="#14261c" stroke="#cdd3d9" stroke-width="2.5"/><circle cx="362" cy="228" r="3.25" fill="#14261c" stroke="#cdd3d9" stroke-width="2.5"/><circle cx="382" cy="228" r="3.25" fill="#14261c" stroke="#cdd3d9" stroke-width="2.5"/><circle cx="402" cy="228" r="3.25" fill="#14261c" stroke="#cdd3d9" stroke-width="2.5"/><circle cx="422" cy="228" r="3.25" fill="#14261c" stroke="#cdd3d9" stroke-width="2.5"/><circle cx="442" cy="228" r="3.25" fill="#14261c" stroke="#cdd3d9" stroke-width="2.5"/><circle cx="62" cy="248" r="3.25" fill="#14261c" stroke="#cdd3d9" stroke-width="2.5"/><circle cx="82" cy="248" r="3.25" fill="#14261c" stroke="#cdd3d9" stroke-width="2.5"/><circle cx="102" cy="248" r="3.25" fill="#14261c" stroke="#cdd3d9" stroke-width="2.5"/><circle cx="122" cy="248" r="3.25" fill="#14261c" stroke="#cdd3d9" stroke-width="2.5"/><circle cx="142" cy="248" r="3.25" fill="#14261c" stroke="#cdd3d9" stroke-width="2.5"/><circle cx="162" cy="248" r="3.25" fill="#14261c" stroke="#cdd3d9" stroke-width="2.5"/><circle cx="182" cy="248" r="3.25" fill="#14261c" stroke="#cdd3d9" stroke-width="2.5"/><circle cx="202" cy="248" r="3.25" fill="#14261c" stroke="#cdd3d9" stroke-width="2.5"/><circle cx="222" cy="248" r="3.25" fill="#14261c" stroke="#cdd3d9" stroke-width="2.5"/><circle cx="242" cy="248" r="3.25" fill="#14261c" stroke="#cdd3d9" stroke-width="2.5"/><circle cx="262" cy="248" r="3.25" fill="#14261c" stroke="#cdd3d9" stroke-width="2.5"/><circle cx="282" cy="248" r="3.25" fill="#14261c" stroke="#cdd3d9" stroke-width="2.5"/><circle cx="302" cy="248" r="3.25" fill="#14261c" stroke="#cdd3d9" stroke-width="2.5"/><circle cx="322" cy="248" r="3.25" fill="#14261c" stroke="#cdd3d9" stroke-width="2.5"/><circle cx="342" cy="248" r="3.25" fill="#14261c" stroke="#cdd3d9" stroke-width="2.5"/><circle cx="362" cy="248" r="3.25" fill="#14261c" stroke="#cdd3d9" stroke-width="2.5"/><circle cx="382" cy="248" r="3.25" fill="#14261c" stroke="#cdd3d9" stroke-width="2.5"/><circle cx="402" cy="248" r="3.25" fill="#14261c" stroke="#cdd3d9" stroke-width="2.5"/><circle cx="422" cy="248" r="3.25" fill="#14261c" stroke="#cdd3d9" stroke-width="2.5"/><circle cx="442" cy="248" r="3.25" fill="#14261c" stroke="#cdd3d9" stroke-width="2.5"/><circle cx="62" cy="268" r="3.25" fill="#14261c" stroke="#cdd3d9" stroke-width="2.5"/><circle cx="82" cy="268" r="3.25" fill="#14261c" stroke="#cdd3d9" stroke-width="2.5"/><circle cx="102" cy="268" r="3.25" fill="#14261c" stroke="#cdd3d9" stroke-width="2.5"/><circle cx="122" cy="268" r="3.25" fill="#14261c" stroke="#cdd3d9" stroke-width="2.5"/><circle cx="142" cy="268" r="3.25" fill="#14261c" stroke="#cdd3d9" stroke-width="2.5"/><circle cx="162" cy="268" r="3.25" fill="#14261c" stroke="#cdd3d9" stroke-width="2.5"/><circle cx="182" cy="268" r="3.25" fill="#14261c" stroke="#cdd3d9" stroke-width="2.5"/><circle cx="202" cy="268" r="3.25" fill="#14261c" stroke="#cdd3d9" stroke-width="2.5"/><circle cx="222" cy="268" r="3.25" fill="#14261c" stroke="#cdd3d9" stroke-width="2.5"/><circle cx="242" cy="268" r="3.25" fill="#14261c" stroke="#cdd3d9" stroke-width="2.5"/><circle cx="262" cy="268" r="3.25" fill="#14261c" stroke="#cdd3d9" stroke-width="2.5"/><circle cx="282" cy="268" r="3.25" fill="#14261c" stroke="#cdd3d9" stroke-width="2.5"/><circle cx="302" cy="268" r="3.25" fill="#14261c" stroke="#cdd3d9" stroke-width="2.5"/><circle cx="322" cy="268" r="3.25" fill="#14261c" stroke="#cdd3d9" stroke-width="2.5"/><circle cx="342" cy="268" r="3.25" fill="#14261c" stroke="#cdd3d9" stroke-width="2.5"/><circle cx="362" cy="268" r="3.25" fill="#14261c" stroke="#cdd3d9" stroke-width="2.5"/><circle cx="382" cy="268" r="3.25" fill="#14261c" stroke="#cdd3d9" stroke-width="2.5"/><circle cx="402" cy="268" r="3.25" fill="#14261c" stroke="#cdd3d9" stroke-width="2.5"/><circle cx="422" cy="268" r="3.25" fill="#14261c" stroke="#cdd3d9" stroke-width="2.5"/><circle cx="442" cy="268" r="3.25" fill="#14261c" stroke="#cdd3d9" stroke-width="2.5"/><circle cx="62" cy="288" r="3.25" fill="#14261c" stroke="#cdd3d9" stroke-width="2.5"/><circle cx="82" cy="288" r="3.25" fill="#14261c" stroke="#cdd3d9" stroke-width="2.5"/><circle cx="102" cy="288" r="3.25" fill="#14261c" stroke="#cdd3d9" stroke-width="2.5"/><circle cx="122" cy="288" r="3.25" fill="#14261c" stroke="#cdd3d9" stroke-width="2.5"/><circle cx="142" cy="288" r="3.25" fill="#14261c" stroke="#cdd3d9" stroke-width="2.5"/><circle cx="162" cy="288" r="3.25" fill="#14261c" stroke="#cdd3d9" stroke-width="2.5"/><circle cx="182" cy="288" r="3.25" fill="#14261c" stroke="#cdd3d9" stroke-width="2.5"/><circle cx="202" cy="288" r="3.25" fill="#14261c" stroke="#cdd3d9" stroke-width="2.5"/><circle cx="222" cy="288" r="3.25" fill="#14261c" stroke="#cdd3d9" stroke-width="2.5"/><circle cx="242" cy="288" r="3.25" fill="#14261c" stroke="#cdd3d9" stroke-width="2.5"/><circle cx="262" cy="288" r="3.25" fill="#14261c" stroke="#cdd3d9" stroke-width="2.5"/><circle cx="282" cy="288" r="3.25" fill="#14261c" stroke="#cdd3d9" stroke-width="2.5"/><circle cx="302" cy="288" r="3.25" fill="#14261c" stroke="#cdd3d9" stroke-width="2.5"/><circle cx="322" cy="288" r="3.25" fill="#14261c" stroke="#cdd3d9" stroke-width="2.5"/><circle cx="342" cy="288" r="3.25" fill="#14261c" stroke="#cdd3d9" stroke-width="2.5"/><circle cx="362" cy="288" r="3.25" fill="#14261c" stroke="#cdd3d9" stroke-width="2.5"/><circle cx="382" cy="288" r="3.25" fill="#14261c" stroke="#cdd3d9" stroke-width="2.5"/><circle cx="402" cy="288" r="3.25" fill="#14261c" stroke="#cdd3d9" stroke-width="2.5"/><circle cx="422" cy="288" r="3.25" fill="#14261c" stroke="#cdd3d9" stroke-width="2.5"/><circle cx="442" cy="288" r="3.25" fill="#14261c" stroke="#cdd3d9" stroke-width="2.5"/><circle cx="62" cy="308" r="3.25" fill="#14261c" stroke="#cdd3d9" stroke-width="2.5"/><circle cx="82" cy="308" r="3.25" fill="#14261c" stroke="#cdd3d9" stroke-width="2.5"/><circle cx="102" cy="308" r="3.25" fill="#14261c" stroke="#cdd3d9" stroke-width="2.5"/><circle cx="122" cy="308" r="3.25" fill="#14261c" stroke="#cdd3d9" stroke-width="2.5"/><circle cx="142" cy="308" r="3.25" fill="#14261c" stroke="#cdd3d9" stroke-width="2.5"/><circle cx="162" cy="308" r="3.25" fill="#14261c" stroke="#cdd3d9" stroke-width="2.5"/><circle cx="182" cy="308" r="3.25" fill="#14261c" stroke="#cdd3d9" stroke-width="2.5"/><circle cx="202" cy="308" r="3.25" fill="#14261c" stroke="#cdd3d9" stroke-width="2.5"/><circle cx="222" cy="308" r="3.25" fill="#14261c" stroke="#cdd3d9" stroke-width="2.5"/><circle cx="242" cy="308" r="3.25" fill="#14261c" stroke="#cdd3d9" stroke-width="2.5"/><circle cx="262" cy="308" r="3.25" fill="#14261c" stroke="#cdd3d9" stroke-width="2.5"/><circle cx="282" cy="308" r="3.25" fill="#14261c" stroke="#cdd3d9" stroke-width="2.5"/><circle cx="302" cy="308" r="3.25" fill="#14261c" stroke="#cdd3d9" stroke-width="2.5"/><circle cx="322" cy="308" r="3.25" fill="#14261c" stroke="#cdd3d9" stroke-width="2.5"/><circle cx="342" cy="308" r="3.25" fill="#14261c" stroke="#cdd3d9" stroke-width="2.5"/><circle cx="362" cy="308" r="3.25" fill="#14261c" stroke="#cdd3d9" stroke-width="2.5"/><circle cx="382" cy="308" r="3.25" fill="#14261c" stroke="#cdd3d9" stroke-width="2.5"/><circle cx="402" cy="308" r="3.25" fill="#14261c" stroke="#cdd3d9" stroke-width="2.5"/><circle cx="422" cy="308" r="3.25" fill="#14261c" stroke="#cdd3d9" stroke-width="2.5"/><circle cx="442" cy="308" r="3.25" fill="#14261c" stroke="#cdd3d9" stroke-width="2.5"/><circle cx="62" cy="328" r="3.25" fill="#14261c" stroke="#cdd3d9" stroke-width="2.5"/><circle cx="82" cy="328" r="3.25" fill="#14261c" stroke="#cdd3d9" stroke-width="2.5"/><circle cx="102" cy="328" r="3.25" fill="#14261c" stroke="#cdd3d9" stroke-width="2.5"/><circle cx="122" cy="328" r="3.25" fill="#14261c" stroke="#cdd3d9" stroke-width="2.5"/><circle cx="142" cy="328" r="3.25" fill="#14261c" stroke="#cdd3d9" stroke-width="2.5"/><circle cx="162" cy="328" r="3.25" fill="#14261c" stroke="#cdd3d9" stroke-width="2.5"/><circle cx="182" cy="328" r="3.25" fill="#14261c" stroke="#cdd3d9" stroke-width="2.5"/><circle cx="202" cy="328" r="3.25" fill="#14261c" stroke="#cdd3d9" stroke-width="2.5"/><circle cx="222" cy="328" r="3.25" fill="#14261c" stroke="#cdd3d9" stroke-width="2.5"/><circle cx="242" cy="328" r="3.25" fill="#14261c" stroke="#cdd3d9" stroke-width="2.5"/><circle cx="262" cy="328" r="3.25" fill="#14261c" stroke="#cdd3d9" stroke-width="2.5"/><circle cx="282" cy="328" r="3.25" fill="#14261c" stroke="#cdd3d9" stroke-width="2.5"/><circle cx="302" cy="328" r="3.25" fill="#14261c" stroke="#cdd3d9" stroke-width="2.5"/><circle cx="322" cy="328" r="3.25" fill="#14261c" stroke="#cdd3d9" stroke-width="2.5"/><circle cx="342" cy="328" r="3.25" fill="#14261c" stroke="#cdd3d9" stroke-width="2.5"/><circle cx="362" cy="328" r="3.25" fill="#14261c" stroke="#cdd3d9" stroke-width="2.5"/><circle cx="382" cy="328" r="3.25" fill="#14261c" stroke="#cdd3d9" stroke-width="2.5"/><circle cx="402" cy="328" r="3.25" fill="#14261c" stroke="#cdd3d9" stroke-width="2.5"/><circle cx="422" cy="328" r="3.25" fill="#14261c" stroke="#cdd3d9" stroke-width="2.5"/><circle cx="442" cy="328" r="3.25" fill="#14261c" stroke="#cdd3d9" stroke-width="2.5"/><text x="22" y="68" text-anchor="middle" font-family="ui-sans-serif, system-ui, sans-serif" fill="#6d6552" font-size="9" dominant-baseline="middle">A</text><text x="22" y="88" text-anchor="middle" font-family="ui-sans-serif, system-ui, sans-serif" fill="#6d6552" font-size="9" dominant-baseline="middle">B</text><text x="22" y="108" text-anchor="middle" font-family="ui-sans-serif, system-ui, sans-serif" fill="#6d6552" font-size="9" dominant-baseline="middle">C</text><text x="22" y="128" text-anchor="middle" font-family="ui-sans-serif, system-ui, sans-serif" fill="#6d6552" font-size="9" dominant-baseline="middle">D</text><text x="22" y="148" text-anchor="middle" font-family="ui-sans-serif, system-ui, sans-serif" fill="#6d6552" font-size="9" dominant-baseline="middle">E</text><text x="22" y="168" text-anchor="middle" font-family="ui-sans-serif, system-ui, sans-serif" fill="#6d6552" font-size="9" dominant-baseline="middle">F</text><text x="22" y="188" text-anchor="middle" font-family="ui-sans-serif, system-ui, sans-serif" fill="#6d6552" font-size="9" dominant-baseline="middle">G</text><text x="22" y="208" text-anchor="middle" font-family="ui-sans-serif, system-ui, sans-serif" fill="#6d6552" font-size="9" dominant-baseline="middle">H</text><text x="22" y="228" text-anchor="middle" font-family="ui-sans-serif, system-ui, sans-serif" fill="#6d6552" font-size="9" dominant-baseline="middle">I</text><text x="22" y="248" text-anchor="middle" font-family="ui-sans-serif, system-ui, sans-serif" fill="#6d6552" font-size="9" dominant-baseline="middle">J</text><text x="22" y="268" text-anchor="middle" font-family="ui-sans-serif, system-ui, sans-serif" fill="#6d6552" font-size="9" dominant-baseline="middle">K</text><text x="22" y="288" text-anchor="middle" font-family="ui-sans-serif, system-ui, sans-serif" fill="#6d6552" font-size="9" dominant-baseline="middle">L</text><text x="22" y="308" text-anchor="middle" font-family="ui-sans-serif, system-ui, sans-serif" fill="#6d6552" font-size="9" dominant-baseline="middle">M</text><text x="22" y="328" text-anchor="middle" font-family="ui-sans-serif, system-ui, sans-serif" fill="#6d6552" font-size="9" dominant-baseline="middle">N</text><text x="62" y="48" text-anchor="middle" font-family="ui-sans-serif, system-ui, sans-serif" fill="#6d6552" font-size="9">1</text><text x="82" y="48" text-anchor="middle" font-family="ui-sans-serif, system-ui, sans-serif" fill="#6d6552" font-size="9">2</text><text x="102" y="48" text-anchor="middle" font-family="ui-sans-serif, system-ui, sans-serif" fill="#6d6552" font-size="9">3</text><text x="122" y="48" text-anchor="middle" font-family="ui-sans-serif, system-ui, sans-serif" fill="#6d6552" font-size="9">4</text><text x="142" y="48" text-anchor="middle" font-family="ui-sans-serif, system-ui, sans-serif" fill="#6d6552" font-size="9">5</text><text x="162" y="48" text-anchor="middle" font-family="ui-sans-serif, system-ui, sans-serif" fill="#6d6552" font-size="9">6</text><text x="182" y="48" text-anchor="middle" font-family="ui-sans-serif, system-ui, sans-serif" fill="#6d6552" font-size="9">7</text><text x="202" y="48" text-anchor="middle" font-family="ui-sans-serif, system-ui, sans-serif" fill="#6d6552" font-size="9">8</text><text x="222" y="48" text-anchor="middle" font-family="ui-sans-serif, system-ui, sans-serif" fill="#6d6552" font-size="9">9</text><text x="242" y="48" text-anchor="middle" font-family="ui-sans-serif, system-ui, sans-serif" fill="#6d6552" font-size="9">10</text><text x="262" y="48" text-anchor="middle" font-family="ui-sans-serif, system-ui, sans-serif" fill="#6d6552" font-size="9">11</text><text x="282" y="48" text-anchor="middle" font-family="ui-sans-serif, system-ui, sans-serif" fill="#6d6552" font-size="9">12</text><text x="302" y="48" text-anchor="middle" font-family="ui-sans-serif, system-ui, sans-serif" fill="#6d6552" font-size="9">13</text><text x="322" y="48" text-anchor="middle" font-family="ui-sans-serif, system-ui, sans-serif" fill="#6d6552" font-size="9">14</text><text x="342" y="48" text-anchor="middle" font-family="ui-sans-serif, system-ui, sans-serif" fill="#6d6552" font-size="9">15</text><text x="362" y="48" text-anchor="middle" font-family="ui-sans-serif, system-ui, sans-serif" fill="#6d6552" font-size="9">16</text><text x="382" y="48" text-anchor="middle" font-family="ui-sans-serif, system-ui, sans-serif" fill="#6d6552" font-size="9">17</text><text x="402" y="48" text-anchor="middle" font-family="ui-sans-serif, system-ui, sans-serif" fill="#6d6552" font-size="9">18</text><text x="422" y="48" text-anchor="middle" font-family="ui-sans-serif, system-ui, sans-serif" fill="#6d6552" font-size="9">19</text><text x="442" y="48" text-anchor="middle" font-family="ui-sans-serif, system-ui, sans-serif" fill="#6d6552" font-size="9">20</text><rect x="37" y="64" width="10" height="8" rx="3" fill="#cdd3d9" stroke="#1d4f31" stroke-width="1"/><rect x="457" y="64" width="10" height="8" rx="3" fill="#cdd3d9" stroke="#1d4f31" stroke-width="1"/><rect x="37" y="84" width="10" height="8" rx="3" fill="#cdd3d9" stroke="#1d4f31" stroke-width="1"/><rect x="457" y="84" width="10" height="8" rx="3" fill="#cdd3d9" stroke="#1d4f31" stroke-width="1"/><rect x="37" y="104" width="10" height="8" rx="3" fill="#cdd3d9" stroke="#1d4f31" stroke-width="1"/><rect x="457" y="104" width="10" height="8" rx="3" fill="#cdd3d9" stroke="#1d4f31" stroke-width="1"/><rect x="37" y="124" width="10" height="8" rx="3" fill="#cdd3d9" stroke="#1d4f31" stroke-width="1"/><rect x="457" y="124" width="10" height="8" rx="3" fill="#cdd3d9" stroke="#1d4f31" stroke-width="1"/><rect x="37" y="144" width="10" height="8" rx="3" fill="#cdd3d9" stroke="#1d4f31" stroke-width="1"/><rect x="457" y="144" width="10" height="8" rx="3" fill="#cdd3d9" stroke="#1d4f31" stroke-width="1"/><rect x="37" y="164" width="10" height="8" rx="3" fill="#cdd3d9" stroke="#1d4f31" stroke-width="1"/><rect x="457" y="164" width="10" height="8" rx="3" fill="#cdd3d9" stroke="#1d4f31" stroke-width="1"/><rect x="37" y="184" width="10" height="8" rx="3" fill="#cdd3d9" stroke="#1d4f31" stroke-width="1"/><rect x="457" y="184" width="10" height="8" rx="3" fill="#cdd3d9" stroke="#1d4f31" stroke-width="1"/><rect x="37" y="204" width="10" height="8" rx="3" fill="#cdd3d9" stroke="#1d4f31" stroke-width="1"/><rect x="457" y="204" width="10" height="8" rx="3" fill="#cdd3d9" stroke="#1d4f31" stroke-width="1"/><rect x="37" y="224" width="10" height="8" rx="3" fill="#cdd3d9" stroke="#1d4f31" stroke-width="1"/><rect x="457" y="224" width="10" height="8" rx="3" fill="#cdd3d9" stroke="#1d4f31" stroke-width="1"/><rect x="37" y="244" width="10" height="8" rx="3" fill="#cdd3d9" stroke="#1d4f31" stroke-width="1"/><rect x="457" y="244" width="10" height="8" rx="3" fill="#cdd3d9" stroke="#1d4f31" stroke-width="1"/><rect x="37" y="264" width="10" height="8" rx="3" fill="#cdd3d9" stroke="#1d4f31" stroke-width="1"/><rect x="457" y="264" width="10" height="8" rx="3" fill="#cdd3d9" stroke="#1d4f31" stroke-width="1"/><rect x="37" y="284" width="10" height="8" rx="3" fill="#cdd3d9" stroke="#1d4f31" stroke-width="1"/><rect x="457" y="284" width="10" height="8" rx="3" fill="#cdd3d9" stroke="#1d4f31" stroke-width="1"/><rect x="37" y="304" width="10" height="8" rx="3" fill="#cdd3d9" stroke="#1d4f31" stroke-width="1"/><rect x="457" y="304" width="10" height="8" rx="3" fill="#cdd3d9" stroke="#1d4f31" stroke-width="1"/><rect x="37" y="324" width="10" height="8" rx="3" fill="#cdd3d9" stroke="#1d4f31" stroke-width="1"/><rect x="457" y="324" width="10" height="8" rx="3" fill="#cdd3d9" stroke="#1d4f31" stroke-width="1"/><text x="30" y="371.2" text-anchor="start" font-family="ui-monospace, &apos;DejaVu Sans Mono&apos;, &apos;Noto Sans Mono CJK JP&apos;, monospace" fill="#2b6fd4" font-size="9" xml:space="preserve">```perfboard</text><text x="30" y="381.55" text-anchor="start" font-family="ui-monospace, &apos;DejaVu Sans Mono&apos;, &apos;Noto Sans Mono CJK JP&apos;, monospace" fill="#2b6fd4" font-size="9" xml:space="preserve">board:</text><text x="30" y="391.9" text-anchor="start" font-family="ui-monospace, &apos;DejaVu Sans Mono&apos;, &apos;Noto Sans Mono CJK JP&apos;, monospace" fill="#2b6fd4" font-size="9" xml:space="preserve">  size: 20x14</text><text x="30" y="402.25" text-anchor="start" font-family="ui-monospace, &apos;DejaVu Sans Mono&apos;, &apos;Noto Sans Mono CJK JP&apos;, monospace" fill="#2b6fd4" font-size="9" xml:space="preserve">  slots: on</text><text x="30" y="412.6" text-anchor="start" font-family="ui-monospace, &apos;DejaVu Sans Mono&apos;, &apos;Noto Sans Mono CJK JP&apos;, monospace" fill="#2b6fd4" font-size="9" xml:space="preserve">title: 図07 スロット用の銅箔</text><text x="30" y="422.95" text-anchor="start" font-family="ui-monospace, &apos;DejaVu Sans Mono&apos;, &apos;Noto Sans Mono CJK JP&apos;, monospace" fill="#2b6fd4" font-size="9" xml:space="preserve">notes:</text><text x="30" y="433.3" text-anchor="start" font-family="ui-monospace, &apos;DejaVu Sans Mono&apos;, &apos;Noto Sans Mono CJK JP&apos;, monospace" fill="#2b6fd4" font-size="9" xml:space="preserve">  - source blue</text><text x="30" y="443.65" text-anchor="start" font-family="ui-monospace, &apos;DejaVu Sans Mono&apos;, &apos;Noto Sans Mono CJK JP&apos;, monospace" fill="#2b6fd4" font-size="9" xml:space="preserve">```</text></svg>
