<svg xmlns="http://www.w3.org/2000/svg" viewBox="0 0 288 234" width="288" height="234" data-perfboard-fence="0.1.0" role="img"><text x="30" y="34" text-anchor="start" font-family="ui-sans-serif, system-ui, sans-serif" fill="#3c3730" font-size="13.5" font-weight="600">図02 3 本足の並べ方</text><rect x="30" y="56" width="244" height="164" rx="4" fill="#e8dfc4" stroke="#c9bd96" stroke-width="1"/><circle cx="42" cy="68" r="3.25" fill="#8b7f5e" stroke="#c8a44a" stroke-width="2.5"/><circle cx="62" cy="68" r="3.25" fill="#8b7f5e" stroke="#c8a44a" stroke-width="2.5"/><circle cx="82" cy="68" r="3.25" fill="#8b7f5e" stroke="#c8a44a" stroke-width="2.5"/><circle cx="102" cy="68" r="3.25" fill="#8b7f5e" stroke="#c8a44a" stroke-width="2.5"/><circle cx="122" cy="68" r="3.25" fill="#8b7f5e" stroke="#c8a44a" stroke-width="2.5"/><circle cx="142" cy="68" r="3.25" fill="#8b7f5e" stroke="#c8a44a" stroke-width="2.5"/><circle cx="162" cy="68" r="3.25" fill="#8b7f5e" stroke="#c8a44a" stroke-width="2.5"/><circle cx="182" cy="68" r="3.25" fill="#8b7f5e" stroke="#c8a44a" stroke-width="2.5"/><circle cx="202" cy="68" r="3.25" fill="#8b7f5e" stroke="#c8a44a" stroke-width="2.5"/><circle cx="222" cy="68" r="3.25" fill="#8b7f5e" stroke="#c8a44a" stroke-width="2.5"/><circle cx="242" cy="68" r="3.25" fill="#8b7f5e" stroke="#c8a44a" stroke-width="2.5"/><circle cx="262" cy="68" r="3.25" fill="#8b7f5e" stroke="#c8a44a" stroke-width="2.5"/><circle cx="42" cy="88" r="3.25" fill="#8b7f5e" stroke="#c8a44a" stroke-width="2.5"/><circle cx="62" cy="88" r="3.25" fill="#8b7f5e" stroke="#c8a44a" stroke-width="2.5"/><circle cx="82" cy="88" r="3.25" fill="#8b7f5e" stroke="#c8a44a" stroke-width="2.5"/><circle cx="102" cy="88" r="3.25" fill="#8b7f5e" stroke="#c8a44a" stroke-width="2.5"/><circle cx="122" cy="88" r="3.25" fill="#8b7f5e" stroke="#c8a44a" stroke-width="2.5"/><circle cx="142" cy="88" r="3.25" fill="#8b7f5e" stroke="#c8a44a" stroke-width="2.5"/><circle cx="162" cy="88" r="3.25" fill="#8b7f5e" stroke="#c8a44a" stroke-width="2.5"/><circle cx="182" cy="88" r="3.25" fill="#8b7f5e" stroke="#c8a44a" stroke-width="2.5"/><circle cx="202" cy="88" r="3.25" fill="#8b7f5e" stroke="#c8a44a" stroke-width="2.5"/><circle cx="222" cy="88" r="3.25" fill="#8b7f5e" stroke="#c8a44a" stroke-width="2.5"/><circle cx="242" cy="88" r="3.25" fill="#8b7f5e" stroke="#c8a44a" stroke-width="2.5"/><circle cx="262" cy="88" r="3.25" fill="#8b7f5e" stroke="#c8a44a" stroke-width="2.5"/><circle cx="42" cy="108" r="3.25" fill="#8b7f5e" stroke="#c8a44a" stroke-width="2.5"/><circle cx="62" cy="108" r="3.25" fill="#8b7f5e" stroke="#c8a44a" stroke-width="2.5"/><circle cx="82" cy="108" r="3.25" fill="#8b7f5e" stroke="#c8a44a" stroke-width="2.5"/><circle cx="102" cy="108" r="3.25" fill="#8b7f5e" stroke="#c8a44a" stroke-width="2.5"/><circle cx="122" cy="108" r="3.25" fill="#8b7f5e" stroke="#c8a44a" stroke-width="2.5"/><circle cx="142" cy="108" r="3.25" fill="#8b7f5e" stroke="#c8a44a" stroke-width="2.5"/><circle cx="162" cy="108" r="3.25" fill="#8b7f5e" stroke="#c8a44a" stroke-width="2.5"/><circle cx="182" cy="108" r="3.25" fill="#8b7f5e" stroke="#c8a44a" stroke-width="2.5"/><circle cx="202" cy="108" r="3.25" fill="#8b7f5e" stroke="#c8a44a" stroke-width="2.5"/><circle cx="222" cy="108" r="3.25" fill="#8b7f5e" stroke="#c8a44a" stroke-width="2.5"/><circle cx="242" cy="108" r="3.25" fill="#8b7f5e" stroke="#c8a44a" stroke-width="2.5"/><circle cx="262" cy="108" r="3.25" fill="#8b7f5e" stroke="#c8a44a" stroke-width="2.5"/><circle cx="42" cy="128" r="3.25" fill="#8b7f5e" stroke="#c8a44a" stroke-width="2.5"/><circle cx="62" cy="128" r="3.25" fill="#8b7f5e" stroke="#c8a44a" stroke-width="2.5"/><circle cx="82" cy="128" r="3.25" fill="#8b7f5e" stroke="#c8a44a" stroke-width="2.5"/><circle cx="102" cy="128" r="3.25" fill="#8b7f5e" stroke="#c8a44a" stroke-width="2.5"/><circle cx="122" cy="128" r="3.25" fill="#8b7f5e" stroke="#c8a44a" stroke-width="2.5"/><circle cx="142" cy="128" r="3.25" fill="#8b7f5e" stroke="#c8a44a" stroke-width="2.5"/><circle cx="162" cy="128" r="3.25" fill="#8b7f5e" stroke="#c8a44a" stroke-width="2.5"/><circle cx="182" cy="128" r="3.25" fill="#8b7f5e" stroke="#c8a44a" stroke-width="2.5"/><circle cx="202" cy="128" r="3.25" fill="#8b7f5e" stroke="#c8a44a" stroke-width="2.5"/><circle cx="222" cy="128" r="3.25" fill="#8b7f5e" stroke="#c8a44a" stroke-width="2.5"/><circle cx="242" cy="128" r="3.25" fill="#8b7f5e" stroke="#c8a44a" stroke-width="2.5"/><circle cx="262" cy="128" r="3.25" fill="#8b7f5e" stroke="#c8a44a" stroke-width="2.5"/><circle cx="42" cy="148" r="3.25" fill="#8b7f5e" stroke="#c8a44a" stroke-width="2.5"/><circle cx="62" cy="148" r="3.25" fill="#8b7f5e" stroke="#c8a44a" stroke-width="2.5"/><circle cx="82" cy="148" r="3.25" fill="#8b7f5e" stroke="#c8a44a" stroke-width="2.5"/><circle cx="102" cy="148" r="3.25" fill="#8b7f5e" stroke="#c8a44a" stroke-width="2.5"/><circle cx="122" cy="148" r="3.25" fill="#8b7f5e" stroke="#c8a44a" stroke-width="2.5"/><circle cx="142" cy="148" r="3.25" fill="#8b7f5e" stroke="#c8a44a" stroke-width="2.5"/><circle cx="162" cy="148" r="3.25" fill="#8b7f5e" stroke="#c8a44a" stroke-width="2.5"/><circle cx="182" cy="148" r="3.25" fill="#8b7f5e" stroke="#c8a44a" stroke-width="2.5"/><circle cx="202" cy="148" r="3.25" fill="#8b7f5e" stroke="#c8a44a" stroke-width="2.5"/><circle cx="222" cy="148" r="3.25" fill="#8b7f5e" stroke="#c8a44a" stroke-width="2.5"/><circle cx="242" cy="148" r="3.25" fill="#8b7f5e" stroke="#c8a44a" stroke-width="2.5"/><circle cx="262" cy="148" r="3.25" fill="#8b7f5e" stroke="#c8a44a" stroke-width="2.5"/><circle cx="42" cy="168" r="3.25" fill="#8b7f5e" stroke="#c8a44a" stroke-width="2.5"/><circle cx="62" cy="168" r="3.25" fill="#8b7f5e" stroke="#c8a44a" stroke-width="2.5"/><circle cx="82" cy="168" r="3.25" fill="#8b7f5e" stroke="#c8a44a" stroke-width="2.5"/><circle cx="102" cy="168" r="3.25" fill="#8b7f5e" stroke="#c8a44a" stroke-width="2.5"/><circle cx="122" cy="168" r="3.25" fill="#8b7f5e" stroke="#c8a44a" stroke-width="2.5"/><circle cx="142" cy="168" r="3.25" fill="#8b7f5e" stroke="#c8a44a" stroke-width="2.5"/><circle cx="162" cy="168" r="3.25" fill="#8b7f5e" stroke="#c8a44a" stroke-width="2.5"/><circle cx="182" cy="168" r="3.25" fill="#8b7f5e" stroke="#c8a44a" stroke-width="2.5"/><circle cx="202" cy="168" r="3.25" fill="#8b7f5e" stroke="#c8a44a" stroke-width="2.5"/><circle cx="222" cy="168" r="3.25" fill="#8b7f5e" stroke="#c8a44a" stroke-width="2.5"/><circle cx="242" cy="168" r="3.25" fill="#8b7f5e" stroke="#c8a44a" stroke-width="2.5"/><circle cx="262" cy="168" r="3.25" fill="#8b7f5e" stroke="#c8a44a" stroke-width="2.5"/><circle cx="42" cy="188" r="3.25" fill="#8b7f5e" stroke="#c8a44a" stroke-width="2.5"/><circle cx="62" cy="188" r="3.25" fill="#8b7f5e" stroke="#c8a44a" stroke-width="2.5"/><circle cx="82" cy="188" r="3.25" fill="#8b7f5e" stroke="#c8a44a" stroke-width="2.5"/><circle cx="102" cy="188" r="3.25" fill="#8b7f5e" stroke="#c8a44a" stroke-width="2.5"/><circle cx="122" cy="188" r="3.25" fill="#8b7f5e" stroke="#c8a44a" stroke-width="2.5"/><circle cx="142" cy="188" r="3.25" fill="#8b7f5e" stroke="#c8a44a" stroke-width="2.5"/><circle cx="162" cy="188" r="3.25" fill="#8b7f5e" stroke="#c8a44a" stroke-width="2.5"/><circle cx="182" cy="188" r="3.25" fill="#8b7f5e" stroke="#c8a44a" stroke-width="2.5"/><circle cx="202" cy="188" r="3.25" fill="#8b7f5e" stroke="#c8a44a" stroke-width="2.5"/><circle cx="222" cy="188" r="3.25" fill="#8b7f5e" stroke="#c8a44a" stroke-width="2.5"/><circle cx="242" cy="188" r="3.25" fill="#8b7f5e" stroke="#c8a44a" stroke-width="2.5"/><circle cx="262" cy="188" r="3.25" fill="#8b7f5e" stroke="#c8a44a" stroke-width="2.5"/><circle cx="42" cy="208" r="3.25" fill="#8b7f5e" stroke="#c8a44a" stroke-width="2.5"/><circle cx="62" cy="208" r="3.25" fill="#8b7f5e" stroke="#c8a44a" stroke-width="2.5"/><circle cx="82" cy="208" r="3.25" fill="#8b7f5e" stroke="#c8a44a" stroke-width="2.5"/><circle cx="102" cy="208" r="3.25" fill="#8b7f5e" stroke="#c8a44a" stroke-width="2.5"/><circle cx="122" cy="208" r="3.25" fill="#8b7f5e" stroke="#c8a44a" stroke-width="2.5"/><circle cx="142" cy="208" r="3.25" fill="#8b7f5e" stroke="#c8a44a" stroke-width="2.5"/><circle cx="162" cy="208" r="3.25" fill="#8b7f5e" stroke="#c8a44a" stroke-width="2.5"/><circle cx="182" cy="208" r="3.25" fill="#8b7f5e" stroke="#c8a44a" stroke-width="2.5"/><circle cx="202" cy="208" r="3.25" fill="#8b7f5e" stroke="#c8a44a" stroke-width="2.5"/><circle cx="222" cy="208" r="3.25" fill="#8b7f5e" stroke="#c8a44a" stroke-width="2.5"/><circle cx="242" cy="208" r="3.25" fill="#8b7f5e" stroke="#c8a44a" stroke-width="2.5"/><circle cx="262" cy="208" r="3.25" fill="#8b7f5e" stroke="#c8a44a" stroke-width="2.5"/><text x="22" y="68" text-anchor="end" font-family="ui-sans-serif, system-ui, sans-serif" fill="#6d6552" font-size="9" dominant-baseline="middle">a</text><text x="22" y="88" text-anchor="end" font-family="ui-sans-serif, system-ui, sans-serif" fill="#6d6552" font-size="9" dominant-baseline="middle">b</text><text x="22" y="108" text-anchor="end" font-family="ui-sans-serif, system-ui, sans-serif" fill="#6d6552" font-size="9" dominant-baseline="middle">c</text><text x="22" y="128" text-anchor="end" font-family="ui-sans-serif, system-ui, sans-serif" fill="#6d6552" font-size="9" dominant-baseline="middle">d</text><text x="22" y="148" text-anchor="end" font-family="ui-sans-serif, system-ui, sans-serif" fill="#6d6552" font-size="9" dominant-baseline="middle">e</text><text x="22" y="168" text-anchor="end" font-family="ui-sans-serif, system-ui, sans-serif" fill="#6d6552" font-size="9" dominant-baseline="middle">f</text><text x="22" y="188" text-anchor="end" font-family="ui-sans-serif, system-ui, sans-serif" fill="#6d6552" font-size="9" dominant-baseline="middle">g</text><text x="22" y="208" text-anchor="end" font-family="ui-sans-serif, system-ui, sans-serif" fill="#6d6552" font-size="9" dominant-baseline="middle">h</text><text x="42" y="48" text-anchor="middle" font-family="ui-sans-serif, system-ui, sans-serif" fill="#6d6552" font-size="9">1</text><text x="62" y="48" text-anchor="middle" font-family="ui-sans-serif, system-ui, sans-serif" fill="#6d6552" font-size="9">2</text><text x="82" y="48" text-anchor="middle" font-family="ui-sans-serif, system-ui, sans-serif" fill="#6d6552" font-size="9">3</text><text x="102" y="48" text-anchor="middle" font-family="ui-sans-serif, system-ui, sans-serif" fill="#6d6552" font-size="9">4</text><text x="122" y="48" text-anchor="middle" font-family="ui-sans-serif, system-ui, sans-serif" fill="#6d6552" font-size="9">5</text><text x="142" y="48" text-anchor="middle" font-family="ui-sans-serif, system-ui, sans-serif" fill="#6d6552" font-size="9">6</text><text x="162" y="48" text-anchor="middle" font-family="ui-sans-serif, system-ui, sans-serif" fill="#6d6552" font-size="9">7</text><text x="182" y="48" text-anchor="middle" font-family="ui-sans-serif, system-ui, sans-serif" fill="#6d6552" font-size="9">8</text><text x="202" y="48" text-anchor="middle" font-family="ui-sans-serif, system-ui, sans-serif" fill="#6d6552" font-size="9">9</text><text x="222" y="48" text-anchor="middle" font-family="ui-sans-serif, system-ui, sans-serif" fill="#6d6552" font-size="9">10</text><text x="242" y="48" text-anchor="middle" font-family="ui-sans-serif, system-ui, sans-serif" fill="#6d6552" font-size="9">11</text><text x="262" y="48" text-anchor="middle" font-family="ui-sans-serif, system-ui, sans-serif" fill="#6d6552" font-size="9">12</text><line x1="42" y1="68" x2="82" y2="108" stroke="#8a929c" stroke-width="3" stroke-linecap="round" stroke-opacity="0.9"/><line x1="122" y1="108" x2="82" y2="168" stroke="#8a929c" stroke-width="3" stroke-linecap="round" stroke-opacity="0.9"/><line x1="122" y1="168" x2="262" y2="68" stroke="#8a929c" stroke-width="3" stroke-linecap="round" stroke-opacity="0.9"/><line x1="102" y1="108" x2="102" y2="188" stroke="#8a929c" stroke-width="3" stroke-linecap="round" stroke-opacity="0.9"/><rect x="78.5" y="102.5" width="47" height="11" rx="3" fill="#efe4cd" stroke="#b6a887" stroke-width="1" fill-opacity="0.92"/><circle cx="82" cy="108" r="2" fill="#9aa0a6"/><circle cx="102" cy="108" r="2" fill="#9aa0a6"/><circle cx="122" cy="108" r="2" fill="#9aa0a6"/><text x="102" y="127.5" text-anchor="middle" font-family="ui-sans-serif, system-ui, sans-serif" stroke="#e8dfc4" stroke-width="3" paint-order="stroke" fill="#3c3730" font-size="9">Q1 2SC1815</text><rect x="78.5" y="164.5" width="47" height="27" rx="3" fill="#efe4cd" stroke="#b6a887" stroke-width="1" fill-opacity="0.92"/><circle cx="82" cy="168" r="2" fill="#9aa0a6"/><circle cx="102" cy="188" r="2" fill="#9aa0a6"/><circle cx="122" cy="168" r="2" fill="#9aa0a6"/><text x="102" y="205.5" text-anchor="middle" font-family="ui-sans-serif, system-ui, sans-serif" stroke="#e8dfc4" stroke-width="3" paint-order="stroke" fill="#3c3730" font-size="9">VR1 10k</text></svg>
