<svg xmlns="http://www.w3.org/2000/svg" viewBox="0 0 328 461.3" width="328" height="461.3" data-perfboard-fence="0.2.1" role="img"><rect x="0" y="0" width="328" height="461.3" fill="#1b211d"/><text x="30" y="34" text-anchor="start" font-family="ui-sans-serif, system-ui, sans-serif" fill="#dfe6e1" font-size="13.5" font-weight="600">図02 暗いテーマ</text><rect x="30" y="56" width="284" height="164" rx="4" fill="#1c4a31" stroke="#2f6b47" stroke-width="1"/><circle cx="42" cy="68" r="3.25" fill="#0d1b13" stroke="#9aa3ab" stroke-width="2.5"/><circle cx="62" cy="68" r="3.25" fill="#0d1b13" stroke="#9aa3ab" stroke-width="2.5"/><circle cx="82" cy="68" r="3.25" fill="#0d1b13" stroke="#9aa3ab" stroke-width="2.5"/><circle cx="102" cy="68" r="3.25" fill="#0d1b13" stroke="#9aa3ab" stroke-width="2.5"/><circle cx="122" cy="68" r="3.25" fill="#0d1b13" stroke="#9aa3ab" stroke-width="2.5"/><circle cx="142" cy="68" r="3.25" fill="#0d1b13" stroke="#9aa3ab" stroke-width="2.5"/><circle cx="162" cy="68" r="3.25" fill="#0d1b13" stroke="#9aa3ab" stroke-width="2.5"/><circle cx="182" cy="68" r="3.25" fill="#0d1b13" stroke="#9aa3ab" stroke-width="2.5"/><circle cx="202" cy="68" r="3.25" fill="#0d1b13" stroke="#9aa3ab" stroke-width="2.5"/><circle cx="222" cy="68" r="3.25" fill="#0d1b13" stroke="#9aa3ab" stroke-width="2.5"/><circle cx="242" cy="68" r="3.25" fill="#0d1b13" stroke="#9aa3ab" stroke-width="2.5"/><circle cx="262" cy="68" r="3.25" fill="#0d1b13" stroke="#9aa3ab" stroke-width="2.5"/><circle cx="282" cy="68" r="3.25" fill="#0d1b13" stroke="#9aa3ab" stroke-width="2.5"/><circle cx="302" cy="68" r="3.25" fill="#0d1b13" stroke="#9aa3ab" stroke-width="2.5"/><circle cx="42" cy="88" r="3.25" fill="#0d1b13" stroke="#9aa3ab" stroke-width="2.5"/><circle cx="62" cy="88" r="3.25" fill="#0d1b13" stroke="#9aa3ab" stroke-width="2.5"/><circle cx="82" cy="88" r="3.25" fill="#0d1b13" stroke="#9aa3ab" stroke-width="2.5"/><circle cx="102" cy="88" r="3.25" fill="#0d1b13" stroke="#9aa3ab" stroke-width="2.5"/><circle cx="122" cy="88" r="3.25" fill="#0d1b13" stroke="#9aa3ab" stroke-width="2.5"/><circle cx="142" cy="88" r="3.25" fill="#0d1b13" stroke="#9aa3ab" stroke-width="2.5"/><circle cx="162" cy="88" r="3.25" fill="#0d1b13" stroke="#9aa3ab" stroke-width="2.5"/><circle cx="182" cy="88" r="3.25" fill="#0d1b13" stroke="#9aa3ab" stroke-width="2.5"/><circle cx="202" cy="88" r="3.25" fill="#0d1b13" stroke="#9aa3ab" stroke-width="2.5"/><circle cx="222" cy="88" r="3.25" fill="#0d1b13" stroke="#9aa3ab" stroke-width="2.5"/><circle cx="242" cy="88" r="3.25" fill="#0d1b13" stroke="#9aa3ab" stroke-width="2.5"/><circle cx="262" cy="88" r="3.25" fill="#0d1b13" stroke="#9aa3ab" stroke-width="2.5"/><circle cx="282" cy="88" r="3.25" fill="#0d1b13" stroke="#9aa3ab" stroke-width="2.5"/><circle cx="302" cy="88" r="3.25" fill="#0d1b13" stroke="#9aa3ab" stroke-width="2.5"/><circle cx="42" cy="108" r="3.25" fill="#0d1b13" stroke="#9aa3ab" stroke-width="2.5"/><circle cx="62" cy="108" r="3.25" fill="#0d1b13" stroke="#9aa3ab" stroke-width="2.5"/><circle cx="82" cy="108" r="3.25" fill="#0d1b13" stroke="#9aa3ab" stroke-width="2.5"/><circle cx="102" cy="108" r="3.25" fill="#0d1b13" stroke="#9aa3ab" stroke-width="2.5"/><circle cx="122" cy="108" r="3.25" fill="#0d1b13" stroke="#9aa3ab" stroke-width="2.5"/><circle cx="142" cy="108" r="3.25" fill="#0d1b13" stroke="#9aa3ab" stroke-width="2.5"/><circle cx="162" cy="108" r="3.25" fill="#0d1b13" stroke="#9aa3ab" stroke-width="2.5"/><circle cx="182" cy="108" r="3.25" fill="#0d1b13" stroke="#9aa3ab" stroke-width="2.5"/><circle cx="202" cy="108" r="3.25" fill="#0d1b13" stroke="#9aa3ab" stroke-width="2.5"/><circle cx="222" cy="108" r="3.25" fill="#0d1b13" stroke="#9aa3ab" stroke-width="2.5"/><circle cx="242" cy="108" r="3.25" fill="#0d1b13" stroke="#9aa3ab" stroke-width="2.5"/><circle cx="262" cy="108" r="3.25" fill="#0d1b13" stroke="#9aa3ab" stroke-width="2.5"/><circle cx="282" cy="108" r="3.25" fill="#0d1b13" stroke="#9aa3ab" stroke-width="2.5"/><circle cx="302" cy="108" r="3.25" fill="#0d1b13" stroke="#9aa3ab" stroke-width="2.5"/><circle cx="42" cy="128" r="3.25" fill="#0d1b13" stroke="#9aa3ab" stroke-width="2.5"/><circle cx="62" cy="128" r="3.25" fill="#0d1b13" stroke="#9aa3ab" stroke-width="2.5"/><circle cx="82" cy="128" r="3.25" fill="#0d1b13" stroke="#9aa3ab" stroke-width="2.5"/><circle cx="102" cy="128" r="3.25" fill="#0d1b13" stroke="#9aa3ab" stroke-width="2.5"/><circle cx="122" cy="128" r="3.25" fill="#0d1b13" stroke="#9aa3ab" stroke-width="2.5"/><circle cx="142" cy="128" r="3.25" fill="#0d1b13" stroke="#9aa3ab" stroke-width="2.5"/><circle cx="162" cy="128" r="3.25" fill="#0d1b13" stroke="#9aa3ab" stroke-width="2.5"/><circle cx="182" cy="128" r="3.25" fill="#0d1b13" stroke="#9aa3ab" stroke-width="2.5"/><circle cx="202" cy="128" r="3.25" fill="#0d1b13" stroke="#9aa3ab" stroke-width="2.5"/><circle cx="222" cy="128" r="3.25" fill="#0d1b13" stroke="#9aa3ab" stroke-width="2.5"/><circle cx="242" cy="128" r="3.25" fill="#0d1b13" stroke="#9aa3ab" stroke-width="2.5"/><circle cx="262" cy="128" r="3.25" fill="#0d1b13" stroke="#9aa3ab" stroke-width="2.5"/><circle cx="282" cy="128" r="3.25" fill="#0d1b13" stroke="#9aa3ab" stroke-width="2.5"/><circle cx="302" cy="128" r="3.25" fill="#0d1b13" stroke="#9aa3ab" stroke-width="2.5"/><circle cx="42" cy="148" r="3.25" fill="#0d1b13" stroke="#9aa3ab" stroke-width="2.5"/><circle cx="62" cy="148" r="3.25" fill="#0d1b13" stroke="#9aa3ab" stroke-width="2.5"/><circle cx="82" cy="148" r="3.25" fill="#0d1b13" stroke="#9aa3ab" stroke-width="2.5"/><circle cx="102" cy="148" r="3.25" fill="#0d1b13" stroke="#9aa3ab" stroke-width="2.5"/><circle cx="122" cy="148" r="3.25" fill="#0d1b13" stroke="#9aa3ab" stroke-width="2.5"/><circle cx="142" cy="148" r="3.25" fill="#0d1b13" stroke="#9aa3ab" stroke-width="2.5"/><circle cx="162" cy="148" r="3.25" fill="#0d1b13" stroke="#9aa3ab" stroke-width="2.5"/><circle cx="182" cy="148" r="3.25" fill="#0d1b13" stroke="#9aa3ab" stroke-width="2.5"/><circle cx="202" cy="148" r="3.25" fill="#0d1b13" stroke="#9aa3ab" stroke-width="2.5"/><circle cx="222" cy="148" r="3.25" fill="#0d1b13" stroke="#9aa3ab" stroke-width="2.5"/><circle cx="242" cy="148" r="3.25" fill="#0d1b13" stroke="#9aa3ab" stroke-width="2.5"/><circle cx="262" cy="148" r="3.25" fill="#0d1b13" stroke="#9aa3ab" stroke-width="2.5"/><circle cx="282" cy="148" r="3.25" fill="#0d1b13" stroke="#9aa3ab" stroke-width="2.5"/><circle cx="302" cy="148" r="3.25" fill="#0d1b13" stroke="#9aa3ab" stroke-width="2.5"/><circle cx="42" cy="168" r="3.25" fill="#0d1b13" stroke="#9aa3ab" stroke-width="2.5"/><circle cx="62" cy="168" r="3.25" fill="#0d1b13" stroke="#9aa3ab" stroke-width="2.5"/><circle cx="82" cy="168" r="3.25" fill="#0d1b13" stroke="#9aa3ab" stroke-width="2.5"/><circle cx="102" cy="168" r="3.25" fill="#0d1b13" stroke="#9aa3ab" stroke-width="2.5"/><circle cx="122" cy="168" r="3.25" fill="#0d1b13" stroke="#9aa3ab" stroke-width="2.5"/><circle cx="142" cy="168" r="3.25" fill="#0d1b13" stroke="#9aa3ab" stroke-width="2.5"/><circle cx="162" cy="168" r="3.25" fill="#0d1b13" stroke="#9aa3ab" stroke-width="2.5"/><circle cx="182" cy="168" r="3.25" fill="#0d1b13" stroke="#9aa3ab" stroke-width="2.5"/><circle cx="202" cy="168" r="3.25" fill="#0d1b13" stroke="#9aa3ab" stroke-width="2.5"/><circle cx="222" cy="168" r="3.25" fill="#0d1b13" stroke="#9aa3ab" stroke-width="2.5"/><circle cx="242" cy="168" r="3.25" fill="#0d1b13" stroke="#9aa3ab" stroke-width="2.5"/><circle cx="262" cy="168" r="3.25" fill="#0d1b13" stroke="#9aa3ab" stroke-width="2.5"/><circle cx="282" cy="168" r="3.25" fill="#0d1b13" stroke="#9aa3ab" stroke-width="2.5"/><circle cx="302" cy="168" r="3.25" fill="#0d1b13" stroke="#9aa3ab" stroke-width="2.5"/><circle cx="42" cy="188" r="3.25" fill="#0d1b13" stroke="#9aa3ab" stroke-width="2.5"/><circle cx="62" cy="188" r="3.25" fill="#0d1b13" stroke="#9aa3ab" stroke-width="2.5"/><circle cx="82" cy="188" r="3.25" fill="#0d1b13" stroke="#9aa3ab" stroke-width="2.5"/><circle cx="102" cy="188" r="3.25" fill="#0d1b13" stroke="#9aa3ab" stroke-width="2.5"/><circle cx="122" cy="188" r="3.25" fill="#0d1b13" stroke="#9aa3ab" stroke-width="2.5"/><circle cx="142" cy="188" r="3.25" fill="#0d1b13" stroke="#9aa3ab" stroke-width="2.5"/><circle cx="162" cy="188" r="3.25" fill="#0d1b13" stroke="#9aa3ab" stroke-width="2.5"/><circle cx="182" cy="188" r="3.25" fill="#0d1b13" stroke="#9aa3ab" stroke-width="2.5"/><circle cx="202" cy="188" r="3.25" fill="#0d1b13" stroke="#9aa3ab" stroke-width="2.5"/><circle cx="222" cy="188" r="3.25" fill="#0d1b13" stroke="#9aa3ab" stroke-width="2.5"/><circle cx="242" cy="188" r="3.25" fill="#0d1b13" stroke="#9aa3ab" stroke-width="2.5"/><circle cx="262" cy="188" r="3.25" fill="#0d1b13" stroke="#9aa3ab" stroke-width="2.5"/><circle cx="282" cy="188" r="3.25" fill="#0d1b13" stroke="#9aa3ab" stroke-width="2.5"/><circle cx="302" cy="188" r="3.25" fill="#0d1b13" stroke="#9aa3ab" stroke-width="2.5"/><circle cx="42" cy="208" r="3.25" fill="#0d1b13" stroke="#9aa3ab" stroke-width="2.5"/><circle cx="62" cy="208" r="3.25" fill="#0d1b13" stroke="#9aa3ab" stroke-width="2.5"/><circle cx="82" cy="208" r="3.25" fill="#0d1b13" stroke="#9aa3ab" stroke-width="2.5"/><circle cx="102" cy="208" r="3.25" fill="#0d1b13" stroke="#9aa3ab" stroke-width="2.5"/><circle cx="122" cy="208" r="3.25" fill="#0d1b13" stroke="#9aa3ab" stroke-width="2.5"/><circle cx="142" cy="208" r="3.25" fill="#0d1b13" stroke="#9aa3ab" stroke-width="2.5"/><circle cx="162" cy="208" r="3.25" fill="#0d1b13" stroke="#9aa3ab" stroke-width="2.5"/><circle cx="182" cy="208" r="3.25" fill="#0d1b13" stroke="#9aa3ab" stroke-width="2.5"/><circle cx="202" cy="208" r="3.25" fill="#0d1b13" stroke="#9aa3ab" stroke-width="2.5"/><circle cx="222" cy="208" r="3.25" fill="#0d1b13" stroke="#9aa3ab" stroke-width="2.5"/><circle cx="242" cy="208" r="3.25" fill="#0d1b13" stroke="#9aa3ab" stroke-width="2.5"/><circle cx="262" cy="208" r="3.25" fill="#0d1b13" stroke="#9aa3ab" stroke-width="2.5"/><circle cx="282" cy="208" r="3.25" fill="#0d1b13" stroke="#9aa3ab" stroke-width="2.5"/><circle cx="302" cy="208" r="3.25" fill="#0d1b13" stroke="#9aa3ab" stroke-width="2.5"/><text x="22" y="68" text-anchor="middle" font-family="ui-sans-serif, system-ui, sans-serif" fill="#9aa79f" font-size="9" dominant-baseline="middle">A</text><text x="22" y="88" text-anchor="middle" font-family="ui-sans-serif, system-ui, sans-serif" fill="#9aa79f" font-size="9" dominant-baseline="middle">B</text><text x="22" y="108" text-anchor="middle" font-family="ui-sans-serif, system-ui, sans-serif" fill="#9aa79f" font-size="9" dominant-baseline="middle">C</text><text x="22" y="128" text-anchor="middle" font-family="ui-sans-serif, system-ui, sans-serif" fill="#9aa79f" font-size="9" dominant-baseline="middle">D</text><text x="22" y="148" text-anchor="middle" font-family="ui-sans-serif, system-ui, sans-serif" fill="#9aa79f" font-size="9" dominant-baseline="middle">E</text><text x="22" y="168" text-anchor="middle" font-family="ui-sans-serif, system-ui, sans-serif" fill="#9aa79f" font-size="9" dominant-baseline="middle">F</text><text x="22" y="188" text-anchor="middle" font-family="ui-sans-serif, system-ui, sans-serif" fill="#9aa79f" font-size="9" dominant-baseline="middle">G</text><text x="22" y="208" text-anchor="middle" font-family="ui-sans-serif, system-ui, sans-serif" fill="#9aa79f" font-size="9" dominant-baseline="middle">H</text><text x="42" y="48" text-anchor="middle" font-family="ui-sans-serif, system-ui, sans-serif" fill="#9aa79f" font-size="9">1</text><text x="62" y="48" text-anchor="middle" font-family="ui-sans-serif, system-ui, sans-serif" fill="#9aa79f" font-size="9">2</text><text x="82" y="48" text-anchor="middle" font-family="ui-sans-serif, system-ui, sans-serif" fill="#9aa79f" font-size="9">3</text><text x="102" y="48" text-anchor="middle" font-family="ui-sans-serif, system-ui, sans-serif" fill="#9aa79f" font-size="9">4</text><text x="122" y="48" text-anchor="middle" font-family="ui-sans-serif, system-ui, sans-serif" fill="#9aa79f" font-size="9">5</text><text x="142" y="48" text-anchor="middle" font-family="ui-sans-serif, system-ui, sans-serif" fill="#9aa79f" font-size="9">6</text><text x="162" y="48" text-anchor="middle" font-family="ui-sans-serif, system-ui, sans-serif" fill="#9aa79f" font-size="9">7</text><text x="182" y="48" text-anchor="middle" font-family="ui-sans-serif, system-ui, sans-serif" fill="#9aa79f" font-size="9">8</text><text x="202" y="48" text-anchor="middle" font-family="ui-sans-serif, system-ui, sans-serif" fill="#9aa79f" font-size="9">9</text><text x="222" y="48" text-anchor="middle" font-family="ui-sans-serif, system-ui, sans-serif" fill="#9aa79f" font-size="9">10</text><text x="242" y="48" text-anchor="middle" font-family="ui-sans-serif, system-ui, sans-serif" fill="#9aa79f" font-size="9">11</text><text x="262" y="48" text-anchor="middle" font-family="ui-sans-serif, system-ui, sans-serif" fill="#9aa79f" font-size="9">12</text><text x="282" y="48" text-anchor="middle" font-family="ui-sans-serif, system-ui, sans-serif" fill="#9aa79f" font-size="9">13</text><text x="302" y="48" text-anchor="middle" font-family="ui-sans-serif, system-ui, sans-serif" fill="#9aa79f" font-size="9">14</text><circle cx="82" cy="108" r="6" fill="#9aa3ab" stroke="#747a80" stroke-width="1"/><circle cx="162" cy="108" r="6" fill="#9aa3ab" stroke="#747a80" stroke-width="1"/><circle cx="202" cy="108" r="6" fill="#9aa3ab" stroke="#747a80" stroke-width="1"/><circle cx="242" cy="108" r="6" fill="#9aa3ab" stroke="#747a80" stroke-width="1"/><circle cx="42" cy="68" r="6" fill="#9aa3ab" stroke="#747a80" stroke-width="1"/><circle cx="82" cy="68" r="6" fill="#9aa3ab" stroke="#747a80" stroke-width="1"/><circle cx="42" cy="108" r="6" fill="#9aa3ab" stroke="#747a80" stroke-width="1"/><circle cx="42" cy="208" r="6" fill="#9aa3ab" stroke="#747a80" stroke-width="1"/><line x1="42" y1="68" x2="82" y2="68" stroke="#e6ebef" stroke-width="3" stroke-linecap="round" stroke-opacity="0.9"/><line x1="82" y1="68" x2="82" y2="108" stroke="#e6ebef" stroke-width="3" stroke-linecap="round" stroke-opacity="0.9"/><line x1="162" y1="108" x2="202" y2="108" stroke="#e6ebef" stroke-width="3" stroke-linecap="round" stroke-opacity="0.9"/><line x1="242" y1="108" x2="42" y2="108" stroke="#23272e" stroke-width="3" stroke-linecap="round" stroke-opacity="0.9"/><line x1="42" y1="108" x2="42" y2="208" stroke="#23272e" stroke-width="3" stroke-linecap="round" stroke-opacity="0.9"/><line x1="82" y1="108" x2="162" y2="108" stroke="#8d949a" stroke-width="2"/><g transform="translate(122 108) rotate(0)"><rect x="-19" y="-6.5" width="38" height="13" rx="5" fill="#e9d8a6" stroke="#b08968"/><rect x="-9.5" y="-6" width="3.2" height="12" fill="#6b4423"/><rect x="-1.9" y="-6" width="3.2" height="12" fill="#1b1d21"/><rect x="5.7" y="-6" width="3.2" height="12" fill="#e07b1e"/><rect x="13.3" y="-6" width="3.2" height="12" fill="#6b4423"/></g><text x="122" y="121.5" text-anchor="middle" font-family="ui-sans-serif, system-ui, sans-serif" stroke="#1c4a31" stroke-width="3" paint-order="stroke" fill="#e8efe9" font-size="9">R1 10k</text><line x1="202" y1="108" x2="242" y2="108" stroke="#8d949a" stroke-width="2"/><g transform="translate(222 108) rotate(0)"><circle cx="0" cy="-4" r="8.5" fill="#37b34a" fill-opacity="0.85" stroke="#7a2018"/><line x1="6" y1="-11" x2="6" y2="3" stroke="#7a2018" stroke-width="2"/></g><text x="222" y="122.5" text-anchor="middle" font-family="ui-sans-serif, system-ui, sans-serif" stroke="#1c4a31" stroke-width="3" paint-order="stroke" fill="#e8efe9" font-size="9">D1 green</text><text x="30" y="251.2" text-anchor="start" font-family="ui-monospace, &apos;DejaVu Sans Mono&apos;, &apos;Noto Sans Mono CJK JP&apos;, monospace" fill="#2b6fd4" font-size="9" xml:space="preserve">```perfboard</text><text x="30" y="261.55" text-anchor="start" font-family="ui-monospace, &apos;DejaVu Sans Mono&apos;, &apos;Noto Sans Mono CJK JP&apos;, monospace" fill="#2b6fd4" font-size="9" xml:space="preserve">board: 14x8</text><text x="30" y="271.9" text-anchor="start" font-family="ui-monospace, &apos;DejaVu Sans Mono&apos;, &apos;Noto Sans Mono CJK JP&apos;, monospace" fill="#2b6fd4" font-size="9" xml:space="preserve">style: dark</text><text x="30" y="282.25" text-anchor="start" font-family="ui-monospace, &apos;DejaVu Sans Mono&apos;, &apos;Noto Sans Mono CJK JP&apos;, monospace" fill="#2b6fd4" font-size="9" xml:space="preserve">title: 図02 暗いテーマ</text><text x="30" y="292.6" text-anchor="start" font-family="ui-monospace, &apos;DejaVu Sans Mono&apos;, &apos;Noto Sans Mono CJK JP&apos;, monospace" fill="#2b6fd4" font-size="9" xml:space="preserve">points:</text><text x="30" y="302.95" text-anchor="start" font-family="ui-monospace, &apos;DejaVu Sans Mono&apos;, &apos;Noto Sans Mono CJK JP&apos;, monospace" fill="#2b6fd4" font-size="9" xml:space="preserve">  IN: a1</text><text x="30" y="313.3" text-anchor="start" font-family="ui-monospace, &apos;DejaVu Sans Mono&apos;, &apos;Noto Sans Mono CJK JP&apos;, monospace" fill="#2b6fd4" font-size="9" xml:space="preserve">  GND: h1</text><text x="30" y="323.65" text-anchor="start" font-family="ui-monospace, &apos;DejaVu Sans Mono&apos;, &apos;Noto Sans Mono CJK JP&apos;, monospace" fill="#2b6fd4" font-size="9" xml:space="preserve">parts:</text><text x="30" y="334" text-anchor="start" font-family="ui-monospace, &apos;DejaVu Sans Mono&apos;, &apos;Noto Sans Mono CJK JP&apos;, monospace" fill="#2b6fd4" font-size="9" xml:space="preserve">  R1: resistor c3 c7 10k</text><text x="30" y="344.35" text-anchor="start" font-family="ui-monospace, &apos;DejaVu Sans Mono&apos;, &apos;Noto Sans Mono CJK JP&apos;, monospace" fill="#2b6fd4" font-size="9" xml:space="preserve">  D1: led c9 c11 green</text><text x="30" y="354.7" text-anchor="start" font-family="ui-monospace, &apos;DejaVu Sans Mono&apos;, &apos;Noto Sans Mono CJK JP&apos;, monospace" fill="#2b6fd4" font-size="9" xml:space="preserve">wires:</text><text x="30" y="365.05" text-anchor="start" font-family="ui-monospace, &apos;DejaVu Sans Mono&apos;, &apos;Noto Sans Mono CJK JP&apos;, monospace" fill="#2b6fd4" font-size="9" xml:space="preserve">  - IN -- a3</text><text x="30" y="375.4" text-anchor="start" font-family="ui-monospace, &apos;DejaVu Sans Mono&apos;, &apos;Noto Sans Mono CJK JP&apos;, monospace" fill="#2b6fd4" font-size="9" xml:space="preserve">  - a3 -- c3</text><text x="30" y="385.75" text-anchor="start" font-family="ui-monospace, &apos;DejaVu Sans Mono&apos;, &apos;Noto Sans Mono CJK JP&apos;, monospace" fill="#2b6fd4" font-size="9" xml:space="preserve">  - c7 -- c9</text><text x="30" y="396.1" text-anchor="start" font-family="ui-monospace, &apos;DejaVu Sans Mono&apos;, &apos;Noto Sans Mono CJK JP&apos;, monospace" fill="#2b6fd4" font-size="9" xml:space="preserve">  - c11 -- c1 black</text><text x="30" y="406.45" text-anchor="start" font-family="ui-monospace, &apos;DejaVu Sans Mono&apos;, &apos;Noto Sans Mono CJK JP&apos;, monospace" fill="#2b6fd4" font-size="9" xml:space="preserve">  - c1 -- GND black</text><text x="30" y="416.8" text-anchor="start" font-family="ui-monospace, &apos;DejaVu Sans Mono&apos;, &apos;Noto Sans Mono CJK JP&apos;, monospace" fill="#2b6fd4" font-size="9" xml:space="preserve">notes:</text><text x="30" y="427.15" text-anchor="start" font-family="ui-monospace, &apos;DejaVu Sans Mono&apos;, &apos;Noto Sans Mono CJK JP&apos;, monospace" fill="#2b6fd4" font-size="9" xml:space="preserve">  - source blue</text><text x="30" y="437.5" text-anchor="start" font-family="ui-monospace, &apos;DejaVu Sans Mono&apos;, &apos;Noto Sans Mono CJK JP&apos;, monospace" fill="#2b6fd4" font-size="9" xml:space="preserve">```</text></svg>
