<svg xmlns="http://www.w3.org/2000/svg" viewBox="0 0 716 380" width="520" height="275.98" data-vna-fence="0.1.0" role="img"><rect x="0" y="0" width="716" height="380" fill="#ffffff"/><text x="14" y="28" text-anchor="start" font-family="&apos;Segoe UI&apos;, &apos;Helvetica Neue&apos;, Arial, &apos;Noto Sans&apos;, &apos;Hiragino Sans&apos;, &apos;Yu Gothic UI&apos;, &apos;Noto Sans CJK JP&apos;, sans-serif" fill="#000000" font-size="15" font-weight="600">図02 白黒で刷る</text><line x1="60" y1="45" x2="82" y2="45" stroke="#000000" stroke-width="1.5" stroke-dasharray="5 3"/><text x="87" y="47.98" text-anchor="start" font-family="ui-sans-serif, system-ui, sans-serif" fill="#000000" font-size="8.5">理想 (dut:)</text><text x="60" y="66" text-anchor="start" font-family="&apos;Segoe UI&apos;, &apos;Helvetica Neue&apos;, Arial, &apos;Noto Sans&apos;, &apos;Hiragino Sans&apos;, &apos;Yu Gothic UI&apos;, &apos;Noto Sans CJK JP&apos;, sans-serif" fill="#000000" font-size="10" font-weight="600">LOGMAG  10 dB/目盛</text><text x="380" y="66" text-anchor="end" font-family="&apos;Segoe UI&apos;, &apos;Helvetica Neue&apos;, Arial, &apos;Noto Sans&apos;, &apos;Hiragino Sans&apos;, &apos;Yu Gothic UI&apos;, &apos;Noto Sans CJK JP&apos;, sans-serif" fill="#000000" font-size="10" font-weight="600">S21</text><line x1="92" y1="74" x2="92" y2="314" stroke="#bdbdbd" stroke-width="0.75"/><line x1="124" y1="74" x2="124" y2="314" stroke="#bdbdbd" stroke-width="0.75"/><line x1="156" y1="74" x2="156" y2="314" stroke="#bdbdbd" stroke-width="0.75"/><line x1="188" y1="74" x2="188" y2="314" stroke="#bdbdbd" stroke-width="0.75"/><line x1="220" y1="74" x2="220" y2="314" stroke="#bdbdbd" stroke-width="0.75"/><line x1="252" y1="74" x2="252" y2="314" stroke="#bdbdbd" stroke-width="0.75"/><line x1="284" y1="74" x2="284" y2="314" stroke="#bdbdbd" stroke-width="0.75"/><line x1="316" y1="74" x2="316" y2="314" stroke="#bdbdbd" stroke-width="0.75"/><line x1="348" y1="74" x2="348" y2="314" stroke="#bdbdbd" stroke-width="0.75"/><text x="56" y="316.98" text-anchor="end" font-family="ui-sans-serif, system-ui, sans-serif" fill="#3a3a3a" font-size="8.5">−80</text><line x1="60" y1="284" x2="380" y2="284" stroke="#bdbdbd" stroke-width="0.75"/><text x="56" y="286.98" text-anchor="end" font-family="ui-sans-serif, system-ui, sans-serif" fill="#3a3a3a" font-size="8.5">−70</text><line x1="60" y1="254" x2="380" y2="254" stroke="#bdbdbd" stroke-width="0.75"/><text x="56" y="256.98" text-anchor="end" font-family="ui-sans-serif, system-ui, sans-serif" fill="#3a3a3a" font-size="8.5">−60</text><line x1="60" y1="224" x2="380" y2="224" stroke="#bdbdbd" stroke-width="0.75"/><text x="56" y="226.98" text-anchor="end" font-family="ui-sans-serif, system-ui, sans-serif" fill="#3a3a3a" font-size="8.5">−50</text><line x1="60" y1="194" x2="380" y2="194" stroke="#bdbdbd" stroke-width="0.75"/><text x="56" y="196.98" text-anchor="end" font-family="ui-sans-serif, system-ui, sans-serif" fill="#3a3a3a" font-size="8.5">−40</text><line x1="60" y1="164" x2="380" y2="164" stroke="#bdbdbd" stroke-width="0.75"/><text x="56" y="166.98" text-anchor="end" font-family="ui-sans-serif, system-ui, sans-serif" fill="#3a3a3a" font-size="8.5">−30</text><line x1="60" y1="134" x2="380" y2="134" stroke="#bdbdbd" stroke-width="0.75"/><text x="56" y="136.98" text-anchor="end" font-family="ui-sans-serif, system-ui, sans-serif" fill="#3a3a3a" font-size="8.5">−20</text><line x1="60" y1="104" x2="380" y2="104" stroke="#bdbdbd" stroke-width="0.75"/><text x="56" y="106.98" text-anchor="end" font-family="ui-sans-serif, system-ui, sans-serif" fill="#3a3a3a" font-size="8.5">−10</text><text x="56" y="76.97" text-anchor="end" font-family="ui-sans-serif, system-ui, sans-serif" fill="#3a3a3a" font-size="8.5">0</text><rect x="60" y="74" width="320" height="240" fill="none" stroke="#000000" stroke-width="1"/><polyline points="60,92.06 63.2,92.06 66.4,92.06 69.6,92.06 72.8,92.06 76,92.06 79.2,92.06 82.4,92.06 85.6,92.06 88.8,92.06 92,92.06 95.2,92.06 98.4,92.06 101.6,92.06 104.8,92.06 108,92.06 111.2,92.06 114.4,92.06 117.6,92.06 120.8,92.06 124,92.06 127.2,92.06 130.4,92.06 133.6,92.06 136.8,92.06 140,92.06 143.2,92.06 146.4,92.06 149.6,92.06 152.8,92.06 156,92.06 159.2,92.06 162.4,92.06 165.6,92.06 168.8,92.06 172,92.06 175.2,92.06 178.4,92.06 181.6,92.06 184.8,92.06 188,92.06 191.2,92.06 194.4,92.06 197.6,92.06 200.8,92.06 204,92.06 207.2,92.06 210.4,92.06 213.6,92.06 216.8,92.06 220,92.06 223.2,92.06 226.4,92.06 229.6,92.06 232.8,92.06 236,92.06 239.2,92.06 242.4,92.06 245.6,92.06 248.8,92.06 252,92.06 255.2,92.06 258.4,92.06 261.6,92.06 264.8,92.06 268,92.06 271.2,92.06 274.4,92.06 277.6,92.06 280.8,92.06 284,92.06 287.2,92.06 290.4,92.06 293.6,92.06 296.8,92.06 300,92.06 303.2,92.06 306.4,92.06 309.6,92.06 312.8,92.06 316,92.06 319.2,92.06 322.4,92.06 325.6,92.06 328.8,92.06 332,92.06 335.2,92.06 338.4,92.06 341.6,92.06 344.8,92.06 348,92.06 351.2,92.06 354.4,92.06 357.6,92.06 360.8,92.06 364,92.06 367.2,92.06 370.4,92.06 373.6,92.06 376.8,92.06 380,92.06" fill="none" stroke="#000000" stroke-width="1.5" stroke-linejoin="round" stroke-dasharray="5 3"/><text x="60" y="326.5" text-anchor="start" font-family="ui-sans-serif, system-ui, sans-serif" fill="#3a3a3a" font-size="8.5">1 MHz</text><text x="220" y="326.5" text-anchor="middle" font-family="ui-sans-serif, system-ui, sans-serif" fill="#3a3a3a" font-size="8.5">150.5 MHz</text><text x="380" y="326.5" text-anchor="end" font-family="ui-sans-serif, system-ui, sans-serif" fill="#3a3a3a" font-size="8.5">300 MHz</text><text x="436" y="66" text-anchor="start" font-family="&apos;Segoe UI&apos;, &apos;Helvetica Neue&apos;, Arial, &apos;Noto Sans&apos;, &apos;Hiragino Sans&apos;, &apos;Yu Gothic UI&apos;, &apos;Noto Sans CJK JP&apos;, sans-serif" fill="#000000" font-size="10" font-weight="600">SMITH</text><text x="676" y="66" text-anchor="end" font-family="&apos;Segoe UI&apos;, &apos;Helvetica Neue&apos;, Arial, &apos;Noto Sans&apos;, &apos;Hiragino Sans&apos;, &apos;Yu Gothic UI&apos;, &apos;Noto Sans CJK JP&apos;, sans-serif" fill="#555555" font-size="10" font-weight="600">S11</text><circle cx="576" cy="220" r="100" fill="none" stroke="#bdbdbd" stroke-width="0.75"/><circle cx="596" cy="220" r="80" fill="none" stroke="#bdbdbd" stroke-width="0.75"/><circle cx="616" cy="220" r="60" fill="none" stroke="#bdbdbd" stroke-width="0.75"/><circle cx="636" cy="220" r="40" fill="none" stroke="#bdbdbd" stroke-width="0.75"/><circle cx="656" cy="220" r="20" fill="none" stroke="#bdbdbd" stroke-width="0.75"/><path d="M676,220 A600,600 0 0 1 445.23,173.85" fill="none" stroke="#bdbdbd" stroke-width="0.75"/><path d="M676,220 A600,600 0 0 0 445.23,266.15" fill="none" stroke="#bdbdbd" stroke-width="0.75"/><path d="M676,220 A240,240 0 0 1 484,124" fill="none" stroke="#bdbdbd" stroke-width="0.75"/><path d="M676,220 A240,240 0 0 0 484,316" fill="none" stroke="#bdbdbd" stroke-width="0.75"/><path d="M676,220 A120,120 0 0 1 556,100" fill="none" stroke="#bdbdbd" stroke-width="0.75"/><path d="M676,220 A120,120 0 0 0 556,340" fill="none" stroke="#bdbdbd" stroke-width="0.75"/><path d="M676,220 A60,60 0 0 1 628,124" fill="none" stroke="#bdbdbd" stroke-width="0.75"/><path d="M676,220 A60,60 0 0 0 628,316" fill="none" stroke="#bdbdbd" stroke-width="0.75"/><path d="M676,220 A24,24 0 0 1 666.77,173.85" fill="none" stroke="#bdbdbd" stroke-width="0.75"/><path d="M676,220 A24,24 0 0 0 666.77,266.15" fill="none" stroke="#bdbdbd" stroke-width="0.75"/><line x1="436" y1="220" x2="676" y2="220" fill="none" stroke="#bdbdbd" stroke-width="0.75"/><circle cx="556" cy="220" r="120" fill="none" stroke="#000000" stroke-width="1"/><text x="478" y="217" text-anchor="start" font-family="ui-sans-serif, system-ui, sans-serif" fill="#3a3a3a" font-size="8.5">0.2</text><text x="518" y="217" text-anchor="start" font-family="ui-sans-serif, system-ui, sans-serif" fill="#3a3a3a" font-size="8.5">0.5</text><text x="558" y="217" text-anchor="start" font-family="ui-sans-serif, system-ui, sans-serif" fill="#3a3a3a" font-size="8.5">1</text><text x="598" y="217" text-anchor="start" font-family="ui-sans-serif, system-ui, sans-serif" fill="#3a3a3a" font-size="8.5">2</text><text x="638" y="217" text-anchor="start" font-family="ui-sans-serif, system-ui, sans-serif" fill="#3a3a3a" font-size="8.5">5</text><text x="435.26" y="172.67" text-anchor="middle" font-family="ui-sans-serif, system-ui, sans-serif" fill="#3a3a3a" font-size="8.5">j0.2</text><text x="435.26" y="273.28" text-anchor="middle" font-family="ui-sans-serif, system-ui, sans-serif" fill="#3a3a3a" font-size="8.5">−j0.2</text><text x="477.52" y="118.33" text-anchor="middle" font-family="ui-sans-serif, system-ui, sans-serif" fill="#3a3a3a" font-size="8.5">j0.5</text><text x="477.52" y="327.62" text-anchor="middle" font-family="ui-sans-serif, system-ui, sans-serif" fill="#3a3a3a" font-size="8.5">−j0.5</text><text x="556" y="92.17" text-anchor="middle" font-family="ui-sans-serif, system-ui, sans-serif" fill="#3a3a3a" font-size="8.5">j1</text><text x="556" y="353.78" text-anchor="middle" font-family="ui-sans-serif, system-ui, sans-serif" fill="#3a3a3a" font-size="8.5">−j1</text><text x="634.48" y="118.33" text-anchor="middle" font-family="ui-sans-serif, system-ui, sans-serif" fill="#3a3a3a" font-size="8.5">j2</text><text x="634.48" y="327.62" text-anchor="middle" font-family="ui-sans-serif, system-ui, sans-serif" fill="#3a3a3a" font-size="8.5">−j2</text><text x="676.74" y="172.67" text-anchor="middle" font-family="ui-sans-serif, system-ui, sans-serif" fill="#3a3a3a" font-size="8.5">j5</text><text x="676.74" y="273.28" text-anchor="middle" font-family="ui-sans-serif, system-ui, sans-serif" fill="#3a3a3a" font-size="8.5">−j5</text><text x="433" y="222.98" text-anchor="end" font-family="ui-sans-serif, system-ui, sans-serif" fill="#3a3a3a" font-size="8.5">0</text><text x="679" y="222.98" text-anchor="start" font-family="ui-sans-serif, system-ui, sans-serif" fill="#3a3a3a" font-size="8.5">∞</text><polyline points="616,220 616,220 616,220 616,220 616,220 616,220 616,220 616,220 616,220 616,220 616,220 616,220 616,220 616,220 616,220 616,220 616,220 616,220 616,220 616,220 616,220 616,220 616,220 616,220 616,220 616,220 616,220 616,220 616,220 616,220 616,220 616,220 616,220 616,220 616,220 616,220 616,220 616,220 616,220 616,220 616,220 616,220 616,220 616,220 616,220 616,220 616,220 616,220 616,220 616,220 616,220 616,220 616,220 616,220 616,220 616,220 616,220 616,220 616,220 616,220 616,220 616,220 616,220 616,220 616,220 616,220 616,220 616,220 616,220 616,220 616,220 616,220 616,220 616,220 616,220 616,220 616,220 616,220 616,220 616,220 616,220 616,220 616,220 616,220 616,220 616,220 616,220 616,220 616,220 616,220 616,220 616,220 616,220 616,220 616,220 616,220 616,220 616,220 616,220 616,220 616,220" fill="none" stroke="#555555" stroke-width="1.5" stroke-linejoin="round" stroke-dasharray="5 3"/><text x="712" y="376" text-anchor="end" font-family="ui-sans-serif, system-ui, sans-serif" fill="#3a3a3a" font-size="8.5">vna-fence 0.1.0</text></svg>
